<?xml version="1.0" standalone="no"?>
<!DOCTYPE svg PUBLIC "-//W3C//DTD SVG 1.1//EN" "http://www.w3.org/Graphics/SVG/1.1/DTD/svg11.dtd" >
<svg xmlns="http://www.w3.org/2000/svg" xmlns:xlink="http://www.w3.org/1999/xlink" version="1.1">
<metadata></metadata>
<defs>
<font id="notokr-boldregular" horiz-adv-x="920" >
<font-face units-per-em="1000" ascent="800" descent="-200" />
<missing-glyph horiz-adv-x="227" />
<glyph unicode=" "  horiz-adv-x="227" />
<glyph unicode="&#x09;" horiz-adv-x="227" />
<glyph unicode="&#xa0;" horiz-adv-x="227" />
<glyph unicode="!" horiz-adv-x="370" d="M137 252l-21 369l-5 139h148l-5 -139l-21 -369h-96zM185 -14q-39 0 -65 27.5t-26 68.5t26 68.5t65 27.5t65.5 -27.5t26.5 -68.5t-26.5 -68.5t-65.5 -27.5z" />
<glyph unicode="&#x22;" horiz-adv-x="575" d="M121 426l-29 215l-5 139h150l-5 -139l-29 -215h-82zM371 426l-29 215l-5 139h150l-5 -139l-29 -215h-82z" />
<glyph unicode="#" horiz-adv-x="589" d="M99 0l26 217h-86v95h97l17 137h-91v96h103l25 192h85l-23 -192h126l25 192h85l-22 -192h89v-96h-101l-17 -137h95v-95h-106l-26 -217h-88l26 217h-125l-27 -217h-87zM223 312h126l17 137h-126z" />
<glyph unicode="$" horiz-adv-x="589" d="M511 641l-74 -84q-64 59 -128 59q-92 0 -92 -83q0 -34 31.5 -59.5t76 -46t89 -45.5t76 -70.5t31.5 -107.5q0 -83 -45.5 -139.5t-130.5 -72.5v-116h-99v112q-117 14 -198 87l65 99q87 -68 165 -68q102 0 102 88q0 37 -31.5 65.5t-76 50.5t-89 47t-76 68t-31.5 101 q0 81 45.5 135t124.5 69v116h99v-114q91 -13 166 -91z" />
<glyph unicode="%" horiz-adv-x="962" d="M212 285q-81 0 -130.5 63t-49.5 173q0 109 49.5 171t130.5 62t131 -62t50 -171q0 -110 -50 -173t-131 -63zM212 368q35 0 56 37.5t21 115.5q0 77 -21 113.5t-56 36.5q-76 0 -76 -150q0 -78 21 -115.5t55 -37.5zM237 -14l402 768h87l-403 -768h-86zM750 -14 q-80 0 -130 63.5t-50 172.5q0 110 49.5 172t130.5 62t131 -62.5t50 -171.5t-50.5 -172.5t-130.5 -63.5zM750 70q35 0 56 37t21 115q0 77 -21 114t-56 37t-56 -37t-21 -114q0 -78 21 -115t56 -37z" />
<glyph unicode="&#x26;" horiz-adv-x="739" d="M170 205q0 -47 33.5 -76.5t86.5 -29.5q52 0 108 37q-96 79 -167 173q-61 -53 -61 -104zM244 566q0 -43 27 -99q50 30 76.5 59t26.5 66q0 64 -56 64q-33 0 -53.5 -24.5t-20.5 -65.5zM719 106l-36 -120q-93 21 -184 78q-99 -78 -227 -78q-112 0 -177 60t-65 150 q0 71 37 120t102 90q-47 88 -47 160q0 79 53.5 133.5t140.5 54.5q79 0 125.5 -44t46.5 -117q0 -35 -12.5 -66t-38.5 -58.5t-48.5 -46t-59.5 -43.5q66 -82 160 -154q62 83 91 188h133q-42 -142 -125 -254q76 -43 131 -53z" />
<glyph unicode="'" horiz-adv-x="325" d="M121 426l-29 215l-5 139h150l-5 -139l-29 -215h-82z" />
<glyph unicode="(" horiz-adv-x="378" d="M234 -202q-149 246 -149 518q0 273 149 517l92 -39q-122 -212 -122 -478q0 -267 122 -479z" />
<glyph unicode=")" horiz-adv-x="378" d="M143 -202l-91 39q122 212 122 479q0 266 -122 478l91 39q150 -243 150 -517q0 -273 -150 -518z" />
<glyph unicode="*" horiz-adv-x="506" d="M165 418l-63 46l66 114l-119 53l24 74l128 -29l13 132h79l12 -132l128 29l24 -74l-120 -53l67 -114l-63 -46l-88 100z" />
<glyph unicode="+" horiz-adv-x="589" d="M240 109v213h-202v104h202v213h109v-213h202v-104h-202v-213h-109z" />
<glyph unicode="," horiz-adv-x="325" d="M84 -213l-31 80q58 22 89 57.5t31 79.5h-9q-38 0 -65 23.5t-27 63.5q0 39 27.5 63t67.5 24q51 0 78.5 -38t27.5 -107q0 -88 -49.5 -152t-139.5 -94z" />
<glyph unicode="-" horiz-adv-x="370" d="M49 234v105h273v-105h-273z" />
<glyph unicode="." horiz-adv-x="325" d="M162 -14q-39 0 -65 27.5t-26 68.5t26 68.5t65 27.5q40 0 66 -27.5t26 -68.5t-26 -68.5t-66 -27.5z" />
<glyph unicode="/" horiz-adv-x="388" d="M14 -182l248 987h98l-248 -987h-98z" />
<glyph unicode="0" horiz-adv-x="589" d="M295 -14q-116 0 -183.5 100t-67.5 287t67 284t184 97q116 0 183 -97t67 -284t-67.5 -287t-182.5 -100zM295 101q111 0 111 272q0 267 -111 267q-112 0 -112 -267q0 -272 112 -272z" />
<glyph unicode="1" horiz-adv-x="589" d="M82 0v119h159v468h-134v91q103 20 172 62h109v-621h139v-119h-445z" />
<glyph unicode="2" horiz-adv-x="589" d="M43 0v85q161 144 240.5 248t79.5 185q0 56 -29.5 88t-81.5 32q-67 0 -136 -76l-80 80q54 57 108.5 84.5t126.5 27.5q105 0 169 -62.5t64 -165.5q0 -169 -246 -410q74 8 120 8h161v-124h-496z" />
<glyph unicode="3" horiz-adv-x="589" d="M274 -14q-157 0 -248 103l69 93q78 -76 165 -76q57 0 91.5 27t34.5 76q0 59 -45 88.5t-159 29.5v106q180 0 180 113q0 44 -26 68t-73 25q-69 -1 -140 -66l-75 90q104 91 222 91q109 0 174.5 -51.5t65.5 -145.5q0 -120 -124 -169v-5q66 -18 107 -65t41 -117 q0 -99 -75 -157t-185 -58z" />
<glyph unicode="4" horiz-adv-x="589" d="M164 304h172v151q0 24 6 153h-4q-29 -63 -59 -120zM561 304v-112h-88v-192h-137v192h-315v100l276 448h176v-436h88z" />
<glyph unicode="5" horiz-adv-x="589" d="M276 -14q-149 0 -250 101l68 94q77 -75 163 -75q59 0 95 36t36 100t-34 99t-91 35q-32 0 -54.5 -8.5t-56.5 -30.5l-67 44l20 359h396v-123h-269l-14 -157q44 21 89 21q99 0 163.5 -60t64.5 -175q0 -119 -75.5 -189.5t-183.5 -70.5z" />
<glyph unicode="6" horiz-adv-x="589" d="M313 97q43 0 71.5 35.5t28.5 100.5q0 64 -28 96.5t-77 32.5q-70 0 -121 -78q19 -187 126 -187zM537 670l-78 -88q-20 23 -51.5 38.5t-62.5 15.5q-69 0 -113 -59t-48 -190q29 36 72 57.5t80 21.5q97 0 154.5 -59t57.5 -174q0 -111 -67 -179t-165 -68q-114 0 -190 94.5 t-76 279.5q0 195 82 294.5t204 99.5q119 0 201 -84z" />
<glyph unicode="7" horiz-adv-x="589" d="M186 0q10 200 52 337t145 280h-333v123h492v-89q-64 -78 -103 -147.5t-60.5 -150.5t-30 -156t-13.5 -197h-149z" />
<glyph unicode="8" horiz-adv-x="589" d="M294 -14q-106 0 -176.5 56t-70.5 142q0 125 127 193v5q-98 70 -98 176q0 88 62.5 141.5t160.5 53.5t156.5 -54t58.5 -143q0 -51 -27 -95.5t-68 -73.5v-5q124 -67 124 -198q0 -85 -69 -141.5t-180 -56.5zM341 423q53 56 53 124q0 46 -26 74.5t-72 28.5q-39 0 -64.5 -24.5 t-25.5 -67.5q0 -48 34 -78t101 -57zM298 90q48 0 78 26t30 73q0 53 -39 83t-125 65q-68 -54 -68 -137q0 -49 35.5 -79.5t88.5 -30.5z" />
<glyph unicode="9" horiz-adv-x="589" d="M280 379q72 0 122 79q-18 185 -127 185q-43 0 -71.5 -35.5t-28.5 -100.5q0 -64 28 -96t77 -32zM52 70l77 88q21 -23 53 -37.5t64 -14.5q68 0 111 59t47 190q-28 -37 -70.5 -59t-81.5 -22q-96 0 -154 59.5t-58 173.5q0 111 67.5 179t165.5 68q114 0 190 -92.5t76 -274.5 q0 -198 -82 -299.5t-202 -101.5q-121 0 -203 84z" />
<glyph unicode=":" horiz-adv-x="325" d="M162 366q-39 0 -65 27t-26 68t26 68.5t65 27.5q40 0 66 -27.5t26 -68.5t-26 -68t-66 -27zM162 -14q-39 0 -65 27.5t-26 68.5t26 68.5t65 27.5q40 0 66 -27.5t26 -68.5t-26 -68.5t-66 -27.5z" />
<glyph unicode=";" horiz-adv-x="325" d="M162 366q-39 0 -65 27t-26 68t26 68.5t65 27.5q40 0 66 -27.5t26 -68.5t-26 -68t-66 -27zM84 -213l-31 80q58 22 89 57.5t31 79.5h-9q-38 0 -65 23.5t-27 63.5q0 39 27.5 63t67.5 24q51 0 78.5 -38t27.5 -107q0 -88 -49.5 -152t-139.5 -94z" />
<glyph unicode="&#x3c;" horiz-adv-x="589" d="M551 126l-513 198v104l513 198v-121l-210 -72l-153 -54v-5l153 -54l210 -72v-122z" />
<glyph unicode="=" horiz-adv-x="589" d="M38 451v105h513v-105h-513zM38 192v105h513v-105h-513z" />
<glyph unicode="&#x3e;" horiz-adv-x="589" d="M38 126v122l211 72l153 54v5l-153 54l-211 72v121l513 -198v-104z" />
<glyph unicode="?" horiz-adv-x="514" d="M177 252q-8 55 13 104.5t51 80.5t56 68t26 68q0 38 -23 60t-62 22q-57 0 -111 -56l-81 74q88 100 210 100q94 0 151 -48.5t57 -141.5q0 -39 -18 -74.5t-42.5 -63.5l-49 -56t-39 -63t-10.5 -74h-128zM241 -14q-39 0 -65 27.5t-26 68.5t26 68.5t65 27.5q40 0 66 -27.5 t26 -68.5t-26 -68.5t-66 -27.5z" />
<glyph unicode="@" horiz-adv-x="1007" d="M478 -190q-86 0 -161.5 26.5t-134 77.5t-92.5 133t-34 185q0 115 40 213t108.5 165t160 104.5t192.5 37.5q179 0 286.5 -110t107.5 -286q0 -74 -22.5 -134.5t-59.5 -97.5t-80.5 -57t-87.5 -20q-49 0 -84 22.5t-43 63.5h-2q-25 -34 -63.5 -55t-73.5 -21q-65 0 -105.5 45.5 t-40.5 122.5q0 104 66 189t160 85q60 0 87 -56h2l16 47h91l-49 -244q-26 -107 54 -107q55 0 97.5 59.5t42.5 152.5q0 136 -78 223t-233 87q-74 0 -143.5 -30.5t-124.5 -84.5t-88 -135t-33 -175q0 -160 95 -247.5t239 -87.5q93 0 175 46l33 -82q-98 -55 -220 -55zM466 150 q38 0 83 56l29 160q-22 37 -59 37q-51 0 -85 -55t-34 -115q0 -41 18 -62t48 -21z" />
<glyph unicode="A" horiz-adv-x="641" d="M230 305h176l-22 81q-13 44 -35.5 130.5t-29.5 111.5h-4q-28 -120 -63 -242zM490 0l-52 190h-240l-52 -190h-150l237 740h174l238 -740h-155z" />
<glyph unicode="B" horiz-adv-x="681" d="M91 0v740h245q268 0 268 -182q0 -53 -27.5 -98.5t-73.5 -61.5v-5q63 -15 101 -59t38 -116q0 -107 -79 -162.5t-208 -55.5h-264zM239 439h86q135 0 135 97q0 48 -32.5 69.5t-100.5 21.5h-88v-188zM239 114h103q156 0 156 113q0 102 -156 102h-103v-215z" />
<glyph unicode="C" horiz-adv-x="657" d="M393 -14q-146 0 -242.5 101t-96.5 280q0 177 99 282t245 105q126 0 217 -95l-78 -94q-64 62 -136 62q-86 0 -141 -69t-55 -186q0 -120 52.5 -189t140.5 -69q85 0 153 73l78 -92q-94 -109 -236 -109z" />
<glyph unicode="D" horiz-adv-x="714" d="M91 0v740h203q174 0 270 -92t96 -275t-95.5 -278t-262.5 -95h-211zM239 119h46q224 0 224 254q0 249 -224 249h-46v-503z" />
<glyph unicode="E" horiz-adv-x="615" d="M91 0v740h454v-123h-306v-171h260v-124h-260v-198h317v-124h-465z" />
<glyph unicode="F" horiz-adv-x="585" d="M91 0v740h456v-123h-308v-193h263v-124h-263v-300h-148z" />
<glyph unicode="G" horiz-adv-x="717" d="M409 -14q-157 0 -256 100.5t-99 280.5q0 178 101 282.5t254 104.5q136 0 229 -95l-79 -94q-64 62 -145 62q-94 0 -151.5 -68.5t-57.5 -186.5q0 -123 56 -190.5t163 -67.5q60 0 93 28v146h-131v121h263v-334q-40 -39 -103 -64t-137 -25z" />
<glyph unicode="H" horiz-adv-x="757" d="M91 0v740h148v-291h280v291h147v-740h-147v320h-280v-320h-148z" />
<glyph unicode="I" horiz-adv-x="330" d="M91 0v740h148v-740h-148z" />
<glyph unicode="J" horiz-adv-x="568" d="M252 -14q-154 0 -230 130l102 75q41 -77 110 -77q50 0 74.5 31.5t24.5 105.5v489h148v-501q0 -111 -57.5 -182t-171.5 -71z" />
<glyph unicode="K" horiz-adv-x="686" d="M91 0v740h148v-321h3l245 321h163l-226 -291l266 -449h-163l-191 332l-97 -124v-208h-148z" />
<glyph unicode="L" horiz-adv-x="577" d="M91 0v740h148v-616h300v-124h-448z" />
<glyph unicode="M" horiz-adv-x="854" d="M91 0v740h164l126 -346q3 -9 45 -143h5q7 22 21.5 70t23.5 73l123 346h164v-740h-135v309q0 63 18 243h-4l-60 -174l-114 -311h-85l-115 311l-59 174h-4q19 -190 19 -243v-309h-133z" />
<glyph unicode="N" horiz-adv-x="749" d="M91 0v740h151l215 -394l74 -160h5q-19 183 -19 259v295h140v-740h-150l-214 396l-75 159h-5q18 -206 18 -258v-297h-140z" />
<glyph unicode="O" horiz-adv-x="770" d="M385 -14q-149 0 -240 104.5t-91 282.5t91 279.5t240 101.5t240 -102t91 -279q0 -178 -91 -282.5t-240 -104.5zM385 114q82 0 131 70t49 189t-48.5 186.5t-131.5 67.5t-131.5 -67.5t-48.5 -186.5t49 -189t131 -70z" />
<glyph unicode="P" horiz-adv-x="667" d="M91 0v740h243q290 0 290 -232q0 -121 -79.5 -183t-206.5 -62h-99v-263h-148zM239 380h89q151 0 151 128q0 62 -38.5 88.5t-117.5 26.5h-84v-243z" />
<glyph unicode="Q" horiz-adv-x="770" d="M205 373q0 -124 48.5 -195t131.5 -71t131.5 71t48.5 195q0 119 -48.5 186.5t-131.5 67.5t-131.5 -67.5t-48.5 -186.5zM722 -70l26 -109q-46 -22 -124 -22q-109 0 -188 52.5t-119 140.5q-120 23 -191.5 124t-71.5 257q0 178 91 279.5t240 101.5t240 -102t91 -279 q0 -149 -65.5 -248t-177.5 -128q48 -79 168 -79q45 0 81 12z" />
<glyph unicode="R" horiz-adv-x="682" d="M239 623v-226h96q147 0 147 119q0 58 -36.5 82.5t-110.5 24.5h-96zM659 0h-165l-152 280h-103v-280h-148v740h258q278 0 278 -224q0 -158 -141 -213z" />
<glyph unicode="S" horiz-adv-x="624" d="M312 -14q-157 0 -270 108l85 102q89 -82 188 -82q57 0 87.5 22.5t30.5 62.5q0 20 -6.5 34t-26 27t-32 18.5t-46.5 20.5l-99 42q-150 62 -150 199q0 92 72 153t184 61q65 0 126 -25t106 -70l-75 -93q-74 61 -157 61q-49 0 -78 -21t-29 -57q0 -15 7 -28.5t14.5 -21 t27.5 -18t29.5 -14.5t37.5 -15l97 -41q72 -30 110.5 -77.5t38.5 -123.5q0 -94 -74 -159t-198 -65z" />
<glyph unicode="T" horiz-adv-x="625" d="M238 0v617h-208v123h566v-123h-210v-617h-148z" />
<glyph unicode="U" horiz-adv-x="748" d="M375 -14q-288 0 -288 347v407h148v-420q0 -111 35.5 -158.5t104.5 -47.5q70 0 107 48t37 158v420h142v-407q0 -347 -286 -347z" />
<glyph unicode="V" horiz-adv-x="618" d="M221 0l-226 740h155l98 -360q11 -38 30 -116.5t32 -122.5h5q11 40 31 118.5t32 120.5l96 360h150l-227 -740h-176z" />
<glyph unicode="W" horiz-adv-x="915" d="M161 0l-143 740h151l59 -361q5 -35 16.5 -114.5t17.5 -121.5h4q22 114 47 236l86 361h126l86 -361q9 -45 26.5 -133.5t20.5 -102.5h5q18 133 33 236l58 361h141l-137 -740h-184l-83 366q-20 98 -32 171h-4q-21 -119 -32 -171l-81 -366h-181z" />
<glyph unicode="X" horiz-adv-x="627" d="M14 0l208 382l-195 358h164l74 -152q9 -18 26.5 -56.5t28.5 -60.5h5q27 68 49 117l70 152h156l-195 -365l208 -375h-164l-83 164q-10 20 -29 60.5t-29 61.5h-4q-31 -74 -54 -122l-79 -164h-157z" />
<glyph unicode="Y" horiz-adv-x="581" d="M216 0v271l-222 469h157l74 -180q38 -100 64 -164h4q63 156 66 164l74 180h154l-223 -469v-271h-148z" />
<glyph unicode="Z" horiz-adv-x="613" d="M43 0v89l345 528h-312v123h493v-88l-344 -528h348v-124h-530z" />
<glyph unicode="[" horiz-adv-x="378" d="M101 -173v976h229v-78h-119v-818h119v-80h-229z" />
<glyph unicode="\" horiz-adv-x="388" d="M276 -182l-248 987h97l249 -987h-98z" />
<glyph unicode="]" horiz-adv-x="378" d="M48 -173v80h119v818h-119v78h229v-976h-229z" />
<glyph unicode="^" horiz-adv-x="589" d="M60 313l174 447h121l175 -447h-122l-59 161l-52 153h-5l-52 -153l-58 -161h-122z" />
<glyph unicode="_" horiz-adv-x="567" d="M14 -155v86h540v-86h-540z" />
<glyph unicode="`" horiz-adv-x="626" d="M309 650l-199 176l101 98l171 -203z" />
<glyph unicode="a" horiz-adv-x="591" d="M217 -14q-74 0 -120 47t-46 119q0 90 76.5 139.5t245.5 67.5q-4 97 -95 97q-62 0 -154 -53l-53 97q119 74 234 74q106 0 160.5 -62.5t54.5 -184.5v-327h-120l-11 60h-3q-86 -74 -169 -74zM265 101q53 0 108 55v113q-182 -24 -182 -105q0 -63 74 -63z" />
<glyph unicode="b" horiz-adv-x="644" d="M360 -14q-79 0 -150 73h-3l-13 -59h-115v798h146v-201l-3 -90q74 67 155 67q103 0 162 -77.5t59 -206.5q0 -139 -70.5 -221.5t-167.5 -82.5zM327 107q54 0 87 46t33 134q0 166 -111 166q-53 0 -111 -58v-246q47 -42 102 -42z" />
<glyph unicode="c" horiz-adv-x="527" d="M317 -14q-119 0 -196 79t-77 214t83.5 215t202.5 80q90 0 163 -62l-70 -95q-43 37 -86 37q-64 0 -103.5 -48t-39.5 -127q0 -78 39 -125.5t100 -47.5q55 0 109 45l58 -97q-77 -68 -183 -68z" />
<glyph unicode="d" horiz-adv-x="644" d="M276 -14q-105 0 -167 78.5t-62 214.5q0 132 70 213.5t165 81.5q76 0 142 -61l-6 88v197h147v-798h-119l-12 58h-3q-74 -72 -155 -72zM314 107q60 0 104 58v246q-46 42 -104 42q-50 0 -83 -45.5t-33 -126.5q0 -174 116 -174z" />
<glyph unicode="e" horiz-adv-x="581" d="M322 -14q-120 0 -199 79t-79 214q0 131 78 213t183 82q112 0 173 -74t61 -194q0 -44 -7 -67h-345q9 -68 50 -104t105 -36t126 39l50 -90q-90 -62 -196 -62zM185 336h228q0 59 -26.5 91.5t-79.5 32.5q-46 0 -80 -32.5t-42 -91.5z" />
<glyph unicode="f" horiz-adv-x="372" d="M405 792l-27 -108q-33 12 -59 12q-68 0 -68 -88v-48h105v-116h-105v-444h-147v444h-75v109l75 6v46q0 94 47.5 150.5t147.5 56.5q56 0 106 -20z" />
<glyph unicode="g" horiz-adv-x="597" d="M276 -243q-104 0 -169 36.5t-65 107.5t80 116v5q-51 33 -51 94q0 60 62 105v4q-31 23 -52.5 61.5t-21.5 84.5q0 95 66 149t160 54q44 0 84 -14h202v-108h-96q26 -33 26 -85q0 -91 -61 -140.5t-155 -49.5q-33 0 -72 13q-24 -20 -24 -48q0 -23 20 -34.5t68 -11.5h95 q208 0 208 -140q0 -86 -83 -142.5t-221 -56.5zM285 268q38 0 62.5 27.5t24.5 75.5t-24 75.5t-63 27.5t-63.5 -27.5t-24.5 -75.5t25 -75.5t63 -27.5zM298 -150q62 0 102 23.5t40 57.5q0 29 -22.5 39.5t-70.5 10.5h-68q-46 0 -78 8q-37 -30 -37 -65t36 -54.5t98 -19.5z" />
<glyph unicode="h" horiz-adv-x="640" d="M79 0v798h146v-201l-6 -105q88 82 176 82q173 0 173 -225v-349h-147v331q0 64 -18.5 90.5t-60.5 26.5q-32 0 -57 -14.5t-60 -48.5v-385h-146z" />
<glyph unicode="i" horiz-adv-x="304" d="M79 0v560h146v-560h-146zM153 650q-38 0 -63 22.5t-25 57.5q0 36 24.5 58t63.5 22q38 0 62.5 -22t24.5 -58q0 -34 -24.5 -57t-62.5 -23z" />
<glyph unicode="j" horiz-adv-x="305" d="M40 -229q-53 0 -94 15l26 109q24 -8 46 -8q35 0 48.5 23t13.5 72v578h147v-574q0 -215 -187 -215zM154 650q-38 0 -63 22.5t-25 57.5q0 36 24.5 58t63.5 22q38 0 63 -22t25 -58q0 -34 -25 -57t-63 -23z" />
<glyph unicode="k" horiz-adv-x="605" d="M79 0v798h143v-480h4l194 242h160l-194 -229l212 -331h-159l-136 232l-81 -92v-140h-143z" />
<glyph unicode="l" horiz-adv-x="315" d="M217 -14q-138 0 -138 171v641h146v-648q0 -44 30 -44q10 0 20 2l18 -109q-32 -13 -76 -13z" />
<glyph unicode="m" horiz-adv-x="964" d="M79 0v560h120l10 -75h4q85 89 172 89q111 0 154 -98q44 47 86 72.5t92 25.5q87 0 130.5 -58.5t43.5 -166.5v-349h-147v331q0 63 -18.5 90t-59.5 27q-48 0 -108 -63v-385h-147v331q0 63 -18.5 90t-59.5 27q-48 0 -108 -63v-385h-146z" />
<glyph unicode="n" horiz-adv-x="641" d="M79 0v560h120l10 -74h4q90 88 182 88q173 0 173 -225v-349h-147v331q0 64 -18.5 90.5t-60.5 26.5q-32 0 -57 -14.5t-60 -48.5v-385h-146z" />
<glyph unicode="o" horiz-adv-x="626" d="M313 -14q-110 0 -189.5 80t-79.5 213q0 135 79 215t190 80t190 -80t79 -215q0 -133 -79.5 -213t-189.5 -80zM313 106q56 0 87.5 46.5t31.5 126.5q0 81 -31.5 128t-87.5 47t-87.5 -47t-31.5 -128q0 -80 31.5 -126.5t87.5 -46.5z" />
<glyph unicode="p" horiz-adv-x="644" d="M79 -215v775h120l10 -58h4q85 72 165 72q103 0 161.5 -77.5t58.5 -207.5q0 -138 -70.5 -220.5t-167.5 -82.5q-72 0 -139 61l4 -92v-170h-146zM327 107q54 0 87 46t33 134q0 166 -111 166q-53 0 -111 -58v-246q49 -42 102 -42z" />
<glyph unicode="q" horiz-adv-x="644" d="M418 -215v178l6 90q-65 -67 -148 -67q-105 0 -167 78.5t-62 214.5q0 132 70 213.5t165 81.5q86 0 152 -69h4l12 55h115v-775h-147zM314 107q60 0 104 58v246q-46 42 -104 42q-50 0 -83 -45.5t-33 -126.5q0 -174 116 -174z" />
<glyph unicode="r" horiz-adv-x="436" d="M79 0v560h120l10 -99h4q30 54 72.5 83.5t86.5 29.5q37 0 66 -12l-26 -127q-28 9 -58 9q-37 0 -72 -26.5t-57 -83.5v-334h-146z" />
<glyph unicode="s" horiz-adv-x="495" d="M239 -14q-55 0 -113 22t-100 57l67 92q78 -61 150 -61q81 0 81 59q0 14 -7.5 25.5t-25 21.5t-31.5 16t-40 16q-9 3 -13 5q-31 12 -54.5 24.5t-48 31.5t-37.5 46.5t-13 60.5q0 76 57 124t151 48q98 0 191 -69l-66 -89q-69 48 -121 48q-36 0 -55 -14.5t-19 -39.5 q0 -7 1.5 -13t6 -11t8.5 -9.5t12 -9t14 -7.5t16.5 -7.5t17 -6.5t19.5 -7t19 -7q34 -13 56.5 -24.5t48 -31t38.5 -48t13 -65.5q0 -77 -58.5 -127t-164.5 -50z" />
<glyph unicode="t" horiz-adv-x="420" d="M284 -14q-184 0 -184 210v248h-79v109l86 7l17 150h123v-150h138v-116h-138v-248q0 -94 76 -94q25 0 55 12l24 -107q-63 -21 -118 -21z" />
<glyph unicode="u" horiz-adv-x="637" d="M245 -14q-172 0 -172 224v350h147v-331q0 -64 18.5 -90.5t59.5 -26.5q34 0 59.5 16t54.5 54v378h147v-560h-120l-11 80h-4q-79 -94 -179 -94z" />
<glyph unicode="v" horiz-adv-x="576" d="M205 0l-191 560h148l82 -279q8 -32 24.5 -93.5t20.5 -76.5h5q12 50 45 170l82 279h141l-187 -560h-170z" />
<glyph unicode="w" horiz-adv-x="863" d="M172 0l-145 560h147l61 -277q6 -30 15 -86.5t13 -76.5h4q25 126 35 163l67 277h131l70 -277q8 -32 20 -90.5t15 -72.5h5q4 20 13 76.5t15 86.5l61 277h136l-138 -560h-173l-59 244q-9 40 -32 163h-5q-28 -149 -31 -163l-57 -244h-168z" />
<glyph unicode="x" horiz-adv-x="562" d="M16 0l175 292l-164 268h158l56 -100q25 -48 50 -94h4q7 15 20.5 47t20.5 47l47 100h152l-164 -285l175 -275h-158l-62 102q-6 11 -17 31.5t-20 37t-17 30.5h-5q-7 -14 -47 -99l-52 -102h-152z" />
<glyph unicode="y" horiz-adv-x="574" d="M128 -225q-42 0 -77 11l27 113q23 -7 39 -7q77 0 105 85l10 33l-218 550h148l89 -260q1 -4 47 -158h5q6 26 19.5 79t20.5 79l77 260h141l-199 -577q-39 -106 -92 -157t-142 -51z" />
<glyph unicode="z" horiz-adv-x="511" d="M41 0v79l250 365h-222v116h406v-79l-251 -365h259v-116h-442z" />
<glyph unicode="{" horiz-adv-x="378" d="M265 -173q-76 0 -109 35t-33 124q0 41 5 102.5t5 97.5t-22.5 60.5t-74.5 25.5v87q52 1 74.5 25t22.5 60t-5 97.5t-5 102.5q0 89 33 124t109 35h65v-78h-23q-38 0 -51.5 -18.5t-13.5 -68.5q0 -30 2.5 -92t2.5 -98q0 -61 -19 -90.5t-61 -39.5v-5q42 -10 61 -40t19 -90 q0 -37 -2.5 -98.5t-2.5 -91.5q0 -50 13 -68t52 -18h23v-80h-65z" />
<glyph unicode="|" horiz-adv-x="296" d="M100 -283v1134h96v-1134h-96z" />
<glyph unicode="}" horiz-adv-x="378" d="M48 -173v80h23q38 0 51.5 18t13.5 68q0 30 -2.5 91.5t-2.5 98.5q0 60 19 90t61 40v5q-42 10 -61 39.5t-19 90.5q0 36 2.5 98t2.5 92q0 50 -13.5 68.5t-51.5 18.5h-23v78h65q76 0 109 -35t33 -124q0 -41 -5.5 -102.5t-5.5 -97.5q0 -35 23 -59.5t74 -25.5v-87 q-51 -1 -74 -25.5t-23 -60.5t5.5 -97.5t5.5 -102.5q0 -89 -33 -124t-109 -35h-65z" />
<glyph unicode="~" horiz-adv-x="589" d="M392 278q-40 0 -75.5 22t-66 44t-55.5 22q-47 0 -83 -66l-77 58q72 113 163 113q39 0 75 -22t66 -44t55 -22q47 0 83 65l77 -58q-71 -112 -162 -112z" />
<glyph unicode="&#xac00;" d="M85 741h434q0 -220 -96 -388.5t-315 -279.5l-74 101q161 83 247.5 195.5t104.5 264.5h-301v107zM893 484v-109h-129v-459h-132v920h132v-352h129z" />
<glyph unicode="&#xac01;" d="M77 783h435q0 -183 -110 -306t-317 -177l-53 103q151 37 236.5 109t100.5 166h-292v105zM154 157v105h614v-349h-132v244h-482zM890 620v-108h-122v-211h-132v534h132v-215h122z" />
<glyph unicode="&#xac04;" d="M76 766h443q0 -186 -110.5 -314t-317.5 -188l-55 105q151 41 237.5 117t102.5 175h-300v105zM305 242v-207h494v-105h-626v312h132zM767 578h123v-108h-123v-294h-132v659h132v-257z" />
<glyph unicode="&#xac07;" d="M77 782h435q0 -182 -110.5 -306t-316.5 -179l-52 104q151 38 236 110t100 166h-292v105zM302 175v-146h490v-104h-621v354h604v-104h-473zM768 632h122v-109h-122v-201h-132v513h132v-203z" />
<glyph unicode="&#xac08;" d="M83 801h435q0 -182 -111 -294.5t-322 -155.5l-47 107q155 29 238 92t95 146h-288v105zM292 85v-58h502v-104h-633v260h477v53h-478v104h608v-255h-476zM768 652h122v-108h-122v-168h-132v460h132v-184z" />
<glyph unicode="&#xac09;" d="M84 797h435q0 -367 -434 -458l-47 108q158 31 239.5 95t93.5 150h-287v105zM254 75v-55q165 1 238 18l13 -96q-52 -13 -111.5 -16t-205.5 -3h-61v242h180v51h-182v97h309v-238h-180zM472 210v103h296v-393h-130v290h-166zM890 647v-108h-122v-186h-132v482h132v-188h122z " />
<glyph unicode="&#xac0a;" d="M84 797h435q0 -363 -434 -449l-47 108q157 28 239 90.5t92 145.5h-285v105zM240 80v-53q112 1 187 14l10 -98q-84 -16 -270 -16h-54v244h173v47h-175v98h302v-236h-173zM574 220v-199h81v199h-81zM461 -74v390h307v-390h-307zM890 648v-108h-122v-184h-132v479h132v-187 h122z" />
<glyph unicode="&#xac10;" d="M77 782h436q0 -182 -110.5 -305t-317.5 -177l-52 104q151 37 236 108.5t100 164.5h-292v105zM300 181v-153h338v153h-338zM171 -75v360h597v-360h-597zM890 635v-108h-122v-205h-132v513h132v-200h122z" />
<glyph unicode="&#xac11;" d="M86 786h430q0 -182 -109.5 -298t-320.5 -163l-48 106q153 33 235.5 98t95.5 152h-283v105zM637 30v81h-339v-81h339zM637 212v88h130v-375h-600v375h131v-88h339zM890 637v-108h-123v-193h-132v499h132v-198h123z" />
<glyph unicode="&#xac12;" d="M82 787h433q0 -366 -429 -463l-48 106q153 34 235.5 99.5t94.5 152.5h-286v105zM345 27v79h-91v-79h91zM724 300v-68q0 -71 36 -128t111 -88l-68 -98q-97 38 -143 135q-48 -96 -142 -135l-53 77v-68h-332v362h121v-86h91v86h120v-266q67 34 100 89.5t33 118.5v69h126z M768 644h122v-109h-122v-200h-132v501h132v-192z" />
<glyph unicode="&#xac13;" d="M85 767h435q0 -187 -111 -316t-319 -187l-54 105q152 41 239 117.5t101 175.5h-291v105zM542 290v-26q0 -84 73.5 -152.5t212.5 -90.5l-52 -102q-210 34 -300 177q-89 -143 -302 -178l-51 103q139 21 213 89.5t74 153.5v26h132zM776 599h114v-108h-114v-263h-132v608h132 v-237z" />
<glyph unicode="&#xac14;" d="M86 296l-51 106q150 38 234.5 110t99.5 166h-287v105h432q0 -183 -110.5 -307.5t-317.5 -179.5zM703 287v-42q0 -78 42 -139t128 -89l-65 -96q-122 44 -172 158q-51 -121 -166 -166q-119 45 -168 163q-50 -110 -169 -155l-65 96q86 31 128 92.5t42 135.5v42h128v-42 q0 -134 102 -205q53 39 79 94t26 111v42h130zM768 631h122v-109h-122v-199h-132v512h132v-204z" />
<glyph unicode="&#xac15;" d="M79 775h436q0 -185 -110 -311.5t-316 -183.5l-53 106q148 40 233.5 114t100.5 170h-291v105zM469 16q85 0 132 22t47 64t-47 64t-132 22t-132 -22t-47 -64t47 -64t132 -22zM469 291q140 0 224.5 -51.5t84.5 -137.5q0 -87 -84.5 -138t-224.5 -51t-224.5 51t-84.5 138 q0 86 84.5 137.5t224.5 51.5zM768 620h122v-109h-122v-208h-132v533h132v-216z" />
<glyph unicode="&#xac16;" d="M82 783h434q0 -366 -430 -470l-48 105q153 35 236 102.5t96 157.5h-288v105zM780 184h-236q12 -58 83 -105.5t192 -63.5l-47 -100q-215 28 -300 156q-84 -124 -301 -154l-46 100q123 14 193 60.5t81 106.5h-235v103h616v-103zM768 625h122v-108h-122v-190h-132v508h132 v-210z" />
<glyph unicode="&#xac17;" d="M84 782h434q0 -181 -110.5 -295t-322.5 -157l-47 107q156 29 238.5 93t94.5 147h-287v105zM782 171h-243q11 -57 81 -100.5t197 -55.5l-45 -98q-215 22 -302 140q-88 -118 -302 -140l-46 98q127 12 197.5 55.5t80.5 100.5h-245v103h249v92h132v-92h246v-103zM768 641h122 v-108h-122v-200h-132v502h132v-194z" />
<glyph unicode="&#xac19;" d="M84 774h435q0 -182 -107.5 -290t-320.5 -148l-51 105q159 26 240.5 86t91.5 141h-288v106zM296 75v-55h495v-96h-626v393h607v-96h-476v-54h466v-92h-466zM768 647h122v-109h-122v-185h-132v483h132v-189z" />
<glyph unicode="&#xac1a;" d="M88 781h431q0 -180 -112.5 -296.5t-319.5 -163.5l-50 106q151 32 236.5 98t98.5 151h-284v105zM407 194v-165h138v165h-138zM675 194v-165h122v-103h-638v103h118v165h-111v104h620v-104h-111zM768 641h122v-109h-122v-196h-132v498h132v-193z" />
<glyph unicode="&#xac1b;" d="M77 792h438q0 -187 -105.5 -297.5t-324.5 -155.5l-47 105q307 58 330 242h-291v106zM467 6q138 0 138 41q0 42 -138 42q-137 0 -137 -42q0 -41 137 -41zM467 181q122 0 192 -35.5t70 -98.5t-70 -98.5t-192 -35.5t-191.5 35.5t-69.5 98.5t69.5 98.5t191.5 35.5zM534 396 v-88h257v-99h-647v99h257v88h133zM768 651h122v-108h-122v-185h-132v478h132v-185z" />
<glyph unicode="&#xac1c;" d="M78 721h363q0 -208 -75 -360t-258 -259l-77 92q136 79 201.5 181t78.5 241h-233v105zM706 835h126v-921h-126v468h-82v-429h-123v858h123v-323h82v347z" />
<glyph unicode="&#xac1d;" d="M77 771h365q0 -176 -84.5 -294t-263.5 -187l-61 96q244 89 272 280h-228v105zM190 153v106h638v-346h-132v240h-506zM703 835h125v-538h-125v219h-79v-216h-123v519h123v-197h79v213z" />
<glyph unicode="&#xac20;" d="M624 467v-293h-123v645h123v-246h79v262h125v-687h-125v319h-79zM80 747h359q0 -177 -82 -298.5t-258 -194.5l-64 96q125 50 189.5 122t78.5 170h-223v105zM335 37h518v-105h-650v295h132v-190z" />
<glyph unicode="&#xac24;" d="M624 544v-163h-123v437h123v-168h79v184h125v-460h-125v170h-79zM83 781h355q0 -166 -82.5 -274t-255.5 -168l-61 96q235 74 261 242h-217v104zM334 27h523v-103h-653v258h494v53h-496v103h626v-252h-494v-59z" />
<glyph unicode="&#xac2c;" d="M80 771h363q0 -178 -80.5 -296t-258.5 -190l-64 95q126 49 189.5 119t76.5 167h-226v105zM334 165v-134h365v134h-365zM204 -73v341h624v-341h-624zM703 835h125v-525h-125v209h-79v-203h-123v503h123v-194h79v210z" />
<glyph unicode="&#xac2d;" d="M83 780h357q0 -175 -81.5 -291.5t-255.5 -185.5l-64 96q123 47 186.5 114.5t77.5 161.5h-220v105zM698 31v84h-363v-84h363zM698 217v84h130v-373h-623v373h130v-84h363zM703 835h125v-497h-125v188h-79v-182h-123v475h123v-187h79v203z" />
<glyph unicode="&#xac2f;" d="M624 506v-184h-123v496h123v-206h79v223h125v-601h-125v272h-79zM82 757h362q0 -178 -81.5 -301.5t-257.5 -198.5l-67 95q125 52 190 126t80 174h-226v105zM579 280v-27q0 -81 76.5 -147.5t217.5 -85.5l-50 -103q-219 33 -310 175q-91 -143 -310 -175l-50 103 q141 19 217.5 85.5t76.5 147.5v27h132z" />
<glyph unicode="&#xac30;" d="M624 513v-192h-123v498h123v-200h79v216h125v-517h-125v195h-79zM99 291l-63 96q125 47 189.5 116t77.5 163h-223v105h362q0 -176 -83.5 -293.5t-259.5 -186.5zM720 282v-41q0 -77 42.5 -137t129.5 -87l-65 -96q-123 42 -174 156q-53 -120 -167 -165q-116 43 -167 162 q-53 -112 -171 -153l-64 96q86 30 128.5 90.5t42.5 133.5v41h128v-41q0 -130 102 -201q53 38 79 92t26 109v41h130z" />
<glyph unicode="&#xac31;" d="M624 512v-199h-123v505h123v-200h79v217h125v-553h-125v230h-79zM83 768h360q0 -179 -83 -300.5t-262 -194.5l-64 96q126 50 191.5 122.5t79.5 171.5h-222v105zM516 18q187 0 187 79q0 80 -187 80t-187 -80q0 -79 187 -79zM516 277q146 0 232.5 -48.5t86.5 -131.5 t-86.5 -131.5t-232.5 -48.5t-232.5 48.5t-86.5 131.5t86.5 131.5t232.5 48.5z" />
<glyph unicode="&#xac38;" d="M85 741h434q0 -107 -21.5 -200t-68.5 -179t-128 -159.5t-193 -129.5l-74 101q161 82 247.5 194.5t104.5 265.5h-301v107zM892 499h-128v-166h128v-109h-128v-309h-132v921h132v-229h128v-108z" />
<glyph unicode="&#xac39;" d="M77 783h435q0 -182 -110 -305.5t-317 -177.5l-53 103q151 38 236.5 110t100.5 165h-292v105zM154 157v105h614v-349h-132v244h-482zM890 609h-122v-93h122v-105h-122v-110h-132v535h132v-121h122v-106z" />
<glyph unicode="&#xac3c;" d="M76 766h443q0 -187 -110.5 -315t-317.5 -187l-55 104q151 42 237.5 118t102.5 175h-300v105zM305 241v-206h494v-105h-626v311h132zM890 574h-123v-117h123v-107h-123v-174h-132v659h132v-154h123v-107z" />
<glyph unicode="&#xac40;" d="M83 801h435q0 -182 -111 -294.5t-322 -155.5l-47 107q155 29 238 92t95 146h-288v105zM292 85v-58h503v-104h-634v260h477v53h-478v104h608v-255h-476zM889 639h-121v-75h121v-104h-121v-84h-132v460h132v-92h121v-105z" />
<glyph unicode="&#xac4b;" d="M85 767h435q0 -186 -111 -315t-319 -189l-54 106q152 42 239 118t101 175h-291v105zM542 289v-25q0 -85 74 -153.5t213 -89.5l-52 -103q-212 35 -301 178q-87 -143 -302 -179l-51 103q139 21 213 90t74 154v25h132zM888 588h-120v-108h120v-107h-120v-145h-132v608h132 v-140h120v-108z" />
<glyph unicode="&#xac4d;" d="M79 775h436q0 -184 -110.5 -311t-315.5 -184l-53 106q148 40 233.5 114t100.5 170h-291v105zM469 16q85 0 132 22t47 64t-47 64t-132 22t-132 -22t-47 -64t47 -64t132 -22zM469 291q140 0 224.5 -51.5t84.5 -137.5q0 -87 -84.5 -138t-224.5 -51t-224.5 51t-84.5 138 q0 86 84.5 137.5t224.5 51.5zM887 604h-119v-87h119v-108h-119v-106h-132v533h132v-124h119v-108z" />
<glyph unicode="&#xac54;" d="M78 721h363q0 -208 -75 -359.5t-258 -258.5l-77 92q136 79 201.5 180.5t78.5 240.5h-233v105zM624 355h82v152h-82v-152zM706 836h126v-921h-126v335h-82v-296h-123v858h123v-199h82v223z" />
<glyph unicode="&#xac58;" d="M703 567h-79v-113h79v113zM624 349v-175h-123v645h123v-147h79v163h125v-687h-125v201h-79zM80 747h359q0 -177 -82 -298t-258 -194l-64 95q125 51 189.5 122.5t78.5 169.5h-223v105zM335 37h518v-105h-650v296h132v-191z" />
<glyph unicode="&#xac5c;" d="M703 630h-79v-71h79v71zM624 459v-78h-123v437h123v-88h79v105h125v-461h-125v85h-79zM83 781h355q0 -167 -82.5 -275t-255.5 -168l-61 96q233 75 261 242h-217v105zM334 25h523v-103h-653v258h494v55h-496v102h626v-253h-494v-59z" />
<glyph unicode="&#xac70;" d="M76 740h433q0 -110 -19.5 -200.5t-64.5 -176.5t-126 -159t-197 -131l-70 102q169 85 249 195.5t94 264.5h-299v105zM681 835h132v-921h-132v461h-178v107h178v353z" />
<glyph unicode="&#xac71;" d="M99 782h420q0 -181 -107.5 -304t-310.5 -180l-53 103q147 39 231 111t99 165h-279v105zM185 158v105h628v-346h-132v241h-496zM681 834h132v-534h-132v204h-154v107h154v223z" />
<glyph unicode="&#xac74;" d="M522 567h159v268h132v-673h-132v298h-159v107zM102 766h428q0 -186 -110 -319t-312 -197l-54 106q144 45 231.5 124.5t103.5 180.5h-287v105zM343 35h493v-105h-625v298h132v-193z" />
<glyph unicode="&#xac77;" d="M681 321v187h-159v106h159v220h132v-513h-132zM97 782h420q0 -182 -107.5 -306t-311.5 -181l-51 103q147 41 230.5 113t98.5 166h-279v105zM339 29h493v-104h-624v354h608v-105h-477v-145z" />
<glyph unicode="&#xac78;" d="M681 375v160h-161v105h161v196h132v-461h-132zM107 801h403q0 -352 -412 -450l-44 103q286 64 314 242h-261v105zM339 27h493v-104h-625v260h474v53h-475v104h607v-255h-474v-58z" />
<glyph unicode="&#xac7a;" d="M103 798h415q0 -357 -417 -452l-46 102q294 63 322 245h-274v105zM279 83v-59q109 1 192 15l11 -98q-86 -16 -276 -16h-55v99h1v151h180v51h-182v97h309v-240h-180zM618 228v-208h82v208h-82zM505 -75v398h308v-398h-308zM681 836h132v-475h-132v165h-157v105h157v205z " />
<glyph unicode="&#xac80;" d="M97 782h420q0 -181 -107.5 -304t-310.5 -179l-52 102q146 40 230 111.5t100 164.5h-280v105zM337 179v-151h346v151h-346zM207 -75v358h606v-358h-606zM681 834h132v-513h-132v189h-159v107h159v217z" />
<glyph unicode="&#xac81;" d="M99 783h421q0 -365 -419 -470l-50 102q298 71 327 263h-279v105zM682 29v79h-349v-79h349zM682 210v86h131v-372h-610v372h130v-86h349zM681 835h132v-498h-132v180h-160v107h160v211z" />
<glyph unicode="&#xac83;" d="M681 223v261h-159v107h159v244h132v-612h-132zM102 766h416q0 -190 -100.5 -314.5t-308.5 -189.5l-54 103q291 88 321 295h-274v106zM569 291v-30q0 -84 74 -152t213 -89l-52 -103q-106 18 -182.5 63.5t-118.5 113.5q-89 -142 -302 -179l-51 104q139 21 213.5 89.5 t74.5 152.5v30h131z" />
<glyph unicode="&#xac84;" d="M681 321v189h-159v107h159v217h132v-513h-132zM99 298l-53 103q146 40 230.5 111.5t99.5 164.5h-278v105h419q0 -181 -108 -304t-310 -180zM719 288v-42q0 -79 42 -139.5t130 -88.5l-65 -95q-125 43 -174 157q-51 -120 -167 -166q-117 43 -167 163q-52 -111 -171 -154 l-65 95q87 31 129.5 92.5t42.5 135.5v42h127v-42q0 -132 103 -205q53 39 79 94t26 111v42h130z" />
<glyph unicode="&#xac85;" d="M681 309v182h-154v107h154v237h132v-526h-132zM100 773h419q0 -373 -419 -490l-51 104q300 80 327 280h-276v106zM509 22q180 0 180 86q0 42 -47 64t-133 22q-87 0 -134 -22t-47 -64q0 -86 181 -86zM509 297q140 0 225 -51t85 -138t-85 -138t-225 -51q-141 0 -226 51 t-85 138t85 138t226 51z" />
<glyph unicode="&#xac86;" d="M522 610h159v224h132v-511h-132v180h-159v107zM101 782h430q0 -183 -112 -301.5t-324 -167.5l-47 105q155 33 241 101.5t99 157.5h-287v105zM820 178h-241q11 -57 81.5 -103t194.5 -59l-47 -98q-212 23 -300 146q-85 -122 -301 -146l-47 98q126 13 196 58t80 104h-235 v105h619v-105z" />
<glyph unicode="&#xac89;" d="M681 354v163h-158v107h158v212h132v-482h-132zM98 792h422q0 -364 -419 -465l-49 103q298 67 326 257h-280v105zM341 22h491v-97h-624v392h610v-96h-477v-53h460v-92h-460v-54z" />
<glyph unicode="&#xac8a;" d="M681 335v171h-160v107h160v221h132v-499h-132zM99 782h421q0 -179 -108.5 -299.5t-310.5 -173.5l-50 103q145 36 228.5 105t99.5 160h-280v105zM431 191v-160h144v160h-144zM705 31h126v-104h-654v104h124v160h-114v103h633v-103h-115v-160z" />
<glyph unicode="&#xac8b;" d="M681 352v182h-160v107h160v195h132v-484h-132zM100 789h406q0 -183 -101 -293.5t-312 -160.5l-45 103q294 64 318 248h-266v103zM500 3q123 0 123 42q0 40 -123 40q-122 0 -122 -40q0 -42 122 -42zM500 175q122 0 192 -34t70 -96t-69.5 -96.5t-192.5 -34.5 q-122 0 -191.5 34.5t-69.5 96.5t69.5 96t191.5 34zM566 302h258v-99h-648v99h258v93h132v-93z" />
<glyph unicode="&#xac8c;" d="M516 483v332h123v-860h-123v422h-144q-81 -164 -266 -272l-75 93q136 81 202.5 183.5t78.5 239.5h-230v105h361q0 -141 -30 -243h103zM710 836h125v-921h-125v921z" />
<glyph unicode="&#xac90;" d="M828 834v-686h-125v686h125zM515 449h-155q-86 -121 -259 -193l-64 97q241 97 268 291h-215v105h219v1l134 -1q0 -108 -30 -195h102v263h123v-643h-123v275zM348 35h515v-105h-648v105h1v199h132v-199z" />
<glyph unicode="&#xac94;" d="M828 834v-460h-125v460h125zM515 522h-141q-81 -117 -267 -184l-62 96q122 39 184 99t76 144h-213v104h352q0 -91 -21 -155h92v191h123v-440h-123v145zM336 27h521v-103h-653v257h492v54h-494v102h626v-251h-492v-59z" />
<glyph unicode="&#xac9c;" d="M515 491h-141q-81 -129 -264 -206l-65 95q122 49 185.5 119.5t77.5 166.5h-216v105h352q0 -99 -23 -175h94v222h123v-504h-123v177zM336 163v-132h363v132h-363zM206 -73v339h622v-339h-622zM703 835h125v-528h-125v528z" />
<glyph unicode="&#xac9d;" d="M515 502h-144q-81 -122 -266 -190l-64 94q125 44 187 108.5t75 154.5h-209v105h347q0 -100 -22 -167h96v211h123v-482h-123v166zM698 31v78h-363v-78h363zM698 211v85h130v-369h-623v369h130v-85h363zM703 835h125v-505h-125v505z" />
<glyph unicode="&#xac9f;" d="M828 835v-599h-125v599h125zM515 479h-140q-82 -142 -269 -224l-66 97q123 53 187 126.5t78 173.5h-219v105h356q0 -90 -22 -173h95v233h123v-501h-123v163zM572 280v-27q0 -80 77 -146.5t219 -85.5l-50 -103q-109 17 -188.5 62.5t-122.5 111.5q-44 -66 -123.5 -111.5 t-187.5 -62.5l-51 103q142 19 219 85t77 147v27h131z" />
<glyph unicode="&#xaca0;" d="M828 835v-524h-125v524h125zM108 284l-65 96q238 94 265 286h-218v106h356q0 -98 -24 -177h93v223h123v-495h-123v167h-142q-80 -128 -265 -206zM720 282v-40q0 -77 42 -137.5t130 -86.5l-65 -97q-124 43 -174 157q-52 -119 -167 -165q-117 42 -167 162 q-52 -111 -171 -154l-64 97q86 29 128.5 90t42.5 134v40h128v-40q0 -131 102 -202q53 38 79 92.5t26 109.5v40h130z" />
<glyph unicode="&#xaca1;" d="M828 835v-553h-125v553h125zM515 490h-139q-81 -137 -273 -217l-65 96q125 51 190.5 123t79.5 171h-222v105h359q0 -93 -23 -173h93v222h123v-504h-123v177zM519 16q88 0 137 20.5t49 59.5q0 81 -186 81q-187 0 -187 -81q0 -39 49 -59.5t138 -20.5zM519 276 q146 0 232 -48t86 -132q0 -82 -86.5 -130.5t-231.5 -48.5q-146 0 -232.5 48.5t-86.5 130.5q0 84 86.5 132t232.5 48z" />
<glyph unicode="&#xaca8;" d="M681 835h132v-920h-132v327h-217v106h217v146h-203q-80 -272 -377 -421l-68 102q162 85 244.5 196t98.5 264h-299v105h433q0 -71 -9 -140h180v235z" />
<glyph unicode="&#xaca9;" d="M185 146v104h628v-332h-132v228h-496zM681 835l132 -1v-545h-132v96h-203v106h203v90h-188q-93 -212 -390 -292l-51 103q150 38 236.5 111t101.5 169h-285v105h427q0 -44 -8 -90h157v148z" />
<glyph unicode="&#xacaa;" d="M156 164v105h313v-355h-132v250h-181zM509 164v105h304v-355h-132v250h-172zM681 834l132 1v-527h-132v87h-203v106h203v92h-187q-90 -215 -388 -293l-52 103q148 37 234 108.5t101 165.5h-284v105h426q0 -46 -7 -84h157v136z" />
<glyph unicode="&#xacac;" d="M681 553h-191q-98 -214 -381 -301l-54 105q146 45 233.5 124t103.5 180h-288v105h431q0 -55 -11 -108h157v177h132v-678h-132v189h-206v106h206v101zM343 35h493v-105h-625v293h132v-188z" />
<glyph unicode="&#xacaf;" d="M681 601h-193q-87 -218 -388 -301l-50 103q147 38 231 109t100 165h-284v105h424q0 -36 -5 -76h165v129h132v-514h-132v79h-205v106h205v95zM339 29h493v-105h-624v355h608v-105h-477v-145z" />
<glyph unicode="&#xacb0;" d="M681 620h-195q-82 -201 -388 -268l-44 106q292 57 319 237h-266v105h411q0 -42 -6 -81h169v116h132v-462h-132v69h-204v99h204v79zM339 27h493v-104h-625v260h474v52h-475v104h607v-254h-474v-58z" />
<glyph unicode="&#xacb8;" d="M337 177v-149h346v149h-346zM207 -75v355h606v-355h-606zM681 834l132 1v-518h-132v97h-203v106h203v87h-193q-84 -223 -389 -309l-51 103q147 40 231 111.5t100 164.5h-282v105h422q0 -33 -5 -70h167v122z" />
<glyph unicode="&#xacb9;" d="M682 29v79h-349v-79h349zM682 209v87h131v-372h-610v372h130v-87h349zM681 835l132 1v-499h-132v78h-200v106h200v86h-189q-82 -217 -390 -295l-50 103q299 71 328 263h-281v105h422q0 -42 -4 -71h164v123z" />
<glyph unicode="&#xacbb;" d="M681 578h-192q-80 -223 -379 -316l-54 104q292 87 322 294h-276v106h418q0 -38 -5 -83h166v151h132v-614h-132v162h-202v106h202v90zM569 289v-27q0 -84 74 -152t213 -89l-52 -103q-106 18 -182.5 63.5t-118.5 113.5q-88 -141 -302 -178l-51 103q139 22 213.5 90 t74.5 152v27h131z" />
<glyph unicode="&#xacbc;" d="M100 298l-51 103q147 39 232 111t100 165h-283v105h424q0 -37 -5 -75h164v128h132v-514h-132v87h-202v106h202v87h-192q-88 -220 -389 -303zM719 288v-42q0 -79 42 -139.5t130 -88.5l-65 -95q-125 43 -174 157q-51 -120 -167 -166q-117 43 -167 163q-52 -111 -171 -154 l-65 95q87 31 129.5 92.5t42.5 135.5v42h127v-42q0 -132 103 -205q53 39 79 94t26 111v42h130z" />
<glyph unicode="&#xacbd;" d="M681 584h-191q-85 -216 -389 -301l-51 104q301 80 328 280h-278v106h422q0 -43 -6 -84h165v146h132v-530h-132v88h-203v106h203v85zM509 21q86 0 133 21.5t47 63.5t-47 63.5t-133 21.5t-133.5 -21.5t-47.5 -63.5t47.5 -63.5t133.5 -21.5zM509 293q141 0 225.5 -50.5 t84.5 -136.5t-84.5 -136.5t-225.5 -50.5q-142 0 -226.5 50.5t-84.5 136.5t84.5 136.5t226.5 50.5z" />
<glyph unicode="&#xacc1;" d="M681 615h-190q-82 -214 -390 -288l-49 103q152 35 232.5 101t93.5 156h-280v105h423q0 -35 -5 -77h165v120h132v-481h-132v80h-204v100h204v81zM341 22h491v-97h-624v392h610v-96h-477v-53h460v-92h-460v-54z" />
<glyph unicode="&#xacc4;" d="M521 592v223h123v-861h-123v302h-128v106h128v125h-111q-65 -239 -305 -382l-75 92q134 82 200 184t79 240h-227v105h358q0 -65 -8 -134h89zM710 836h125v-922h-125v922z" />
<glyph unicode="&#xacc8;" d="M828 834v-682h-125v682h125zM517 541h-111q-73 -191 -307 -290l-64 97q241 98 268 296h-212v105h216v1l133 -1q0 -57 -7 -102h84v171h123v-643h-123v163h-130v106h130v97zM343 35h515v-105h-647v305h132v-200z" />
<glyph unicode="&#xaccc;" d="M828 834v-461h-125v461h125zM517 613h-101q-63 -189 -310 -275l-63 96q122 41 184.5 100.5t75.5 142.5h-211v104h350q0 -40 -4 -68h79v105h123v-442h-123v64h-114v100h114v73zM336 26h521v-103h-653v258h492v54h-494v102h626v-252h-492v-59z" />
<glyph unicode="&#xacd5;" d="M517 593h-105q-63 -192 -308 -285l-64 95q125 45 187.5 110t74.5 156h-208v105h345q0 -48 -5 -81h83v124h123v-485h-123v86h-108v100h108v75zM698 31v77h-363v-77h363zM698 209v83h130v-365h-623v365h130v-83h363zM703 835h125v-508h-125v508z" />
<glyph unicode="&#xacd7;" d="M828 835v-615h-125v615h125zM515 574h-101q-65 -211 -309 -321l-67 96q123 53 187 127.5t78 176.5h-217v105h353q0 -45 -4 -80h80v140h123v-516h-123v85h-112v104h112v83zM572 270v-27q0 -77 77 -141t219 -83l-49 -102q-109 15 -189 59t-123 109q-93 -137 -313 -168 l-49 102q143 19 219.5 82.5t76.5 141.5v27h131z" />
<glyph unicode="&#xace0;" d="M760 227l-132 15q37 184 37 409h-537v105h669v-88q0 -245 -37 -441zM470 131h407v-106h-833v106h294v317h132v-317z" />
<glyph unicode="&#xace1;" d="M752 461l-130 12q20 96 22 212h-506v105h638v-66q0 -154 -24 -263zM130 125v104h638v-316h-132v212h-506zM484 413h391v-105h-831v105h308v171h132v-171z" />
<glyph unicode="&#xace4;" d="M750 445l-130 15q22 100 24 220h-506v104h638v-66q0 -159 -26 -273zM273 214v-179h522v-105h-654v284h132zM484 396h390v-105h-829v105h307v173h132v-173z" />
<glyph unicode="&#xace7;" d="M750 474l-130 14q24 93 24 204h-506v104h638v-76q0 -151 -26 -246zM273 155v-126h512v-104h-644v334h631v-104h-499zM484 438h390v-105h-829v105h307v152h132v-152z" />
<glyph unicode="&#xace8;" d="M759 527l-130 11q13 76 15 160h-506v103h638v-54q0 -129 -17 -220zM269 83v-60h531v-102h-663v252h508v56h-509v102h641v-248h-508zM484 489h390v-103h-829v103h307v133h132v-133z" />
<glyph unicode="&#xacea;" d="M756 507l-130 13q16 87 18 173h-506v104h638v-60q0 -138 -20 -230zM256 75v-59q117 1 185 14l9 -95q-72 -14 -269 -14h-53v242h173v51h-174v94h301v-233h-172zM589 212v-196h83v196h-83zM478 -79v387h306v-387h-306zM484 468h390v-104h-829v104h307v145h132v-145z" />
<glyph unicode="&#xacec;" d="M756 512l-130 13q16 79 18 173h-506v104h638v-66q0 -137 -20 -224zM701 321v-89q0 -72 37 -132t113 -91l-70 -91q-98 42 -142 142q-45 -99 -142 -142l-58 76l5 -59q-71 -14 -263 -14h-53v242h173v51h-174v94h301v-233h-172v-59q111 1 180 14l1 -16q71 34 105.5 92.5 t34.5 125.5v89h124zM484 472h391v-104h-830v104h307v145h132v-145z" />
<glyph unicode="&#xacef;" d="M756 521l-130 14q16 84 18 166h-506v104h638v-59q0 -135 -20 -225zM247 82v-58q134 1 201 14l11 -94q-79 -16 -280 -16h-55v244h167v50h-168v95h290v-235h-166zM643 -2q23 0 37.5 9.5t14.5 27.5q0 37 -52 37q-53 0 -53 -37t53 -37zM643 158q72 0 117.5 -33.5t45.5 -89.5 t-45.5 -89t-117.5 -33q-74 0 -119.5 33t-45.5 89t45.5 89.5t119.5 33.5zM706 343v-69h134v-94h-395v94h133v69h128zM484 484h390v-103h-830v103h308v142h132v-142z" />
<glyph unicode="&#xacf0;" d="M750 479l-130 14q24 93 24 201h-506v105h638v-76q0 -149 -26 -244zM269 157v-129h374v129h-374zM139 -75v335h634v-335h-634zM484 440h390v-104h-829v104h307v157h132v-157z" />
<glyph unicode="&#xacf1;" d="M752 495l-131 11q21 100 23 192h-506v104h638v-57q0 -145 -24 -250zM643 28v80h-370v-80h370zM643 207v88h130v-370h-630v370h130v-88h370zM484 452h390v-104h-829v104h307v151h132v-151z" />
<glyph unicode="&#xacf3;" d="M753 470l-130 13q19 86 21 206h-506v105h638v-73q0 -151 -23 -251zM521 261v-27q0 -76 76 -137t222 -78l-48 -102q-226 31 -315 163q-90 -132 -316 -163l-48 102q145 17 221 78t76 137v27h132zM484 420h390v-105h-830v105h308v170h132v-170z" />
<glyph unicode="&#xacf5;" d="M750 472l-130 13q24 94 24 205h-506v104h638v-76q0 -151 -26 -246zM454 13q196 0 196 74q0 75 -196 75q-195 0 -195 -75q0 -74 195 -74zM454 261q150 0 238.5 -46.5t88.5 -127.5q0 -80 -88.5 -126.5t-238.5 -46.5q-149 0 -237.5 46.5t-88.5 126.5q0 81 88.5 127.5 t237.5 46.5zM484 423h390v-104h-829v104h307v161h132v-161z" />
<glyph unicode="&#xacf6;" d="M751 496l-130 14q21 83 23 186h-506v105h638v-72q0 -143 -25 -233zM781 175h-249q17 -59 89.5 -102.5t196.5 -55.5l-46 -100q-224 25 -313 151q-91 -126 -315 -151l-45 100q124 12 197 55.5t89 102.5h-249v104h645v-104zM484 453h390v-105h-830v105h308v146h132v-146z " />
<glyph unicode="&#xacfc;" d="M531 316l-129 11q24 150 24 312h-344v105h474v-75q0 -201 -25 -353zM330 480v-268q144 5 263 19l7 -95q-203 -35 -553 -37l-12 108q107 0 165 1v272h130zM891 465v-110h-124v-440h-132v921h132v-371h124z" />
<glyph unicode="&#xacfd;" d="M534 463l-128 13q18 97 20 196h-342v105h472v-61q0 -149 -22 -253zM596 428l6 -93q-205 -41 -560 -41l-12 105q108 0 168 1v173h129v-168q166 7 269 23zM154 119v104h624v-308h-132v204h-492zM889 596v-108h-111v-228h-132v576h132v-240h111z" />
<glyph unicode="&#xad00;" d="M535 440l-129 15q18 104 20 208h-343v105h473v-57q0 -155 -21 -271zM596 403l8 -94q-205 -38 -562 -40l-12 105q108 0 168 1v179h129v-174q152 7 269 23zM296 207v-172h511v-105h-643v277h132zM778 555h110v-109h-110v-300h-132v690h132v-281z" />
<glyph unicode="&#xad04;" d="M537 513l-128 12q15 86 17 168h-343v103h473v-54q0 -134 -19 -229zM597 482l7 -90q-208 -35 -563 -35l-11 102q108 0 167 1v146h130v-143q152 7 270 19zM281 74v-54h527v-99h-659v244h497v51h-499v97h631v-239h-497zM778 641h111v-108h-111v-187h-132v490h132v-195z" />
<glyph unicode="&#xad06;" d="M537 510l-128 14q15 86 17 169h-343v103h473v-55q0 -134 -19 -231zM597 479l8 -91q-204 -34 -564 -34l-11 101q108 0 167 1v147h130v-143q147 5 270 19zM247 67v-52q126 1 191 13l8 -93q-75 -15 -273 -15h-53v233h180v47h-181v93h308v-226h-180zM586 195v-177h78v177h-78 zM472 -80v373h306v-373h-306zM889 637v-108h-111v-200h-132v507h132v-199h111z" />
<glyph unicode="&#xad0c;" d="M535 488l-128 11q17 92 19 184h-343v105h473v-59q0 -140 -21 -241zM596 452l8 -93q-200 -37 -561 -39l-13 105q108 0 168 1v152h129v-148q148 6 269 22zM289 148v-117h360v117h-360zM159 -73v325h619v-325h-619zM889 614v-108h-111v-215h-132v545h132v-222h111z" />
<glyph unicode="&#xad0d;" d="M537 502l-128 14q15 86 17 170h-343v105h473v-55q0 -137 -19 -234zM600 472l7 -94q-209 -35 -566 -35l-13 105q110 0 169 1v144h130v-140q148 5 273 19zM647 30v75h-357v-75h357zM647 206v75h131v-357h-618v357h130v-75h357zM889 625v-108h-111v-202h-132v521h132v-211 h111z" />
<glyph unicode="&#xad0f;" d="M531 480l-128 10q19 88 23 189h-342v105h472v-56q0 -143 -25 -248zM598 431l7 -93q-203 -38 -563 -38l-12 105q108 0 168 1v165h129v-161q142 5 271 21zM548 254v-26q0 -74 73.5 -132t217.5 -74l-47 -104q-225 28 -314 160q-90 -132 -314 -160l-48 104q144 16 217.5 74 t73.5 132v26h141zM778 574h111v-109h-111v-257h-132v627h132v-261z" />
<glyph unicode="&#xad11;" d="M535 483l-128 10q17 93 19 187h-342v105h472v-60q0 -142 -21 -242zM596 441l8 -94q-213 -35 -561 -35l-13 105q109 0 168 1v161h129v-158q156 7 269 20zM468 18q183 0 183 71q0 72 -183 72q-185 0 -185 -72q0 -71 185 -71zM468 263q147 0 232.5 -46.5t85.5 -127.5 t-85.5 -127.5t-232.5 -46.5q-148 0 -234 46.5t-86 127.5t86 127.5t234 46.5zM778 609h111v-109h-111v-227h-132v562h132v-226z" />
<glyph unicode="&#xad18;" d="M444 331l-119 10q20 144 20 291h-278v106h399v-71q0 -190 -22 -336zM273 481v-249q125 5 213 16l8 -95q-160 -32 -447 -32l-16 107q76 0 121 1v252h121zM719 836h125v-921h-125v445h-69v-404h-123v863h123v-353h69v370z" />
<glyph unicode="&#xad1c;" d="M651 456v-295h-123v655h123v-254h64v273h125v-694h-125v315h-64zM448 440l-122 11q17 97 19 210h-270v105h392v-60q0 -154 -19 -266zM491 394l8 -94q-168 -31 -456 -31l-13 105q79 0 126 1v178h120v-175q127 5 215 16zM315 35h545v-105h-679v280h134v-175z" />
<glyph unicode="&#xad20;" d="M651 522v-181h-123v475h123v-188h64v207h125v-499h-125v186h-64zM452 504l-122 9q13 81 15 169h-270v104h392v-53q0 -133 -15 -229zM490 471l9 -90q-164 -30 -454 -32l-15 102q79 0 126 1v148h120v-144q139 5 214 15zM310 19h554v-98h-684v239h529v48h-530v96h661v-234 h-530v-51z" />
<glyph unicode="&#xad29;" d="M449 489l-122 8q16 85 18 185h-270v104h392v-57q0 -139 -18 -240zM490 450l9 -91q-170 -30 -456 -32l-13 102q79 0 126 1v156h120v-152q128 5 214 16zM709 30v70h-393v-70h393zM709 201v75h131v-352h-655v352h131v-75h393zM715 835h125v-525h-125v198h-64v-190h-123v498 h123v-202h64v221z" />
<glyph unicode="&#xad2c;" d="M651 507v-203h-123v513h123v-204h64v223h125v-539h-125v210h-64zM452 477l-122 13q13 87 15 183h-270v104h392v-56q0 -141 -15 -244zM490 439l9 -91q-149 -31 -455 -34l-13 102q78 0 125 1v163h120v-159q120 5 214 18zM718 265v-19q0 -77 42 -137t130 -87l-65 -96 q-124 42 -175 155q-50 -119 -166 -164q-117 45 -167 161q-54 -111 -173 -152l-65 96q88 29 130.5 89.5t42.5 134.5v19h128v-19q0 -129 103 -203q53 39 78.5 93t25.5 110v19h131z" />
<glyph unicode="&#xad2d;" d="M452 468l-121 10q12 82 14 190h-270v104h392v-58q0 -142 -15 -246zM489 429l9 -89q-154 -33 -455 -36l-13 102q79 0 126 1v158h120v-154q119 5 213 18zM510 12q194 0 194 69q0 70 -194 70q-196 0 -196 -70q0 -69 196 -69zM510 249q155 0 242.5 -44t87.5 -124 t-87.5 -124.5t-242.5 -44.5q-156 0 -243.5 44t-87.5 125q0 80 87.5 124t243.5 44zM715 835h125v-576h-125v239h-64v-209h-123v528h123v-213h64v231z" />
<glyph unicode="&#xad34;" d="M560 327l-130 13q23 139 23 289h-348v105h478v-69q0 -192 -23 -338zM350 450v-245q171 7 289 21l10 -96q-220 -37 -589 -37l-17 107q115 0 177 1v249h130zM689 836h132v-924h-132v924z" />
<glyph unicode="&#xad35;" d="M553 459l-128 14q18 90 20 199h-335v105h464v-62q0 -150 -21 -256zM631 422l8 -94q-209 -35 -579 -37l-17 105q116 0 179 1v167h127v-163q168 7 282 21zM171 125v105h642v-317h-132v212h-510zM681 836h132v-564h-132v564z" />
<glyph unicode="&#xad38;" d="M814 836v-692h-132v692h132zM557 445l-129 17q18 87 20 206h-344v105h474v-72q0 -154 -21 -256zM630 397l8 -94q-216 -34 -581 -36l-15 106q120 0 185 1v179h127v-175q152 5 276 19zM328 35h507v-105h-639v275h132v-170z" />
<glyph unicode="&#xad3c;" d="M814 836v-494h-132v494h132zM550 507l-128 14q18 82 20 169h-332v103h462v-54q0 -136 -22 -232zM631 480l8 -91q-216 -34 -579 -36l-17 102q117 0 181 1v146h128v-142q162 7 279 20zM311 17h533v-96h-663v240h502v50h-503v96h634v-236h-503v-54z" />
<glyph unicode="&#xad44;" d="M557 481l-131 9q15 88 17 186h-332v106h463v-60q0 -142 -17 -241zM631 444l8 -91q-213 -39 -580 -41l-16 102q115 0 179 1v152h127v-147q163 7 282 24zM314 139v-111h369v111h-369zM184 -75v317h629v-317h-629zM681 834h132v-552h-132v552z" />
<glyph unicode="&#xad45;" d="M558 496l-128 12q14 84 16 180h-335v104h465v-59q0 -139 -18 -237zM630 458l8 -90q-222 -35 -579 -35l-15 101q54 0 182 2v144h127v-141q154 7 277 19zM682 29v71h-366v-71h366zM682 201v79h131v-356h-628v356h131v-79h366zM681 834h132v-518h-132v518z" />
<glyph unicode="&#xad47;" d="M813 834v-627h-132v627h132zM556 473l-130 15q18 88 18 189h-333v105h463v-75q0 -145 -18 -234zM631 434l8 -94q-222 -35 -579 -35l-17 105q117 0 179 1v152h127v-148q154 5 282 19zM566 264v-18q0 -78 74.5 -142t214.5 -84l-49 -102q-220 32 -308 172 q-88 -139 -308 -172l-49 102q140 20 215 84t75 142v18h135z" />
<glyph unicode="&#xad49;" d="M813 835v-566h-132v566h132zM555 468l-128 15q15 83 17 196h-333v105h463v-68q0 -149 -19 -248zM631 432l8 -90q-204 -33 -580 -35l-16 102q116 0 179 1v153h127v-150q154 5 282 19zM494 15q185 0 185 71q0 70 -185 70t-185 -70q0 -71 185 -71zM494 258 q149 0 235.5 -45.5t86.5 -126.5t-86.5 -127t-235.5 -46q-150 0 -236.5 46t-86.5 127t86.5 126.5t236.5 45.5z" />
<glyph unicode="&#xad50;" d="M770 241l-132 13q31 173 31 397h-545v105h677v-89q0 -240 -31 -426zM575 131h302v-106h-834v106h175v291h130v-291h98v291h129v-291z" />
<glyph unicode="&#xad54;" d="M769 447l-131 12q18 108 18 222h-523v105h654v-69q0 -159 -18 -270zM273 212v-177h523v-106h-655v283h132zM583 386h291v-105h-830v105h176v171h130v-171h103v171h130v-171z" />
<glyph unicode="&#xad58;" d="M771 526l-129 12q12 70 14 164h-523v103h654v-62q0 -131 -16 -217zM269 83v-60h531v-102h-663v252h508v56h-509v102h641v-248h-508zM579 487h295v-104h-830v104h178v141h129v-141h99v141h129v-141z" />
<glyph unicode="&#xad61;" d="M764 492l-130 13q18 96 20 194h-525v104h656v-55q0 -148 -21 -256zM643 28v80h-370v-80h370zM643 207v86h130v-369h-630v369h130v-86h370zM574 449h300v-105h-830v105h176v153h130v-153h94v153h130v-153z" />
<glyph unicode="&#xad63;" d="M777 467l-131 12q21 91 21 214h-532v104h662v-80q0 -154 -20 -250zM521 261v-28q0 -76 76 -136.5t222 -77.5l-47 -102q-226 30 -316 163q-92 -133 -316 -163l-48 102q145 17 221 77.5t76 136.5v28h132zM578 415h299v-105h-833v105h179v171h130v-171h95v171h130v-171z" />
<glyph unicode="&#xad6c;" d="M876 390v-106h-354v-370h-134v370h-344v106h580q25 127 25 286h-510v106h639v-83q0 -180 -23 -309h121z" />
<glyph unicode="&#xad6d;" d="M877 373h-352v-130h256v-329h-133v225h-521v104h266v130h-350v105h586q20 99 20 212h-503v106h633v-74q0 -146 -18 -244h116v-105z" />
<glyph unicode="&#xad70;" d="M272 227v-192h521v-105h-653v297h132zM761 447h116v-106h-344v-195h-132v195h-358v106h586q21 106 21 240h-504v106h634v-81q0 -159 -19 -265z" />
<glyph unicode="&#xad73;" d="M877 378h-352v-118h253v-104h-505v-128h518v-103h-650v335h252v118h-350v105h587q19 99 19 208h-503v105h633v-74q0 -144 -17 -239h115v-105z" />
<glyph unicode="&#xad74;" d="M877 416h-352v-85h252v-249h-508v-59h531v-102h-663v251h508v56h-509v103h257v85h-350v103h588q16 83 18 178h-503v104h633v-63q0 -130 -16 -219h114v-103z" />
<glyph unicode="&#xad75;" d="M877 412h-352v-104h257v-393h-130v289h-170v93h-44v-227h-181v-53q170 1 242 19l12 -96q-53 -12 -115 -15.5t-206 -3.5h-61v240h181v50h-182v97h265v104h-350v105h588q16 84 18 180h-504v105h634v-63q0 -132 -17 -222h115v-105z" />
<glyph unicode="&#xad76;" d="M589 212v-196h83v196h-83zM877 406h-353v-98h260v-387h-306v360h-50v-207h-172v-58q117 1 185 14l9 -95q-73 -14 -269 -14h-53v241h173v52h-174v94h265v98h-349v105h587q17 87 19 186h-504v104h634v-62q0 -136 -18 -228h116v-105z" />
<glyph unicode="&#xad7b;" d="M643 -4q52 0 52 38t-52 38q-53 0 -53 -38t53 -38zM643 156q72 0 117.5 -33t45.5 -89t-45.5 -89t-117.5 -33q-74 0 -119.5 33t-45.5 89t45.5 89t119.5 33zM705 345v-75h135v-95h-395v95h133v75h127zM763 519h114v-104h-359v-115h-105v-224h-166v-52q133 1 201 13l11 -94 q-79 -15 -280 -15h-55v238h167v48h-168v95h263v106h-343v104h588q16 92 18 180h-504v103h634v-56q0 -133 -16 -227z" />
<glyph unicode="&#xad7c;" d="M646 28v127h-375v-127h375zM877 378h-352v-119h250v-334h-634v334h252v119h-350v105h584q20 99 20 211h-505v105h636v-73q0 -146 -18 -243h117v-105z" />
<glyph unicode="&#xad7d;" d="M643 28v83h-373v-83h373zM643 211v93h131v-379h-634v379h130v-93h373zM761 491h116v-105h-355v-126h-132v126h-347v105h586q18 98 18 205h-505v105h636v-73q0 -143 -17 -237z" />
<glyph unicode="&#xad7f;" d="M525 226v-24q0 -66 74 -118t218 -67l-45 -99q-228 24 -316 147q-92 -124 -314 -147l-45 99q141 15 216.5 68.5t75.5 116.5v24h136zM760 488h117v-105h-354v-122h-132v122h-348v105h586q18 102 20 206h-503v106h632v-62q0 -146 -18 -250z" />
<glyph unicode="&#xad81;" d="M650 91q0 73 -191 73q-190 0 -190 -73t190 -73q191 0 191 73zM877 379h-352v-113q122 -10 190 -55.5t68 -119.5q0 -84 -86.5 -131t-237.5 -47t-237 47t-86 131q0 74 68 119.5t189 55.5v113h-350v105h586q20 100 20 213h-503v105h633v-73q0 -147 -18 -245h116v-105z" />
<glyph unicode="&#xad82;" d="M877 387h-352v-105h256v-104h-249q15 -60 88 -104t198 -56l-46 -100q-224 25 -313 151q-89 -126 -314 -151l-46 100q126 12 199 56t88 104h-250v104h257v105h-350v105h588q16 103 18 201h-503v105h632v-57q0 -143 -18 -249h117v-105z" />
<glyph unicode="&#xad88;" d="M631 440l8 -94q-105 -17 -250 -27v-365h-132v358q-111 -3 -210 -3l-16 104q246 2 373 9q22 116 24 239h-321v105h450v-58q0 -156 -20 -277q32 3 94 9zM694 835h132v-920h-132v238h-185v102h185v580z" />
<glyph unicode="&#xad89;" d="M256 246v172q-99 -4 -207 -4l-16 104q247 2 376 10q17 88 19 162h-308v104h437v-45q0 -120 -16 -212q31 3 89 9l9 -93q-118 -20 -250 -28v-179h-133zM175 105v103h652v-294h-133v191h-519zM695 836h132v-591h-132v52h-181v96h181v443z" />
<glyph unicode="&#xad8c;" d="M515 344h178v491h132v-693h-132v100h-178v102zM294 35h551v-105h-683v281h116v177q-101 -5 -226 -5l-16 105q223 0 374 9q14 101 18 187h-308v105h439v-32q0 -134 -16 -250q33 3 86 11l9 -93q-102 -19 -228 -29v-198h-116v-163z" />
<glyph unicode="&#xad90;" d="M514 441h180v395h133v-514h-133v34h-180v85zM255 322v132q-108 -3 -200 -3l-15 99q240 2 367 10q13 60 19 141h-299v103h427v-35q0 -111 -16 -199q14 2 47 5.5t51 5.5l8 -89q-104 -19 -257 -31v-139h-132zM314 15h541v-94h-671v231h512v45h-514v94h645v-227h-513v-49z " />
<glyph unicode="&#xad9c;" d="M514 419h180v417h133v-553h-133v40h-180v96zM256 284v153q-99 -4 -207 -4l-16 104q248 2 378 11q15 82 17 149h-308v104h437v-44q0 -113 -14 -199q16 2 45.5 5.5t41.5 4.5l9 -93q-122 -22 -250 -30v-161h-133zM728 251v-16q0 -73 41 -129.5t125 -81.5l-63 -96 q-121 40 -171 148q-48 -114 -159 -157v1l-1 -1q-111 42 -161 155q-51 -106 -166 -146l-64 96q84 27 125 84t41 127v16h129v-16q0 -122 95 -189q49 36 73.5 86t24.5 103v16h131z" />
<glyph unicode="&#xad9d;" d="M514 396h180v440h132v-581h-132v47h-180v94zM255 260v158q-96 -4 -202 -4l-15 101q244 2 373 10q17 83 19 166h-307v103h435v-49q0 -120 -16 -209q62 6 92 10l9 -90q-103 -18 -256 -31v-165h-132zM507 14q190 0 190 65t-190 65q-191 0 -191 -65t191 -65zM507 244 q154 0 239.5 -43t85.5 -122t-85.5 -122.5t-239.5 -43.5t-240 43.5t-86 122.5t85.5 122t240.5 43z" />
<glyph unicode="&#xada4;" d="M497 450l10 -93q-76 -14 -176 -22v-348h-125v340q-80 -4 -163 -4l-13 105q154 0 273 6q20 112 22 202h-246v105h372v-44q0 -141 -20 -253q32 1 66 6zM539 268v552h123v-864h-123v210h-141v102h141zM723 836h125v-921h-125v921z" />
<glyph unicode="&#xadb7;" d="M839 836v-654h-125v654h125zM389 387h146v429h123v-582h-123v58h-146v95zM209 211v203q-81 -4 -166 -4l-13 105q159 0 273 7q15 78 19 151h-236v104h362v-40q0 -116 -17 -206q32 1 64 6l9 -93q-54 -10 -170 -22v-211h-125zM574 218v-15q0 -70 72 -122t216 -66l-46 -99 q-223 26 -309 144q-89 -119 -316 -144l-45 99q147 14 220.5 66t73.5 122v15h134z" />
<glyph unicode="&#xadc0;" d="M643 438l9 -97q-102 -16 -252 -25v-353h-132v346q-113 -3 -213 -3l-17 107q216 0 362 7q24 125 26 247h-313v105h444v-52q0 -162 -23 -292q41 2 109 10zM695 836h132v-921h-132v921z" />
<glyph unicode="&#xadc1;" d="M403 392v-151h408v-329h-132v224h-507v105h99v143q-97 -5 -215 -5l-17 105q216 0 361 9q19 102 21 194h-302v105h433v-57q0 -134 -19 -232q52 5 98 12l9 -93q-114 -22 -237 -30zM679 836h132v-555h-132v555z" />
<glyph unicode="&#xadc4;" d="M811 836v-689h-132v689h132zM293 35h540v-105h-672v283h131v149q-112 -4 -236 -4l-16 105q222 0 373 9q17 100 19 201h-312v106h443v-50q0 -138 -17 -247q33 3 87 11l9 -93q-109 -21 -219 -29v-187h-130v-149z" />
<glyph unicode="&#xadc8;" d="M811 835v-473h-132v473h132zM320 20h521v-99h-654v251h492v54h-493v99h81v105q-70 -3 -211 -5l-16 102q242 2 368 9q17 81 19 161h-302v104h433v-50q0 -119 -16 -206q31 3 91 9l7 -90q-97 -16 -241 -27v-112h412v-246h-491v-59z" />
<glyph unicode="&#xadd0;" d="M682 28v128h-357v-128h357zM406 390v-130h405v-335h-616v335h79v122q-99 -5 -219 -5l-16 105q219 0 366 9q14 90 16 190h-303v105h434v-61q0 -133 -15 -224q87 11 94 12l9 -93q-100 -20 -234 -30zM679 835h132v-532h-132v532z" />
<glyph unicode="&#xadd1;" d="M265 296v124q-71 -3 -211 -5l-16 105q244 2 369 9q19 85 21 175h-310v105h440v-61q0 -126 -16 -211q30 3 88 9l9 -94q-112 -17 -242 -25v-131h-132zM680 27v74h-368v-74h368zM680 200v73h131v-349h-630v349h131v-73h368zM679 836h132v-524h-132v524z" />
<glyph unicode="&#xadd3;" d="M809 835v-645h-132v645h132zM260 207v177q-96 -4 -201 -4l-16 105q214 0 363 8q18 97 20 196h-300v106h431v-61q0 -136 -17 -232q60 6 89 10l8 -93q-97 -18 -245 -29v-183h-132zM592 256v-20q0 -78 71.5 -138t209.5 -78l-50 -103q-214 33 -299 165q-88 -134 -312 -165 l-48 103q144 17 218.5 77.5t74.5 138.5v20h135z" />
<glyph unicode="&#xaddc;" d="M876 389v-107h-196v-370h-131v370h-188v-370h-131v370h-186v107h567q26 139 28 288h-498v107h629v-59q0 -185 -26 -336h132z" />
<glyph unicode="&#xade0;" d="M262 231v-196h544v-105h-676v301h132zM762 452h115v-105h-206v-200h-130v200h-92v-200h-130v200h-276v105h587q20 104 20 235h-508v105h638v-79q0 -157 -18 -261z" />
<glyph unicode="&#xade4;" d="M541 331v87h-163v-87h163zM878 418h-206v-87h105v-249h-508v-59h531v-102h-663v251h508v56h-509v103h111v87h-204v103h589q15 83 17 177h-503v104h633v-63q0 -130 -16 -218h115v-103z" />
<glyph unicode="&#xadf8;" d="M642 641v4h-513v105h645v-109q0 -86 -1 -134.5t-9 -135t-24 -174.5l-131 12q33 176 33 432zM43 142h833v-108h-833v108z" />
<glyph unicode="&#xadf9;" d="M131 144v104h650v-335h-132v231h-518zM761 460h116v-105h-834v105h587q17 106 19 230h-504v105h634v-64q0 -156 -18 -271z" />
<glyph unicode="&#xadfc;" d="M280 242v-207h525v-105h-657v312h132zM759 427h118v-105h-834v105h584q23 117 23 252h-504v105h634v-80q0 -165 -21 -277z" />
<glyph unicode="&#xadff;" d="M273 161v-133h518v-104h-650v342h638v-105h-506zM759 463h118v-105h-834v105h585q21 106 21 226h-503v105h633v-76q0 -152 -20 -255z" />
<glyph unicode="&#xae00;" d="M269 85v-62h531v-102h-663v261h508v60h-509v102h641v-259h-508zM762 511h115v-104h-834v104h587q17 84 19 183h-503v105h633v-63q0 -133 -17 -225z" />
<glyph unicode="&#xae01;" d="M257 72v-55q170 1 242 19l13 -95q-53 -13 -115 -16.5t-207 -3.5h-61v242h182v51h-183v98h310v-240h-181zM483 207v105h299v-397h-130v292h-169zM759 488h118v-105h-834v105h585q19 93 21 203h-504v106h634v-66q0 -141 -20 -243z" />
<glyph unicode="&#xae08;" d="M271 158v-130h375v130h-375zM141 -75v336h634v-336h-634zM758 462h119v-105h-834v105h584q22 107 22 227h-503v105h633v-74q0 -152 -21 -258z" />
<glyph unicode="&#xae09;" d="M645 29v84h-372v-84h372zM645 215v96h132v-387h-635v387h131v-96h372zM759 476h118v-106h-834v106h585q21 102 21 217h-503v105h633v-74q0 -145 -20 -248z" />
<glyph unicode="&#xae0b;" d="M521 265v-31q0 -76 76 -137t221 -78l-48 -102q-223 30 -315 163q-90 -133 -315 -163l-48 102q145 17 221 78t76 137v31h132zM750 439h123v-105h-829v105h574q23 119 25 247h-499v106h629v-64q0 -163 -23 -289z" />
<glyph unicode="&#xae0d;" d="M459 20q191 0 191 74q0 75 -191 75q-190 0 -190 -75q0 -74 190 -74zM459 275q150 0 237 -48t87 -133t-87 -132.5t-237 -47.5t-236.5 47.5t-86.5 132.5t86.5 133t236.5 48zM758 457h118v-105h-833v105h583q23 107 23 230h-503v105h633v-74q0 -155 -21 -261z" />
<glyph unicode="&#xae14;" d="M541 315l-130 14q27 138 27 299h-335v105h465v-80q0 -196 -27 -338zM57 127l-14 107q368 0 583 29l7 -96q-206 -38 -576 -40zM671 836h132v-921h-132v921z" />
<glyph unicode="&#xae30;" d="M94 740h442q0 -111 -20.5 -202.5t-67.5 -178t-130.5 -159t-203.5 -130.5l-69 104q173 83 257.5 194t98.5 267h-307v105zM677 836h133v-921h-133v921z" />
<glyph unicode="&#xae31;" d="M103 782h425q0 -185 -110 -308t-319 -179l-52 103q153 38 239 110.5t101 168.5h-284v105zM180 157v106h628v-350h-133v244h-495zM675 834h133v-534h-133v534z" />
<glyph unicode="&#xae34;" d="M806 835v-669h-132v669h132zM109 767h429q0 -187 -111 -316.5t-320 -189.5l-51 104q151 42 237.5 118.5t103.5 176.5h-288v107zM326 34h498v-105h-630v293h132v-188z" />
<glyph unicode="&#xae37;" d="M816 834v-513h-132v513h132zM97 782h422q0 -181 -108 -304t-312 -179l-52 103q147 38 231 109.5t100 164.5h-281v106zM341 29h492v-104h-624v354h608v-104h-476v-146z" />
<glyph unicode="&#xae38;" d="M808 836v-463h-133v463h133zM106 801h426q0 -187 -105 -295t-325 -153l-46 106q309 54 329 237h-279v105zM328 25h503v-102h-636v257h480v54h-481v100h614v-249h-480v-60z" />
<glyph unicode="&#xae3a;" d="M104 797h425q0 -361 -426 -452l-45 105q155 30 235 93t92 150h-281v104zM277 80v-56q117 1 195 14l9 -98q-85 -16 -274 -16h-55v247h185v48h-187v98h312v-237h-185zM615 222v-203h81v203h-81zM503 -76v393h305v-393h-305zM675 836h133v-478h-133v478z" />
<glyph unicode="&#xae40;" d="M101 782h426q0 -182 -111 -305t-318 -176l-50 103q150 38 236.5 109.5t101.5 164.5h-285v104zM329 179v-151h349v151h-349zM199 -75v358h609v-358h-609zM675 834h133v-512h-133v512z" />
<glyph unicode="&#xae41;" d="M103 789h426q0 -186 -106 -299.5t-324 -162.5l-46 105q307 63 332 252h-282v105zM677 29v82h-349v-82h349zM677 212v88h130v-375h-610v375h131v-88h349zM675 836h132v-501h-132v501z" />
<glyph unicode="&#xae43;" d="M807 835v-609h-132v609h132zM106 767h425q0 -188 -108 -316t-320 -189l-50 103q154 44 238.5 119.5t99.5 177.5h-285v105zM564 281v-30q0 -82 74.5 -147t214.5 -85l-51 -102q-220 36 -306 177q-86 -141 -308 -177l-49 102q140 20 214.5 85t74.5 147v30h136z" />
<glyph unicode="&#xae45;" d="M805 835v-539h-132v539h132zM101 775h425q0 -184 -111.5 -310.5t-316.5 -184.5l-52 103q149 41 236 115.5t104 171.5h-285v105zM496 18q183 0 183 82q0 81 -183 81t-183 -81q0 -82 183 -82zM496 286q145 0 230 -49.5t85 -136.5t-85 -137t-230 -50t-230 50t-85 137 t85 136.5t230 49.5z" />
<glyph unicode="&#xae46;" d="M805 834v-508h-132v508h132zM101 781h427q0 -183 -110 -301t-321 -169l-44 104q151 35 234.5 103t98.5 158h-285v105zM813 181h-243q7 -60 77.5 -106t204.5 -59l-45 -99q-219 24 -305 140q-84 -116 -303 -140l-44 99q131 13 202 59t78 106h-238v105h616v-105z" />
<glyph unicode="&#xae4a;" d="M806 835v-496h-132v496h132zM109 776h432q0 -180 -111 -296.5t-318 -163.5l-52 103q154 33 239 99t99 153h-289v105zM427 194v-163h151v163h-151zM708 31h117v-104h-643v104h115v163h-108v104h627v-104h-108v-163z" />
<glyph unicode="&#xae4c;" d="M65 741h249q0 -217 -36.5 -362.5t-150.5 -271.5l-103 75q88 97 123.5 201.5t41.5 251.5h-124v106zM345 741h223q0 -112 -6 -194.5t-24 -174t-56 -171.5t-96 -152l-104 73q87 109 121.5 228.5t40.5 284.5h-99v106zM894 475v-109h-119v-451h-133v921h133v-361h119z" />
<glyph unicode="&#xae4d;" d="M378 304l-92 75q77 60 114 127t47 162h-98v105h223q0 -160 -43 -269.5t-151 -199.5zM68 773h246q0 -153 -44 -254.5t-158 -183.5l-83 81q76 54 112.5 111.5t46.5 140.5h-120v105zM153 142v105h615v-334h-132v229h-483zM890 602v-109h-122v-207h-132v549h132v-233h122z " />
<glyph unicode="&#xae4e;" d="M379 313l-93 75q77 60 114 126.5t47 161.5h-98v105h223q0 -160 -42.5 -269.5t-150.5 -198.5zM68 781h246q0 -153 -44 -254t-158 -184l-83 82q76 53 112.5 110.5t46.5 140.5h-120v105zM126 160v106h306v-353h-130v247h-176zM470 160v106h298v-353h-130v247h-168zM890 623 v-109h-122v-208h-132v529h132v-212h122z" />
<glyph unicode="&#xae50;" d="M368 249l-85 82q80 69 118 144.5t47 180.5h-102v105h225q0 -172 -43.5 -293t-159.5 -219zM68 761h246q0 -159 -44 -271.5t-154 -203.5l-85 82q75 61 111.5 127t46.5 161h-121v105zM296 220v-185h503v-105h-635v290h132zM768 557h122v-108h-122v-286h-132v672h132v-278z " />
<glyph unicode="&#xae54;" d="M380 356l-91 77q74 55 110 112.5t46 140.5h-100v105h226q0 -150 -42.5 -251t-148.5 -184zM65 791h246q0 -145 -44 -239.5t-153 -172.5l-84 81q72 49 108 100t47 126h-120v105zM286 84v-57h513v-103h-644v254h483v54h-484v100h614v-248h-482zM768 657h122v-109h-122v-178 h-132v466h132v-179z" />
<glyph unicode="&#xae56;" d="M379 350l-90 75q76 55 111.5 114t45.5 145h-103v105h228q0 -153 -42 -255t-150 -184zM114 380l-83 82q71 47 107 97.5t47 124.5h-121v105h247q0 -144 -44 -238t-153 -171zM242 77v-57q113 1 188 15l10 -96q-80 -16 -271 -16h-54v244h173v50h-174v96h301v-236h-173z M577 218v-200h78v200h-78zM463 -77v390h305v-390h-305zM890 653v-108h-122v-190h-132v480h132v-182h122z" />
<glyph unicode="&#xae5c;" d="M379 306l-94 74q78 63 114.5 131t45.5 165h-98v105h223q0 -161 -42 -272.5t-149 -202.5zM68 781h247q0 -155 -44 -257t-157 -185l-84 81q76 53 112.5 112t46.5 144h-121v105zM299 169v-141h340v141h-340zM169 -75v347h599v-347h-599zM890 631v-108h-122v-211h-132v522 h132v-203h122z" />
<glyph unicode="&#xae5d;" d="M383 318l-95 73q76 62 112 128t45 160h-98v105h223q0 -159 -41 -268.5t-146 -197.5zM68 784h246q0 -152 -44 -252.5t-156 -182.5l-84 81q75 53 111.5 110t46.5 139h-120v105zM637 29v80h-340v-80h340zM637 210v83h131v-369h-601v369h130v-83h340zM890 642v-108h-122v-203 h-132v503h132v-192h122z" />
<glyph unicode="&#xae5f;" d="M378 290l-93 75q77 64 114 133.5t46 167.5h-102v105h227q0 -163 -42 -276t-150 -205zM64 771h246q0 -156 -41.5 -259.5t-151.5 -189.5l-85 82q74 56 109 115t45 147h-122v105zM541 264v-18q0 -80 74 -144t213 -83l-49 -102q-216 32 -304 169q-88 -136 -304 -169l-50 102 q140 19 214.5 83t74.5 144v18h131zM768 595h122v-109h-122v-266h-132v616h132v-241z" />
<glyph unicode="&#xae60;" d="M384 307l-94 75q77 63 113 130t45 162h-98v105h224q0 -161 -41.5 -271.5t-148.5 -200.5zM119 340l-84 82q76 53 112 110.5t46 141.5h-121v105h247q0 -154 -43.5 -255.5t-156.5 -183.5zM703 277v-31q0 -78 42 -138t128 -89l-65 -95q-122 42 -172 158q-53 -122 -168 -167 q-116 44 -166 164q-51 -114 -169 -155l-65 95q85 31 127.5 92.5t42.5 134.5v31h128v-31q0 -131 101 -204q53 39 79 94t26 110v31h131zM768 631h122v-108h-122v-206h-132v519h132v-205z" />
<glyph unicode="&#xae61;" d="M379 311l-93 73q77 64 113.5 131t45.5 161h-99v105h224q0 -161 -42 -271t-149 -199zM68 781h246q0 -155 -44 -257t-157 -185l-83 81q76 53 112 112t47 144h-121v105zM467 18q180 0 180 78q0 79 -180 79q-181 0 -181 -79q0 -78 181 -78zM467 279q143 0 227 -48.5 t84 -134.5q0 -85 -84 -133.5t-227 -48.5q-144 0 -228 48.5t-84 133.5q0 86 84 134.5t228 48.5zM768 629h122v-109h-122v-219h-132v533h132v-205z" />
<glyph unicode="&#xae65;" d="M380 352l-91 76q75 54 110.5 112t45.5 141h-100v105h226q0 -150 -42.5 -251t-148.5 -183zM64 786h248q0 -144 -44 -238.5t-153 -173.5l-85 82q72 48 108 99.5t48 125.5h-122v105zM301 72v-56h491v-91h-622v381h604v-92h-473v-53h463v-89h-463zM768 644h122v-108h-122 v-191h-132v490h132v-191z" />
<glyph unicode="&#xae68;" d="M60 729h210q0 -192 -29.5 -334.5t-111.5 -264.5l-101 56q66 99 95 201t34 237h-97v105zM298 729h188q0 -208 -28.5 -365t-111.5 -289l-104 57q70 107 97.5 222.5t32.5 269.5h-74v105zM729 836h125v-921h-125v465h-69v-425h-122v864h122v-333h69v350z" />
<glyph unicode="&#xae69;" d="M339 298l-102 66q65 67 94 137t36 169h-71v106h193q0 -166 -30.5 -275t-119.5 -203zM59 776h211q0 -154 -28.5 -250t-116.5 -183l-96 72q60 57 86.5 114t34.5 141h-91v106zM186 154v105h655v-346h-132v241h-523zM716 835h125v-538h-125v219h-65v-214h-123v519h123v-199 h65v213z" />
<glyph unicode="&#xae6c;" d="M651 465v-281h-123v635h123v-248h65v264h125v-675h-125v305h-65zM345 274l-101 64q63 71 90 143.5t34 176.5h-72v105h190q0 -170 -27.5 -280.5t-113.5 -208.5zM62 763h211q0 -158 -28.5 -258t-117.5 -190l-96 70q61 61 88 122.5t35 150.5h-92v105zM322 35h542v-105h-675 v301h133v-196z" />
<glyph unicode="&#xae70;" d="M651 540v-172h-123v452h123v-174h65v189h125v-472h-125v177h-65zM339 352l-95 72q61 59 88.5 117t35.5 142h-73v106h193q0 -154 -29.5 -251.5t-119.5 -185.5zM62 789h209q0 -142 -29 -228.5t-119 -167.5l-91 74q58 50 84.5 98t33.5 118h-88v106zM348 27h519v-103h-653 v253h493v51h-495v101h629v-247h-493v-55z" />
<glyph unicode="&#xae78;" d="M351 309l-105 65q61 68 87 136.5t32 167.5h-69v105h190q0 -167 -26 -273t-109 -201zM59 783h211q0 -152 -28.5 -247.5t-115.5 -182.5l-96 71q60 59 86.5 115.5t33.5 138.5h-91v105zM340 168v-140h372v140h-372zM210 -75v346h631v-346h-631zM716 834h125v-524h-125v207 h-65v-201h-123v505h123v-198h65v211z" />
<glyph unicode="&#xae79;" d="M362 333l-104 63q58 66 82.5 131.5t29.5 160.5h-71v105h189q0 -164 -23.5 -265.5t-102.5 -194.5zM65 793h211q0 -152 -29.5 -248t-119.5 -181l-94 71q61 57 88 113.5t35 139.5h-91v105zM709 29v87h-368v-87h368zM709 217v82h131v-375h-630v375h131v-82h368zM715 835h125 v-500h-125v192h-62v-187h-123v477h123v-184h62v202z" />
<glyph unicode="&#xae7b;" d="M652 507v-190h-123v502h123v-206h64v223h125v-598h-125v269h-64zM346 274l-102 64q63 73 90.5 147.5t33.5 180.5h-73v105h191q0 -172 -27.5 -284.5t-112.5 -212.5zM62 771h209q0 -159 -26.5 -257t-112.5 -188l-96 70q58 61 83.5 121.5t32.5 148.5h-90v105zM593 280v-27 q0 -81 76 -147.5t217 -85.5l-50 -103q-218 32 -309 175q-91 -143 -309 -175l-51 103q141 19 217.5 85.5t76.5 147.5v27h132z" />
<glyph unicode="&#xae7c;" d="M653 513v-195h-123v501h123v-200h63v216h125v-524h-125v202h-63zM351 307l-101 66q60 66 85.5 132t31.5 162h-71v105h190q0 -163 -26.5 -267t-108.5 -198zM61 772h211q0 -152 -28.5 -246.5t-115.5 -179.5l-95 71q59 57 85.5 112.5t33.5 137.5h-91v105zM733 274v-32 q0 -77 42.5 -137.5t129.5 -87.5l-65 -95q-123 43 -173 156q-51 -120 -167 -166q-116 44 -167 162q-53 -111 -171 -153l-64 96q86 30 128.5 91t42.5 134v32h128v-32q0 -130 101 -202q54 39 80 93t26 109v32h129z" />
<glyph unicode="&#xae7d;" d="M654 505v-194h-123v507h123v-207h63v224h125v-554h-125v224h-63zM346 295l-100 66q61 67 87.5 134.5t32.5 163.5h-70v105h190q0 -163 -27.5 -269t-112.5 -200zM63 764h211q0 -153 -28.5 -249t-115.5 -183l-96 71q60 57 86.5 114.5t34.5 141.5h-92v105zM527 13 q189 0 189 78q0 79 -189 79q-188 0 -188 -79q0 -78 188 -78zM527 269q148 0 235 -48t87 -130t-87 -130t-235 -48q-147 0 -234 48t-87 130t87 130t234 48z" />
<glyph unicode="&#xae84;" d="M65 741h249q0 -218 -36.5 -363t-150.5 -271l-103 74q88 97 123.5 202t41.5 252h-124v106zM345 741h223q0 -113 -6 -195.5t-24 -174t-56 -171.5t-96 -152l-104 73q87 110 121.5 229.5t40.5 284.5h-99v106zM893 499h-118v-166h118v-109h-118v-309h-133v921h133v-229h118 v-108z" />
<glyph unicode="&#xae85;" d="M378 304l-92 75q77 61 114 128t47 161h-98v105h223q0 -159 -43 -269t-151 -200zM68 773h246q0 -153 -44 -254t-158 -184l-83 82q76 54 112.5 111t46.5 140h-120v105zM153 142v105h615v-334h-132v229h-483zM885 609h-117v-88h117v-108h-117v-127h-132v548h132v-117h117 v-108z" />
<glyph unicode="&#xae8c;" d="M380 356l-91 77q74 54 110 112t46 141h-100v105h226q0 -150 -42.5 -251t-148.5 -184zM64 791h247q0 -145 -44 -239.5t-153 -172.5l-84 81q72 48 108 100t46 126h-120v105zM286 84v-57h513v-102h-644v253h483v54h-484v100h614v-248h-482zM884 642h-116v-70h116v-104h-116 v-98h-132v466h132v-90h116v-104z" />
<glyph unicode="&#xaebc;" d="M65 741h249q0 -218 -36.5 -363t-150.5 -271l-103 74q88 97 123.5 202t41.5 252h-124v106zM675 836h132v-921h-132v473h-136q-39 -196 -155 -340l-104 73q87 109 121.5 228.5t40.5 285.5h-99v106h223q0 -150 -11 -247h120v342z" />
<glyph unicode="&#xaebd;" d="M71 778h245q0 -156 -43 -259t-156 -188l-84 82q76 56 112 115t46 145h-120v105zM177 142v105h630v-333h-132v228h-498zM675 835h132v-549h-132v217h-144q-44 -116 -148 -204l-93 75q77 64 113 133t45 166h-100v105h224q0 -96 -13 -170h116v227z" />
<glyph unicode="&#xaebe;" d="M71 781h245q0 -154 -43 -256t-156 -184l-83 80q75 54 110.5 112.5t45.5 142.5h-119v105zM146 160l1 105h313v-351h-131v246h-183zM496 160v105h311v-351h-131v246h-180zM675 835h132v-532h-132v204h-145q-44 -113 -146 -198l-93 74q76 63 112 130.5t45 162.5h-102v105 h226q0 -94 -13 -168h116v222z" />
<glyph unicode="&#xaec0;" d="M383 260l-87 81q80 67 116 141t45 178h-101v106h224q0 -112 -15 -191h110v257h132v-672h-132v310h-138q-46 -119 -154 -210zM78 766h246q0 -160 -44 -268.5t-159 -196.5l-84 82q78 58 115 122t47 155h-121v106zM320 35h510v-105h-642v292h132v-187z" />
<glyph unicode="&#xaec4;" d="M390 360l-89 77q73 54 107 112.5t43 142.5h-102v105h227q0 -94 -12 -155h110v194h133v-471h-133v172h-141q-42 -98 -143 -177zM73 797h245q0 -142 -43 -234.5t-150 -170.5l-84 82q70 47 104.5 96t45.5 122h-118v105zM320 22h509v-103h-641v254h487v52h-488v102h620v-249 h-487v-56z" />
<glyph unicode="&#xaecc;" d="M71 781h245q0 -153 -43.5 -254t-155.5 -184l-83 81q75 54 110.5 111t45.5 141h-119v105zM318 177v-149h359v149h-359zM188 -75v356h619v-356h-619zM675 835h132v-516h-132v195h-142q-43 -114 -145 -202l-94 74q75 63 110 129t44 161h-99v105h223q0 -95 -12 -162h115v216z " />
<glyph unicode="&#xaecd;" d="M78 790h244q0 -152 -43 -252.5t-155 -184.5l-85 83q75 52 111.5 108.5t46.5 140.5h-119v105zM676 30v83h-349v-83h349zM676 214v86h131v-375h-610v375h130v-86h349zM675 835h132v-495h-132v177h-139q-43 -109 -140 -193l-94 74q74 61 108.5 127t43.5 160h-100v105h224 q0 -95 -13 -167h110v212z" />
<glyph unicode="&#xaecf;" d="M391 294l-93 74q75 64 110.5 133t44.5 166h-100v105h224q0 -96 -13 -171h111v234h132v-620h-132v281h-139q-42 -112 -145 -202zM77 772h244q0 -155 -43.5 -258.5t-155.5 -188.5l-84 82q76 55 111.5 114t46.5 146h-119v105zM563 277v-19q0 -83 74 -149.5t213 -86.5 l-52 -103q-212 34 -301 174q-89 -142 -304 -176l-49 104q139 21 213 87.5t74 149.5v19h132z" />
<glyph unicode="&#xaed0;" d="M388 314l-92 75q73 62 108 128t44 159h-98v105h222q0 -89 -12 -164h114v218h132v-522h-132v199h-142q-42 -111 -144 -198zM118 343l-84 82q75 54 110.5 111t45.5 140h-119v105h245q0 -152 -43 -253t-155 -185zM713 279v-33q0 -79 41.5 -139.5t129.5 -88.5l-65 -95 q-125 43 -174 157q-51 -120 -166 -166q-116 45 -166 163q-53 -111 -171 -154l-65 95q86 31 128.5 92.5t42.5 135.5v33h128v-33q0 -132 101 -206q53 40 79 95t26 111v33h131z" />
<glyph unicode="&#xaed1;" d="M384 314l-92 75q75 61 111 127.5t45 159.5h-100v105h224q0 -99 -14 -170h117v224h132v-542h-132v212h-147q-44 -107 -144 -191zM71 781h245q0 -153 -44 -255t-157 -185l-84 82q76 53 112.5 111t46.5 142h-119v105zM501 15q181 0 181 84q0 40 -47 61.5t-134 21.5 q-86 0 -133.5 -21.5t-47.5 -61.5q0 -84 181 -84zM501 282q142 0 227 -49.5t85 -133.5q0 -85 -85 -135t-227 -50t-227 50t-85 135q0 84 85 133.5t227 49.5z" />
<glyph unicode="&#xaed8;" d="M59 731h208q0 -198 -28.5 -347t-108.5 -277l-101 56q66 103 93 210.5t32 250.5h-95v107zM539 489v326h122v-861h-122v429h-88q-31 -182 -116 -320l-101 56q70 109 96.5 227.5t29.5 277.5h-66v107h178q0 -140 -9 -242h76zM716 835h126v-922h-126v922z" />
<glyph unicode="&#xaed9;" d="M340 302l-102 64q63 67 90.5 136.5t33.5 167.5h-70v106h189q0 -92 -7 -161h62v203h123v-518h-123v210h-81q-31 -117 -115 -208zM66 776h205q0 -146 -29 -242.5t-110 -184.5l-95 69q55 59 81 115t34 137h-86v106zM180 150v105h658v-342h-132v237h-526zM713 835h125v-541 h-125v541z" />
<glyph unicode="&#xaedc;" d="M839 835v-675h-125v675h125zM339 266l-102 65q65 72 92.5 147.5t33.5 180.5h-70v105h187q0 -111 -9 -184h66v237h123v-642h-123v300h-86q-31 -116 -112 -209zM66 764h205q0 -158 -28 -259t-113 -191l-98 67q60 63 87 125.5t34 152.5h-87v105zM324 38h532v-105h-664v290 h132v-185z" />
<glyph unicode="&#xaee8;" d="M339 306l-101 64q63 68 90.5 137.5t33.5 168.5h-70v105h189q0 -104 -9 -171h65v207h123v-507h-123v195h-85q-33 -110 -113 -199zM66 781h204q0 -155 -27.5 -251.5t-112.5 -183.5l-97 68q59 59 85.5 117.5t34.5 144.5h-87v105zM341 168v-140h367v140h-367zM211 -75v346 h626v-346h-626zM713 834h125v-528h-125v528z" />
<glyph unicode="&#xaeeb;" d="M838 835v-603h-125v603h125zM342 287l-102 64q63 71 90 143t33 175h-70v105h186q0 -96 -7 -167h64v211h122v-505h-122v189h-82q-30 -120 -112 -215zM66 774h205q0 -155 -28 -253t-113 -187l-97 68q60 61 86.5 121t33.5 146h-87v105zM588 279v-24q0 -78 76 -143t216 -84 l-52 -103q-109 17 -188 62.5t-120 111.5q-42 -67 -121 -112t-188 -62l-50 103q139 19 215 84t76 143v24h136z" />
<glyph unicode="&#xaeed;" d="M838 835v-552h-125v552h125zM346 299l-102 63q61 70 87 141t32 172h-69v105h186q0 -103 -8 -172h65v210h123v-507h-123v192h-83q-29 -111 -108 -204zM66 780h205q0 -155 -28 -252t-113 -185l-97 68q59 60 86 118.5t34 145.5h-87v105zM510 15q200 0 200 73q0 74 -200 74 q-199 0 -199 -74q0 -73 199 -73zM510 264q158 0 247 -46t89 -130q0 -83 -89 -129t-247 -46q-157 0 -246.5 46t-89.5 129t89.5 129.5t246.5 46.5z" />
<glyph unicode="&#xaef4;" d="M70 741h249q0 -207 -39 -353t-149 -270l-101 76q84 95 120.5 197t43.5 243h-124v107zM532 361h143v144h-118q-8 -76 -25 -144zM675 836h132v-922h-132v342h-175q-40 -108 -113 -200l-105 71q84 109 120 228.5t42 278.5h-96v107h221q0 -68 -3 -131h109v226z" />
<glyph unicode="&#xaef8;" d="M383 261l-90 79q78 67 112 141t42 179h-94v106h218q0 -54 -3 -102h107v168h132v-673h-132v183h-133v105h133v112h-120q-36 -177 -172 -298zM79 766h243q0 -160 -43 -268t-156 -197l-85 82q77 59 113.5 122.5t45.5 154.5h-118v106zM320 35h510v-105h-642v293h132v-188z " />
<glyph unicode="&#xaefc;" d="M390 363l-91 76q72 54 105.5 112t42.5 141h-100v105h224q0 -27 -2 -73h105v112h133v-471h-133v77h-125v100h125v83h-118q-32 -156 -166 -262zM73 797h245q0 -142 -43 -234t-150 -168l-84 82q70 47 104.5 95t45.5 120h-118v105zM320 22h509v-103h-641v254h487v52h-488v102 h620v-249h-487v-56z" />
<glyph unicode="&#xaf07;" d="M389 292l-94 73q75 65 109.5 134.5t43.5 167.5h-97v105h220q0 -46 -3 -89h107v151h132v-623h-132v162h-130v106h130v99h-120q-35 -169 -166 -286zM76 772h245q0 -155 -43.5 -258.5t-155.5 -188.5l-84 82q76 55 111.5 114.5t46.5 145.5h-120v105zM563 265v-17 q0 -80 73.5 -144.5t213.5 -83.5l-51 -102q-214 33 -302 169q-88 -137 -304 -170l-49 103q140 19 213.5 83.5t73.5 144.5v17h132z" />
<glyph unicode="&#xaf08;" d="M386 315l-95 73q74 62 109 128.5t44 159.5h-95v105h219q0 -41 -3 -82h109v136h132v-522h-132v85h-130v106h130v90h-122q-35 -165 -166 -279zM117 343l-83 81q75 54 110.5 111t45.5 141h-119v105h245q0 -152 -43.5 -253.5t-155.5 -184.5zM713 279v-33q0 -79 41.5 -140 t129.5 -88l-65 -95q-125 43 -174 157q-51 -120 -165 -166q-118 45 -167 163q-53 -111 -171 -154l-65 95q86 30 128.5 92t42.5 136v33h128v-33q0 -133 102 -206q53 39 78.5 94t25.5 112v33h131z" />
<glyph unicode="&#xaf0d;" d="M380 334l-93 73q76 60 111 125t43 157h-91v105h216q0 -27 -2 -79h111v119h132v-487h-132v72h-132v103h132v91h-124q-34 -168 -171 -279zM78 794h242q0 -152 -42.5 -251t-153.5 -180l-85 80q74 52 109.5 108t46.5 138h-117v105zM328 20h496v-95h-628v386h613v-96h-481v-51 h469v-92h-469v-52z" />
<glyph unicode="&#xaf10;" d="M59 731h208q0 -198 -28.5 -347t-108.5 -276l-101 55q66 104 93 211t32 250h-95v107zM447 364h92v128h-75q-5 -57 -17 -128zM539 598v217h123v-861h-123v304h-117q-31 -106 -87 -195l-101 56q70 109 96.5 227.5t29.5 277.5h-66v107h178q0 -89 -2 -133h69zM716 835h126 v-921h-126v921z" />
<glyph unicode="&#xaf2c;" d="M761 278l-130 14q29 171 31 355h-197v106h328v-60q0 -221 -32 -415zM334 273l-129 22q58 178 62 352h-164v106h296v-49q0 -63 -2 -106t-17.5 -135t-45.5 -190zM541 142h334v-107h-832v107h368v276h130v-276z" />
<glyph unicode="&#xaf2d;" d="M766 473l-128 15q25 97 29 204h-201v106h329v-57q0 -155 -29 -268zM348 472l-127 19q39 108 45 201h-155v106h285v-41q0 -157 -48 -285zM133 133v104h637v-319h-132v215h-505zM540 417h334v-106h-829v106h366v160h129v-160z" />
<glyph unicode="&#xaf30;" d="M766 453l-128 14q27 108 29 220h-201v105h329v-60q0 -160 -29 -279zM347 450l-128 22q42 114 48 215h-156v105h285v-46q0 -165 -49 -296zM282 220v-185h504v-105h-636v290h132zM540 391h335v-105h-831v105h367v166h129v-166z" />
<glyph unicode="&#xaf32;" d="M766 504l-127 13q25 96 27 181h-200v104h329v-52q0 -142 -29 -246zM348 501l-128 20q40 95 46 177h-155v104h285v-49q0 -145 -48 -252zM260 274v-228q79 5 158 27l16 -105q-107 -31 -249 -31h-53v337h128zM625 -1q56 0 56 34t-56 34q-55 0 -55 -34t55 -34zM625 152 q73 0 120 -32.5t47 -86.5t-47 -86.5t-120 -32.5t-120 32.5t-47 86.5t47 86.5t120 32.5zM689 324v-59h147v-94h-422v94h148v59h127zM540 459h335v-105h-830v105h366v142h129v-142z" />
<glyph unicode="&#xaf34;" d="M767 520l-128 14q23 87 27 172h-200v105h329v-52q0 -137 -28 -239zM348 516l-128 20q41 94 46 170h-155v105h285v-48q0 -143 -48 -247zM282 78v-55h517v-102h-648v253h487v50h-488v102h618v-248h-486zM539 482h336v-105h-831v105h365v128h130v-128z" />
<glyph unicode="&#xaf3c;" d="M765 477l-128 14q25 98 29 205h-201v105h329v-57q0 -154 -29 -267zM348 477l-127 17q39 109 45 202h-155v105h285v-41q0 -157 -48 -283zM274 148v-120h367v120h-367zM144 -75v327h626v-327h-626zM540 429h334v-105h-829v105h366v153h129v-153z" />
<glyph unicode="&#xaf3d;" d="M765 482l-128 13q25 98 29 204h-201v105h329v-57q0 -153 -29 -265zM349 481l-128 18q39 109 45 200h-155v105h285v-41q0 -156 -47 -282zM639 29v76h-361v-76h361zM639 207v77h131v-360h-623v360h131v-77h361zM540 438h335v-106h-830v106h366v146h129v-146z" />
<glyph unicode="&#xaf3f;" d="M765 469l-128 14q25 99 29 207h-201v104h329v-57q0 -154 -29 -268zM348 468l-127 19q39 111 45 203h-155v104h285v-41q0 -157 -48 -285zM525 265v-26q0 -79 76 -140.5t222 -78.5l-48 -103q-226 31 -316 165q-92 -134 -316 -165l-48 103q146 17 222 78.5t76 140.5v26h132z M540 417h335v-106h-830v106h366v158h129v-158z" />
<glyph unicode="&#xaf41;" d="M765 474l-128 15q25 97 29 204h-201v105h329v-57q0 -155 -29 -267zM348 474l-127 18q40 110 45 201h-155v105h285v-41q0 -157 -48 -283zM459 16q184 0 184 72q0 73 -184 73q-187 0 -187 -73q0 -72 187 -72zM459 264q149 0 235 -46.5t86 -129.5q0 -82 -86 -128.5 t-235 -46.5q-151 0 -237 46.5t-86 128.5q0 83 86 129.5t237 46.5zM540 419h334v-105h-829v105h366v160h129v-160z" />
<glyph unicode="&#xaf42;" d="M765 481l-128 14q25 97 29 201h-201v105h329v-56q0 -153 -29 -264zM348 481l-127 17q37 102 45 198h-155v105h285v-40q0 -155 -48 -280zM781 161h-235q27 -53 95 -91t176 -52l-48 -101q-223 31 -310 164q-87 -132 -309 -164l-49 101q211 27 272 143h-234v104h642v-104z M540 437h335v-105h-830v105h366v150h129v-150z" />
<glyph unicode="&#xaf43;" d="M766 505l-127 13q25 96 27 183h-201v104h330v-52q0 -143 -29 -248zM348 502l-129 19q41 98 48 180h-156v104h285v-49q0 -146 -48 -254zM773 156h-242q17 -51 88.5 -90t190.5 -50l-44 -98q-221 24 -307 138q-87 -114 -306 -138l-44 98q119 11 190 50t88 90h-241v102h246 v73h134v-73h247v-102zM540 465h335v-106h-830v106h366v130h129v-130z" />
<glyph unicode="&#xaf48;" d="M559 333l-120 17q22 135 22 281h-140v107h263v-75q0 -190 -25 -330zM228 319l-121 24q44 140 48 288h-97v107h219v-59q0 -197 -49 -360zM396 447v-238q142 10 210 20l7 -97q-213 -39 -562 -39l-12 107q123 0 236 4v243h121zM891 462v-109h-109v-439h-132v921h132v-373 h109z" />
<glyph unicode="&#xaf49;" d="M545 460l-124 14q23 100 25 199h-126v105h251v-61q0 -151 -26 -257zM240 453l-121 18q32 98 36 202h-88v105h211v-61q0 -155 -38 -264zM603 418l8 -94q-207 -35 -560 -35l-13 105q151 0 233 3v165h118v-161q130 7 214 17zM146 123v105h639v-313h-132v208h-507zM887 596 v-108h-102v-223h-132v570h132v-239h102z" />
<glyph unicode="&#xaf50;" d="M546 502l-123 14q19 78 23 170h-126v104h251v-56q0 -136 -25 -232zM243 497l-122 17q29 84 33 172h-87v104h211v-55q0 -140 -35 -238zM610 475l8 -91q-211 -35 -569 -35l-12 102q152 0 234 2v138h118v-134q136 7 221 18zM285 70v-51h527v-98h-660v239h500v48h-502v98h635 v-236h-500zM785 635h102v-108h-102v-188h-132v497h132v-201z" />
<glyph unicode="&#xaf5c;" d="M548 469l-124 14q20 93 22 194h-126v106h251v-62q0 -147 -23 -252zM242 462l-122 18q31 96 35 197h-88v106h211v-61q0 -152 -36 -260zM603 429l8 -91q-202 -35 -561 -35l-12 102q150 0 232 2v159h119v-154q104 4 214 17zM703 252v-20q0 -72 40.5 -128t123.5 -81l-63 -96 q-119 40 -169 147q-50 -113 -167 -157q-115 43 -165 154q-49 -104 -166 -144l-63 96q82 26 123 83t41 126v20h128v-20q0 -55 25 -105.5t76 -84.5q53 35 79 85.5t26 104.5v20h131zM785 614h102v-108h-102v-219h-132v547h132v-220z" />
<glyph unicode="&#xaf5d;" d="M545 470l-124 15q23 96 25 192h-126v106h251v-61q0 -148 -26 -252zM242 462l-122 17q31 97 35 198h-88v106h211v-61q0 -153 -36 -260zM603 433l8 -93q-199 -38 -560 -40l-13 105q149 0 233 3v161h118v-156q133 9 214 20zM473 17q185 0 185 71q0 70 -185 70 q-186 0 -186 -70q0 -71 186 -71zM473 258q149 0 233.5 -44.5t84.5 -125.5t-84.5 -125.5t-233.5 -44.5t-234 44.5t-85 125.5t85 125.5t234 44.5zM785 605h102v-109h-102v-227h-132v566h132v-230z" />
<glyph unicode="&#xaf64;" d="M468 353l-111 15q19 126 19 259h-103v107h216v-75q0 -185 -21 -306zM192 354l-113 16q38 128 42 257h-75v107h189v-56q0 -179 -43 -324zM328 449v-215q106 5 172 14l8 -93q-172 -33 -464 -33l-14 105q119 0 188 2v220h110zM720 836h125v-921h-125v457h-62v-417h-122v864 h122v-341h62v358z" />
<glyph unicode="&#xaf65;" d="M473 466l-110 10q17 91 19 197h-106v105h216v-61q0 -148 -19 -251zM505 422l9 -93q-182 -32 -468 -32l-14 105q87 0 193 3v146q-9 -41 -27 -88l-104 30q35 98 38 180h-78v105h187v-52q0 -96 -13 -162h107v-155q73 4 170 13zM201 132v106h642v-325h-132v219h-510zM718 835 h125v-563h-125v226h-55v-222h-123v540h123v-212h55v231z" />
<glyph unicode="&#xaf79;" d="M663 498v-205h-123v523h123v-212h55v231h125v-572h-125v235h-55zM473 467l-110 12q17 88 19 195h-106v105h216v-61q0 -147 -19 -251zM505 430l9 -93q-172 -37 -468 -37l-14 105q121 0 193 3v144q-9 -40 -27 -87l-104 29q35 98 38 180h-78v105h187v-52q0 -96 -13 -161h107 v-153q104 7 170 17zM518 12q194 0 194 73t-194 73q-195 0 -195 -73t195 -73zM518 258q155 0 242.5 -45t87.5 -128q0 -81 -87.5 -126.5t-242.5 -45.5t-243 45.5t-88 126.5q0 83 87.5 128t243.5 45z" />
<glyph unicode="&#xaf80;" d="M578 329l-118 18q22 135 22 284h-146v107h267v-75q0 -193 -25 -334zM239 316l-120 23q45 141 47 292h-98v107h218v-67q0 -61 -1.5 -99t-12.5 -110.5t-33 -145.5zM414 456v-248q127 7 225 20l7 -96q-222 -39 -586 -39l-11 107q158 0 245 3v253h120zM683 835h132v-921h-132 v921z" />
<glyph unicode="&#xaf84;" d="M811 835v-681h-132v681h132zM576 449l-119 13q22 94 24 199h-143v105h263v-62q0 -150 -25 -255zM254 442l-120 17q35 100 39 202h-94v105h215v-61q0 -156 -40 -263zM629 397l7 -94q-212 -37 -577 -37l-10 105q158 0 244 3v174h120v-169q133 7 216 18zM315 35h521v-105 h-654v274h133v-169z" />
<glyph unicode="&#xaf88;" d="M811 836v-496h-132v496h132zM575 501l-120 15q20 79 24 174h-142v104h262v-57q0 -139 -24 -236zM256 496l-119 17q31 92 33 177h-93v104h214v-56q0 -143 -35 -242zM631 475l8 -91q-210 -34 -581 -36l-16 102q161 0 248 2v149h121v-144q133 7 220 18zM311 20h526v-99h-658 v241h500v48h-501v97h633v-236h-500v-51z" />
<glyph unicode="&#xaf90;" d="M574 474l-117 15q22 92 24 184h-143v105h263v-59q0 -144 -27 -245zM258 467l-120 17q31 95 35 189h-94v105h215v-59q0 -148 -36 -252zM632 435l7 -94q-220 -38 -580 -38l-10 105q115 0 244 3v165h120v-160q148 10 219 19zM313 139v-111h369v111h-369zM184 -75v317h627 v-317h-627zM679 835h132v-550h-132v550z" />
<glyph unicode="&#xaf91;" d="M574 480l-117 14q22 92 24 184h-143v105h263v-59q0 -144 -27 -244zM258 472l-120 17q31 95 35 189h-94v105h215v-59q0 -148 -36 -252zM632 447l7 -93q-214 -37 -580 -37l-10 105q158 0 244 3v158h120v-153q133 7 219 17zM681 27v71h-367v-71h367zM681 197v77h130v-349 h-627v349h130v-77h367zM679 834h132v-529h-132v529z" />
<glyph unicode="&#xaf95;" d="M811 835v-566h-132v566h132zM574 471l-117 14q22 92 24 184h-143v106h263v-59q0 -144 -27 -245zM258 464l-120 17q32 98 34 188h-93v106h215v-59q0 -148 -36 -252zM632 429l7 -94q-207 -36 -580 -38l-10 105q129 0 244 4v166h120v-161q136 7 219 18zM497 13q187 0 187 72 q0 73 -187 73t-187 -73q0 -72 187 -72zM497 258q149 0 234 -45.5t85 -127.5q0 -81 -85 -126t-234 -45q-150 0 -235 45t-85 126q0 82 85 127.5t235 45.5z" />
<glyph unicode="&#xaf9c;" d="M765 271l-128 14q34 177 36 361h-224v107h353v-61q0 -223 -37 -421zM636 141h239v-106h-832v106h260v170q-6 -16 -14 -34l-125 37q77 170 81 332h-152v107h282v-53q0 -53 -1 -82.5t-10.5 -89.5t-27.5 -120h94v-267h78v267h128v-267z" />
<glyph unicode="&#xafb8;" d="M875 407v-107h-354v-384h-132v384h-346v107h201q36 134 38 268h-173v105h302v-59q0 -175 -34 -314h249q27 126 29 268h-183v105h313v-65q0 -175 -27 -308h117z" />
<glyph unicode="&#xafb9;" d="M876 370h-352v-128h244v-327h-133v223h-494v104h251v128h-349v105h210q34 109 38 219h-175v106h304v-53q0 -154 -34 -272h234q27 102 31 219h-176v106h304v-58q0 -154 -27 -267h124v-105z" />
<glyph unicode="&#xafbc;" d="M282 229v-194h503v-105h-635v299h132zM749 446h127v-105h-334v-199h-132v199h-368v105h208q39 124 41 235h-175v106h304v-53q0 -161 -36 -288h233q30 116 34 235h-176v106h304v-59q0 -160 -30 -282z" />
<glyph unicode="&#xafc0;" d="M876 412h-351v-77h247v-253h-501v-59h526v-102h-658v256h501v57h-502v101h255v77h-350v104h216q29 91 33 187h-175v104h303v-61q0 -137 -26 -230h228q26 97 28 187h-175v104h304v-52q0 -138 -25 -239h122v-104z" />
<glyph unicode="&#xafc7;" d="M646 -1q52 0 52 35q0 36 -52 36t-52 -36q0 -35 52 -35zM646 156q72 0 118 -33.5t46 -88.5q0 -54 -46.5 -87.5t-117.5 -33.5t-117 33.5t-46 87.5q0 55 46 88.5t117 33.5zM710 343v-73h135v-94h-396v94h134v73h127zM754 517h122v-105h-358v-111h-97v-225h-178v-55 q140 0 210 14l12 -95q-54 -11 -109.5 -13.5t-181.5 -2.5h-56v241h179v50h-180v96h269v101h-344v105h217q29 91 33 187h-175v105h303v-62q0 -138 -26 -230h228q26 97 28 187h-175v105h304v-53q0 -137 -25 -239z" />
<glyph unicode="&#xafc8;" d="M641 28v131h-367v-131h367zM876 380h-353v-118h247v-337h-626v337h247v118h-348v106h216q31 106 33 204h-174v106h303v-53q0 -146 -30 -257h233q23 97 27 204h-176v106h304v-58q0 -146 -24 -252h121v-106z" />
<glyph unicode="&#xafc9;" d="M642 29v83h-373v-83h373zM642 213v92h131v-381h-634v381h130v-92h373zM754 496h123v-105h-355v-133h-132v133h-347v105h214q31 104 35 199h-174v106h303v-50q0 -144 -31 -255h233q24 100 28 199h-176v106h304v-55q0 -143 -25 -250z" />
<glyph unicode="&#xafcb;" d="M525 217v-19q0 -65 75 -117t219 -65l-45 -99q-227 22 -318 146q-93 -124 -317 -146l-44 99q141 13 217.5 66.5t76.5 115.5v19h136zM754 477h123v-105h-354v-122h-132v122h-348v105h214q33 112 35 210h-175v105h304v-52q0 -149 -31 -263h232q25 99 29 210h-176v105h304 v-58q0 -149 -25 -257z" />
<glyph unicode="&#xafcd;" d="M646 97q0 75 -188 75q-189 0 -189 -75q0 -76 189 -76q188 0 188 76zM876 373h-353v-100q120 -10 187.5 -56t67.5 -120q0 -85 -85.5 -132.5t-234.5 -47.5q-150 0 -235.5 47.5t-85.5 132.5q0 74 67 119.5t187 56.5v100h-348v104h214q31 105 35 209h-174v106h303v-53 q0 -149 -31 -262h232q25 98 29 209h-176v106h304v-58q0 -149 -25 -257h122v-104z" />
<glyph unicode="&#xafce;" d="M876 385h-351v-111h256v-104h-240q25 -56 95 -96.5t181 -53.5l-49 -101q-221 30 -309 164q-88 -134 -310 -164l-48 101q111 14 180.5 54t95.5 96h-238v104h254v111h-350v105h216q31 105 33 202h-175v106h304v-53q0 -144 -29 -255h233q22 98 26 202h-176v106h304v-58 q0 -144 -23 -250h120v-105z" />
<glyph unicode="&#xafd4;" d="M642 431l7 -96q-104 -16 -240 -26v-378h-132v371q-108 -4 -231 -4l-16 107q20 0 63 0.5t67 0.5q30 120 32 247h-112v107h238v-68q0 -165 -28 -283q75 2 151 6q27 112 29 238h-109v107h235v-70q0 -157 -23 -266q46 4 69 7zM692 835h132v-921h-132v234h-189v102h189v585z " />
<glyph unicode="&#xafdc;" d="M514 448h172v388h132v-506h-132v29h-172v89zM255 329v131q-67 -3 -201 -5l-15 101q19 0 61.5 0.5t65.5 0.5q21 73 25 141h-109v103h236v-52q0 -111 -21 -188q68 2 137 6q17 64 21 131h-101v103h228v-50q0 -103 -16 -175q8 1 22 2.5t25.5 2.5t21.5 1l8 -90 q-106 -16 -256 -26v-137h-132zM308 16h535v-95h-667v235h510v48h-511v96h643v-233h-510v-51z" />
<glyph unicode="&#xafe8;" d="M515 408h171v428h132v-558h-132v38h-171v92zM254 283v138q-95 -4 -200 -4l-15 102q80 0 125 1q25 86 27 166h-109v105h236v-57q0 -126 -23 -211q20 0 42.5 1t50 2.5t42.5 2.5q22 85 24 157h-100v105h227v-54q0 -117 -19 -196q25 2 73 8l9 -90q-103 -18 -258 -31v-145 h-132zM717 251v-14q0 -74 43 -132t130 -84l-63 -95q-125 40 -177 151q-50 -117 -167 -160q-115 42 -166 157q-53 -108 -175 -148l-63 95q87 28 130 86.5t43 129.5v14h128v-14q0 -125 102 -195q53 36 79 88t26 107v14h130z" />
<glyph unicode="&#xafe9;" d="M514 401h172v434h132v-577h-132v47h-172v96zM255 264v157q-95 -4 -201 -4l-15 102q81 0 125 1q26 86 28 167h-110v105h236v-57q0 -127 -24 -213q95 4 136 7q23 84 25 158h-101v105h228v-54q0 -118 -19 -198q11 1 34 3.5t36 3.5l9 -91q-128 -20 -255 -29v-163h-132z M498 11q190 0 190 70q0 69 -190 69t-190 -69q0 -70 190 -70zM498 248q153 0 239 -43.5t86 -123.5t-86 -124t-239 -44q-154 0 -239.5 44t-85.5 124t85.5 123.5t239.5 43.5z" />
<glyph unicode="&#xaff0;" d="M505 446l8 -93q-82 -16 -178 -24v-344h-125v337q-84 -4 -172 -4l-12 103q55 0 86 1q30 111 32 219h-80v105h196v-61q0 -151 -28 -261q32 1 98 5q25 105 27 212h-70v105h186v-63q0 -143 -22 -244q36 4 54 7zM541 270v550h123v-864h-123v211h-144v103h144zM723 836h125 v-921h-125v921z" />
<glyph unicode="&#xaff1;" d="M402 395h137v425h123v-558h-123v43h-137v90zM218 264v150q-87 -4 -176 -4l-13 102h91q19 81 21 157h-77v105h188v-61q0 -119 -18 -199q33 1 106 5q17 73 19 150h-78v105h189v-66q0 -111 -15 -179l16 2t17.5 2t14.5 2l9 -90q-80 -15 -169 -24v-157h-125zM158 119v105h682 v-309h-133v204h-549zM714 835h126v-576h-126v576z" />
<glyph unicode="&#xaff4;" d="M840 835v-695h-126v695h126zM403 356h136v463h123v-661h-123v104h-136v94zM218 240v148q-87 -4 -176 -4l-13 102h87q22 94 24 174h-76v105h188v-52q0 -129 -22 -224q70 2 105 5q20 81 24 166h-78v105h189v-57q0 -121 -19 -205q4 0 23.5 2.5t28.5 3.5l9 -90 q-85 -16 -169 -23v-156h-125zM311 35h551v-105h-683v269h132v-164z" />
<glyph unicode="&#xaff8;" d="M840 835v-513h-126v513h126zM402 448h137v372h123v-494h-123v32h-137v90zM218 325v135q-108 -5 -176 -5l-13 100q58 0 91 1q18 67 20 130h-76v104h187v-54q0 -106 -16 -178q18 1 53 2.5t53 2.5q15 52 19 123h-79v104h189v-61q0 -96 -13 -156q8 1 23.5 2.5t22.5 1.5l9 -88 q-79 -13 -169 -21v-143h-125zM305 16h558v-95h-688v233h534v45h-537v94h668v-228h-535v-49z" />
<glyph unicode="&#xb000;" d="M403 401h136v418h123v-546h-123v36h-136v92zM218 270v151q-65 -3 -176 -3l-13 101h90q18 73 22 158h-77v105h189v-59q0 -121 -19 -201q36 1 105 5q16 69 20 150h-78v105h189v-58q0 -112 -16 -187q17 2 49 6l9 -90q-85 -16 -169 -23v-160h-125zM300 132v-104h410v104h-410 zM170 -76v311h670v-311h-670zM714 834h126v-566h-126v566z" />
<glyph unicode="&#xb001;" d="M403 416h136v403h123v-530h-123v35h-136v92zM218 290v140q-87 -4 -176 -4l-13 102h92q18 77 20 155h-77v104h189v-60q0 -118 -18 -196q35 1 105 5q17 65 19 147h-78v104h189v-67q0 -109 -14 -174q8 1 23.5 2.5t23.5 2.5l9 -89q-80 -16 -169 -24v-148h-125zM709 27v65 h-409v-65h409zM709 191v65h131v-331h-671v331h131v-65h409zM714 835h126v-549h-126v549z" />
<glyph unicode="&#xb004;" d="M840 834v-566h-126v566h126zM402 401h137v418h123v-546h-123v36h-137v92zM218 270v151q-65 -3 -176 -3l-13 101h90q18 73 22 158h-77v105h189v-59q0 -121 -19 -201q36 1 105 5q16 69 20 150h-78v105h189v-58q0 -112 -16 -187q17 2 49 6l9 -90q-85 -16 -169 -23v-160h-125 zM721 239v-16q0 -71 43 -126t131 -79l-62 -95q-126 37 -179 146q-50 -114 -166 -155q-115 40 -166 152q-54 -106 -178 -143l-61 95q87 26 130.5 81.5t43.5 123.5v16h128v-16q0 -119 102 -187q52 36 78 85.5t26 101.5v16h130z" />
<glyph unicode="&#xb00c;" d="M646 430l8 -96q-100 -16 -237 -26v-359h-132v352q-101 -5 -232 -5l-16 108q82 0 127 1q33 124 35 257h-113v107h241v-69q0 -169 -30 -292q73 1 148 6q29 116 31 248h-110v107h238v-70q0 -162 -26 -276q43 4 68 7zM694 835h132v-921h-132v921z" />
<glyph unicode="&#xb010;" d="M817 835v-688h-133v688h133zM286 190v158q-137 -5 -230 -5l-16 105q19 0 61 0.5t65 0.5q31 103 33 212h-103v106h231v-67q0 -147 -27 -248q76 2 137 7q27 98 29 202h-106v106h234v-68q0 -138 -22 -229q11 1 32.5 3.5t32.5 3.5l9 -92q-114 -20 -228 -29v-166h-132zM285 35 h554v-105h-685v295h131v-190z" />
<glyph unicode="&#xb014;" d="M817 835v-478h-133v478h133zM315 21h532v-100h-665v251h502v53h-504v99h100v94q-78 -4 -225 -6l-15 102q20 0 64.5 0.5t68.5 0.5q21 77 25 167h-102v105h230v-61q0 -125 -20 -208q67 2 134 6q21 80 23 158h-100v105h229v-57q0 -117 -17 -195q40 4 61 6l8 -90 q-110 -18 -232 -27v-100h405v-244h-502v-59z" />
<glyph unicode="&#xb01c;" d="M687 29v124h-376v-124h376zM413 387v-130h404v-331h-636v331h99v123q-100 -5 -223 -5l-16 105q20 0 63 0.5t67 0.5q26 94 28 190h-103v105h231v-65q0 -135 -23 -227q47 1 136 7q24 88 26 180h-106v105h234v-65q0 -127 -18 -209q10 2 31 4t32 3l8 -92q-111 -19 -234 -30z M685 836h132v-544h-132v544z" />
<glyph unicode="&#xb01d;" d="M686 28v73h-395v-73h395zM686 200v88h131v-363h-657v363h125v100q-101 -5 -228 -5l-16 106q84 0 130 1q26 92 28 186h-103v105h231v-64q0 -134 -23 -225q23 1 68 3t68 3q24 87 26 178h-106v105h234v-65q0 -125 -19 -208q42 4 64 7l8 -94q-99 -16 -231 -26v-135h-125v-60 h395zM685 834h132v-509h-132v509z" />
<glyph unicode="&#xb028;" d="M875 409v-107h-194v-389h-132v389h-185v-389h-132v389h-189v107h201q36 131 38 266h-173v105h302v-59q0 -174 -34 -312h249q27 125 29 266h-182v105h311v-64q0 -175 -25 -307h116z" />
<glyph unicode="&#xb044;" d="M753 229l-130 15q37 190 39 403h-194v105h325v-66q0 -241 -40 -457zM345 228l-130 22q62 196 66 397h-178v105h309v-53q0 -70 -2 -117t-18 -146t-47 -208zM43 149h832v-107h-832v107z" />
<glyph unicode="&#xb045;" d="M132 154v104h644v-343h-132v239h-512zM752 454h124v-106h-833v106h212q39 125 41 238h-176v105h305v-53q0 -163 -37 -290h232q31 121 33 238h-176v105h304v-60q0 -162 -29 -283z" />
<glyph unicode="&#xb048;" d="M277 241v-204h522v-105h-655v309h133zM749 422h127v-105h-833v105h208q41 134 45 259h-175v105h304v-43q0 -175 -42 -321h234q33 129 37 259h-175v105h304v-44q0 -175 -34 -320z" />
<glyph unicode="&#xb04a;" d="M260 289v-243q78 4 158 27l16 -105q-107 -31 -249 -31h-53v352h128zM626 1q55 0 55 38t-55 38q-56 0 -56 -38t56 -38zM626 165q73 0 120 -35t47 -91q0 -58 -47 -92t-120 -34q-74 0 -120.5 34t-46.5 92q0 57 47 91.5t120 34.5zM690 347v-63h146v-94h-424v94h150v63h128z M758 488h118v-105h-833v105h221q31 100 33 210h-177v106h305v-66q0 -148 -27 -250h228q25 99 29 210h-177v106h305v-59q0 -149 -25 -257z" />
<glyph unicode="&#xb04c;" d="M271 91v-64h526v-102h-658v260h501v57h-502v102h634v-253h-501zM750 509h126v-105h-833v105h213q31 94 35 195h-176v104h304v-61q0 -142 -28 -238h228q27 100 29 195h-176v104h305v-52q0 -141 -27 -247z" />
<glyph unicode="&#xb04e;" d="M251 81v-61q127 1 190 14l9 -95q-50 -10 -100 -12t-169 -2h-53v244h178v52h-179v94h301v-234h-177zM589 220v-200h83v200h-83zM478 -75v390h306v-390h-306zM750 485h126v-104h-833v104h212q36 106 38 215h-177v104h305v-64q0 -150 -30 -255h227q29 106 33 215h-177v104 h305v-55q0 -150 -29 -264z" />
<glyph unicode="&#xb053;" d="M243 81v-59q141 1 210 14l12 -97q-81 -15 -290 -15h-57v245h179v55h-180v96h304v-239h-178zM647 2q52 0 52 39q0 38 -52 38t-52 -38q0 -39 52 -39zM647 168q71 0 117.5 -35t46.5 -92q0 -58 -46 -92.5t-118 -34.5t-118 34.5t-46 92.5q0 57 46.5 92t117.5 35zM710 354v-69 h135v-94h-396v94h134v69h127zM755 493h121v-104h-833v104h218q34 104 36 211h-176v104h304v-64q0 -149 -29 -251h228q27 104 31 211h-177v104h305v-55q0 -148 -28 -260z" />
<glyph unicode="&#xb054;" d="M271 165v-134h375v134h-375zM141 -72v341h634v-341h-634zM755 469h121v-105h-833v105h216q35 116 37 227h-175v105h304v-54q0 -157 -34 -278h232q28 111 30 227h-176v105h304v-60q0 -156 -26 -272z" />
<glyph unicode="&#xb055;" d="M644 30v88h-372v-88h372zM644 220v97h132v-392h-635v392h131v-97h372zM757 487h119v-104h-833v104h219q32 110 34 213h-175v105h304v-53q0 -151 -31 -265h232q25 105 27 213h-176v105h304v-60q0 -150 -24 -258z" />
<glyph unicode="&#xb057;" d="M525 267v-29q0 -78 76 -139.5t222 -79.5l-50 -102q-223 30 -314 164q-92 -134 -314 -164l-50 102q146 18 222 79.5t76 139.5v29h132zM753 448h123v-105h-833v105h209q38 122 44 242h-176v106h305v-43q0 -168 -38 -305h234q29 123 33 242h-176v106h305v-45 q0 -168 -30 -303z" />
<glyph unicode="&#xb059;" d="M458 18q186 0 186 80q0 79 -186 79q-187 0 -187 -79q0 -80 187 -80zM458 282q146 0 234 -49.5t88 -134.5q0 -86 -88 -136t-234 -50q-147 0 -234.5 50t-87.5 136q0 85 87.5 134.5t234.5 49.5zM752 454h124v-105h-833v105h212q39 123 41 236h-176v105h305v-53 q0 -161 -37 -288h233q30 119 32 236h-176v105h304v-60q0 -160 -29 -281z" />
<glyph unicode="&#xb05d;" d="M277 82v-59h509v-99h-642v405h635v-97h-502v-56h480v-94h-480zM756 497h120v-105h-833v105h217q32 101 36 203h-175v104h304v-50q0 -144 -32 -257h231q27 99 29 203h-175v104h303v-63q0 -144 -25 -244z" />
<glyph unicode="&#xb07c;" d="M81 741h249q0 -208 -40 -354.5t-152 -269.5l-101 76q86 96 123 198t44 244h-123v106zM363 741h223q0 -223 -37 -386t-142 -298l-107 72q83 109 119 227.5t42 278.5h-98v106zM676 836h132v-921h-132v921z" />
<glyph unicode="&#xb07d;" d="M409 301l-95 75q73 62 106.5 129t41.5 163h-104v105h229q0 -162 -38 -271.5t-140 -200.5zM81 773h245q0 -154 -43 -256t-155 -187l-85 83q75 54 110.5 112t46.5 143h-119v105zM177 142v105h630v-333h-132v228h-498zM675 835h132v-549h-132v549z" />
<glyph unicode="&#xb080;" d="M807 832v-665h-132v665h132zM399 253l-91 80q79 68 114 142.5t43 180.5h-106v105h230q0 -175 -39 -292t-151 -216zM79 761h248q0 -162 -43 -271t-156 -198l-86 82q77 59 113.5 124.5t45.5 157.5h-122v105zM318 35h513v-105h-646v290h133v-185z" />
<glyph unicode="&#xb084;" d="M807 836v-466h-133v466h133zM398 356l-91 77q75 55 109.5 112t43.5 141h-103v105h229q0 -152 -40.5 -252t-147.5 -183zM77 791h248q0 -145 -45.5 -240.5t-155.5 -172.5l-83 83q73 49 109.5 99.5t47.5 125.5h-121v105zM319 27h517v-102h-648v253h488v53h-489v101h620v-249 h-488v-56z" />
<glyph unicode="&#xb08c;" d="M401 315l-93 73q75 63 110.5 129t44.5 159h-106v105h230q0 -160 -40.5 -268.5t-145.5 -197.5zM79 781h245q0 -153 -43 -254.5t-155 -185.5l-85 82q75 53 111.5 111t46.5 142h-120v105zM318 169v-141h359v141h-359zM188 -75v347h619v-347h-619zM674 834h133v-522h-133v522 z" />
<glyph unicode="&#xb08d;" d="M403 321l-94 73q76 62 111.5 128.5t44.5 162.5h-102v105h226q0 -162 -40 -270.5t-146 -198.5zM84 790h246q0 -155 -44.5 -256.5t-159.5 -183.5l-83 81q77 55 114 112.5t47 141.5h-120v105zM676 29v82h-351v-82h351zM676 212v87h131v-375h-613v375h131v-87h351zM674 835 h133v-496h-133v496z" />
<glyph unicode="&#xb08f;" d="M806 835v-618h-132v618h132zM403 295l-93 74q73 63 108 132t43 165h-102v105h226q0 -162 -39 -273t-143 -203zM81 771h245q0 -155 -43 -258t-156 -187l-84 81q76 56 112 114.5t46 144.5h-120v105zM576 264v-19q0 -82 74 -145t218 -82l-50 -102q-223 34 -310 172 q-87 -138 -310 -172l-50 102q143 19 217.5 82t74.5 145v19h136z" />
<glyph unicode="&#xb091;" d="M807 834v-537h-132v537h132zM405 314l-93 74q74 63 108.5 128.5t43.5 159.5h-102v105h226q0 -159 -39.5 -267.5t-143.5 -199.5zM84 781h245q0 -153 -44 -254.5t-157 -184.5l-84 81q76 55 112.5 113t46.5 140h-119v105zM493 14q189 0 189 78q0 79 -189 79t-189 -79 q0 -78 189 -78zM493 274q149 0 235.5 -48.5t86.5 -133.5q0 -84 -86.5 -132t-235.5 -48t-235.5 48t-86.5 132q0 85 86.5 133.5t235.5 48.5z" />
<glyph unicode="&#xb098;" d="M203 748v-498q201 5 370 38l13 -108q-191 -40 -435 -40h-80v608h132zM893 488v-109h-129v-463h-132v920h132v-348h129z" />
<glyph unicode="&#xb099;" d="M564 495l15 -106q-189 -39 -421 -39h-78v433h132v-324q183 3 352 36zM160 157v105h608v-349h-132v244h-476zM890 621v-108h-122v-208h-132v530h132v-214h122z" />
<glyph unicode="&#xb09a;" d="M558 513l15 -106q-195 -38 -416 -38h-77v415h132v-306q186 3 346 35zM141 176v105h292v-368h-130v263h-162zM474 175v106h294v-368h-131v262h-163zM890 630v-108h-122v-200h-132v514h132v-206h122z" />
<glyph unicode="&#xb09c;" d="M565 468l16 -106q-195 -40 -422 -40h-79v452h132v-342q192 3 353 36zM307 234v-199h491v-105h-623v304h132zM768 577h122v-111h-122v-293h-132v662h132v-258z" />
<glyph unicode="&#xb09f;" d="M561 507l15 -107q-190 -38 -418 -38h-78v423h132v-314q182 3 349 36zM301 176v-147h487v-104h-619v355h604v-104h-472zM768 638h122v-109h-122v-205h-132v512h132v-198z" />
<glyph unicode="&#xb0a0;" d="M561 549l15 -105q-195 -39 -418 -39h-78v390h132v-280q193 4 349 34zM293 88v-60h501v-103h-633v260h475v54h-476v104h608v-255h-475zM768 663h122v-107h-122v-176h-132v456h132v-173z" />
<glyph unicode="&#xb0a1;" d="M561 538l15 -107q-190 -38 -418 -38h-78v403h132v-294q182 3 349 36zM253 78v-56q165 1 238 18l13 -97q-53 -12 -112 -15t-205 -3h-61v244h180v52h-181v97h308v-240h-180zM472 214v104h296v-403h-130v299h-166zM889 649v-107h-121v-186h-132v479h132v-186h121z" />
<glyph unicode="&#xb0a2;" d="M561 542l15 -109q-194 -39 -418 -39h-78v402h132v-290q182 3 349 36zM246 80v-56q110 1 185 14l10 -97q-84 -16 -269 -16h-54v246h170v50h-171v97h298v-238h-169zM577 222v-202h78v202h-78zM463 -75v393h305v-393h-305zM890 650v-108h-122v-186h-132v479h132v-185h122z " />
<glyph unicode="&#xb0a8;" d="M564 507l15 -106q-195 -39 -421 -39h-78v430h132v-320q189 3 352 35zM298 171v-143h341v143h-341zM168 -75v349h600v-349h-600zM890 641v-108h-122v-216h-132v518h132v-194h122z" />
<glyph unicode="&#xb0a9;" d="M564 523l15 -106q-195 -39 -421 -39h-78v418h132v-309q183 3 352 36zM637 29v85h-342v-85h342zM637 216v92h131v-384h-604v384h131v-92h342zM890 647v-108h-122v-187h-132v483h132v-188h122z" />
<glyph unicode="&#xb0ab;" d="M564 484l15 -105q-195 -39 -421 -39h-78v432h132v-322q187 3 352 34zM541 277v-25q0 -83 73 -147.5t214 -85.5l-50 -101q-214 32 -303 170q-88 -137 -303 -170l-50 101q140 21 213.5 86t73.5 147v25h132zM768 603h122v-108h-122v-265h-132v606h132v-233z" />
<glyph unicode="&#xb0ac;" d="M564 516l15 -106q-195 -39 -421 -39h-78v411h132v-301q189 3 352 35zM703 290v-43q0 -78 42 -138.5t128 -88.5l-65 -96q-122 43 -172 158q-50 -121 -166 -167q-118 44 -168 163q-50 -111 -169 -154l-65 96q86 30 128 91.5t42 135.5v43h128v-43q0 -132 102 -205 q53 39 79 94t26 111v43h130zM768 639h122v-108h-122v-205h-132v509h132v-196z" />
<glyph unicode="&#xb0ad;" d="M564 497l15 -106q-195 -39 -421 -39h-78v431h132v-322q183 3 352 36zM465 17q182 0 182 82t-182 82t-182 -82t182 -82zM465 286q142 0 227.5 -50.5t85.5 -136.5t-85.5 -136.5t-227.5 -50.5t-227.5 50.5t-85.5 136.5t85.5 136.5t227.5 50.5zM769 623h121v-108h-121v-217 h-132v537h132v-212z" />
<glyph unicode="&#xb0ae;" d="M564 519l15 -105q-195 -39 -421 -39h-78v417h132v-307q195 4 352 34zM780 188h-236q12 -58 83 -105.5t192 -63.5l-49 -99q-212 28 -298 155q-84 -125 -299 -154l-48 100q123 14 193 60.5t81 106.5h-236v104h617v-104zM768 635h122v-109h-122v-195h-132v505h132v-201z" />
<glyph unicode="&#xb0af;" d="M561 547l15 -107q-190 -38 -418 -38h-78v386h132v-277q182 3 349 36zM782 170h-243q11 -56 82 -99.5t196 -54.5l-43 -99q-217 24 -304 140q-89 -117 -304 -140l-44 99q125 11 196 54.5t82 99.5h-245v102h249v89h132v-89h246v-102zM768 647h122v-108h-122v-203h-132v500 h132v-189z" />
<glyph unicode="&#xb0b1;" d="M561 533l15 -109q-194 -39 -418 -39h-78v405h132v-293q182 3 349 36zM297 76v-54h494v-97h-626v392h607v-96h-475v-53h465v-92h-465zM768 649h122v-109h-122v-186h-132v482h132v-187z" />
<glyph unicode="&#xb0b3;" d="M561 571l15 -106q-195 -39 -418 -39h-78v367h132v-257q194 4 349 35zM467 7q123 0 123 45t-123 45t-123 -45t123 -45zM467 191q122 0 192 -36.5t70 -102.5q0 -65 -70 -101.5t-192 -36.5t-192 36.5t-70 101.5q0 66 70 102.5t192 36.5zM534 394v-76h257v-99h-647v99h257v76 h133zM768 663h122v-107h-122v-192h-132v472h132v-173z" />
<glyph unicode="&#xb0b4;" d="M211 733v-481q126 4 239 24l11 -111q-147 -27 -318 -27h-64v595h132zM706 836h126v-921h-126v459h-83v-416h-123v861h123v-338h83v355z" />
<glyph unicode="&#xb0b5;" d="M449 491l12 -106q-133 -27 -319 -27h-63v416h132v-309q126 3 238 26zM194 155v106h634v-349h-132v243h-502zM703 834h125v-534h-125v213h-78v-207h-123v512h123v-199h78v215z" />
<glyph unicode="&#xb0b8;" d="M625 472v-292h-123v639h123v-241h78v257h125v-680h-125v317h-78zM450 452l11 -106q-129 -26 -319 -26h-63v438h132v-331q133 3 239 25zM336 38h515v-105h-647v308h132v-203z" />
<glyph unicode="&#xb0bc;" d="M625 546v-175h-123v447h123v-167h78v183h125v-466h-125v178h-78zM447 528l11 -105q-130 -25 -317 -25h-61v387h131v-279q121 2 236 22zM336 27h521v-103h-653v256h492v53h-494v102h626v-250h-492v-58z" />
<glyph unicode="&#xb0c4;" d="M449 497l12 -105q-131 -25 -319 -25h-63v409h132v-302q127 3 238 23zM331 176v-148h368v148h-368zM201 -76v355h627v-355h-627zM703 834h125v-516h-125v198h-79v-193h-123v495h123v-196h79v212z" />
<glyph unicode="&#xb0c5;" d="M449 510l13 -105q-132 -25 -320 -25h-62v398h131v-291q127 3 238 23zM698 30v80h-365v-80h365zM698 210v86h130v-371h-626v371h131v-86h365zM703 835h125v-500h-125v190h-79v-181h-122v474h122v-187h79v204z" />
<glyph unicode="&#xb0c7;" d="M624 503v-185h-122v501h122v-210h79v226h125v-596h-125v264h-79zM444 464l14 -100q-126 -34 -318 -34h-61v424h132v-322q130 5 233 32zM579 275v-26q0 -79 76.5 -144.5t217.5 -84.5l-50 -103q-219 33 -310 172q-91 -140 -309 -172l-50 103q141 19 217 84.5t76 144.5v26 h132z" />
<glyph unicode="&#xb0c8;" d="M622 518v-198h-123v498h123v-195h81v212h125v-523h-125v206h-81zM445 494l13 -107q-134 -26 -316 -26h-62v409h131v-300q121 3 234 24zM728 282v-40q0 -77 42.5 -138t128.5 -87l-64 -96q-125 44 -174 156q-52 -119 -167 -165q-117 44 -167 162q-52 -110 -170 -153l-65 96 q86 29 128.5 90t42.5 135v40h128v-40q0 -131 101 -203q54 39 80 93.5t26 109.5v40h130z" />
<glyph unicode="&#xb0c9;" d="M622 507v-191h-123v503h123v-206h81v222h125v-550h-125v222h-81zM451 478l12 -107q-134 -27 -321 -27h-62v419h131v-310q125 3 240 25zM515 16q185 0 185 79t-185 79t-185 -79t185 -79zM515 277q145 0 231 -49t86 -133t-86 -133t-231 -49t-231 49t-86 133t86 133t231 49z " />
<glyph unicode="&#xb0d0;" d="M203 747v-497q201 5 370 38l13 -110q-196 -41 -434 -41h-81v610h132zM886 511h-122v-159h122v-108h-122v-328h-132v919h132v-216h122v-108z" />
<glyph unicode="&#xb0d1;" d="M564 495l15 -106q-189 -39 -421 -39h-78v433h132v-324q183 3 352 36zM160 157v105h608v-349h-132v244h-476zM887 616h-119v-90h119v-108h-119v-113h-132v531h132v-112h119v-108z" />
<glyph unicode="&#xb0d4;" d="M565 468l16 -106q-195 -40 -422 -40h-79v451h132v-341q192 3 353 36zM307 234v-199h491v-105h-623v304h132zM887 579h-119v-116h119v-107h-119v-183h-132v661h132v-147h119v-108z" />
<glyph unicode="&#xb0d8;" d="M561 550l15 -106q-195 -39 -418 -39h-78v390h132v-280q187 3 349 35zM293 88v-60h501v-103h-633v260h475v54h-476v104h608v-255h-475zM889 640h-121v-68h121v-105h-121v-87h-132v456h132v-91h121v-105z" />
<glyph unicode="&#xb0e0;" d="M564 507l15 -106q-195 -39 -421 -39h-78v430h132v-320q189 3 352 35zM298 171v-143h341v143h-341zM168 -75v349h600v-349h-600zM888 617h-120v-86h120v-107h-120v-107h-132v518h132v-110h120v-108z" />
<glyph unicode="&#xb0e5;" d="M564 497l14 -106q-194 -39 -420 -39h-78v431h132v-322q183 3 352 36zM465 17q182 0 182 82t-182 82t-182 -82t182 -82zM465 286q142 0 227.5 -50.5t85.5 -136.5t-85.5 -136.5t-227.5 -50.5t-227.5 50.5t-85.5 136.5t85.5 136.5t227.5 50.5zM888 611h-119v-90h119v-107 h-119v-115h-132v536h132v-117h119v-107z" />
<glyph unicode="&#xb108;" d="M221 737v-499q189 3 357 36l15 -108q-189 -38 -425 -38h-78v609h131zM684 836h132v-925h-132v533h-248v107h248v285z" />
<glyph unicode="&#xb109;" d="M574 481l15 -109q-185 -37 -419 -37h-77v451h131v-341q194 5 350 36zM185 147v105h628v-339h-132v234h-496zM681 836h132v-543h-132v280h-223v107h223v156z" />
<glyph unicode="&#xb10b;" d="M681 323v265h-223v107h223v141h132v-513h-132zM572 500l16 -109q-181 -36 -418 -36h-77v433h131v-323q192 5 348 35zM141 174v105h308v-358h-129v253h-179zM740 290v-67q0 -72 36.5 -127t113.5 -82l-66 -100q-102 37 -149 132q-49 -96 -151 -133l-66 101q77 27 114 82 t37 127v67h131z" />
<glyph unicode="&#xb10c;" d="M681 176v372h-224v107h224v179h132v-658h-132zM572 448l17 -109q-180 -36 -419 -36h-77v469h131v-359q192 5 348 35zM338 35h496v-105h-628v298h132v-193z" />
<glyph unicode="&#xb110;" d="M681 370v232h-223v105h223v129h132v-466h-132zM573 531l17 -106q-186 -35 -419 -35h-78v408h131v-299q182 3 349 32zM339 28h497v-103h-629v256h474v51h-475v103h607v-251h-474v-56z" />
<glyph unicode="&#xb112;" d="M573 513l17 -106q-185 -35 -419 -35h-78v424h131v-315q182 3 349 32zM279 76v-55q117 1 191 15l12 -97q-81 -15 -276 -15h-55v243h180v49h-181v96h309v-236h-180zM615 217v-199h84v199h-84zM502 -77v389h311v-389h-311zM681 836h132v-486h-132v244h-223v105h223v137z" />
<glyph unicode="&#xb113;" d="M574 520l16 -107q-192 -35 -419 -35h-78v417h131v-308q184 3 350 33zM279 77v-56q117 1 192 15l11 -97q-81 -15 -276 -15h-55v244h180v49h-181v96h309v-236h-180zM696 24v102h-76v-102h76zM696 223v98h117v-397h-310v397h117v-98h76zM681 836h132v-481h-132v245h-223v105 h223v131z" />
<glyph unicode="&#xb118;" d="M574 488l15 -109q-185 -37 -419 -37h-77v445h131v-335q194 5 350 36zM331 167v-139h353v139h-353zM202 -75v345h611v-345h-611zM681 836h132v-526h-132v265h-223v107h223v154z" />
<glyph unicode="&#xb119;" d="M574 510l15 -109q-185 -37 -419 -37h-77v426h131v-316q194 5 350 36zM683 30v79h-353v-79h353zM683 210v88h130v-373h-614v373h131v-88h353zM681 836h132v-503h-132v252h-223v107h223v144z" />
<glyph unicode="&#xb11b;" d="M681 221v340h-225v107h225v168h132v-615h-132zM575 472l14 -109q-178 -37 -419 -37h-77v458h131v-348q195 5 351 36zM569 276v-28q0 -80 74 -144t214 -85l-51 -101q-215 33 -303 169q-88 -137 -304 -169l-51 101q141 21 215.5 84.5t74.5 144.5v28h131z" />
<glyph unicode="&#xb11c;" d="M679 314v263h-222v107h222v152h132v-522h-132zM572 496l16 -108q-180 -37 -418 -37h-77v433h131v-323q192 5 348 35zM727 287v-38q0 -78 42 -139t129 -89l-66 -95q-122 42 -172 157q-50 -121 -167 -167q-116 44 -167 164q-52 -113 -170 -154l-66 95q86 30 129 92t43 136 v38h128v-38q0 -132 102 -206q53 40 79 95t26 111v38h130z" />
<glyph unicode="&#xb11d;" d="M681 293v280h-223v107h223v156h132v-543h-132zM574 489l15 -109q-179 -37 -419 -37h-77v435h131v-325q194 5 350 36zM502 14q183 0 183 82t-183 82q-184 0 -184 -82t184 -82zM502 279q146 0 230.5 -48.5t84.5 -134.5t-84.5 -135t-230.5 -49q-147 0 -231.5 49t-84.5 135 t84.5 134.5t231.5 48.5z" />
<glyph unicode="&#xb123;" d="M681 358v258h-227v105h227v114h132v-477h-132zM574 558l15 -106q-184 -35 -419 -35h-77v373h132v-264q180 3 349 32zM497 6q132 0 132 45t-132 45t-132 -45t132 -45zM497 189q123 0 193 -36t70 -102t-70 -102t-193 -36t-193 36.5t-70 101.5t70 101.5t193 36.5zM563 313 h266v-99h-663v99h265v76h132v-76z" />
<glyph unicode="&#xb124;" d="M208 747v-500q135 3 245 24l16 -110q-129 -27 -326 -27h-64v613h129zM515 545v275h123v-865h-123v483h-181v107h181zM710 836h125v-921h-125v921z" />
<glyph unicode="&#xb125;" d="M521 298v256h-161v105h161v158h123v-519h-123zM457 462l14 -104q-132 -29 -323 -29h-62v441h129v-333q127 3 242 25zM199 146v105h635v-338h-132v233h-503zM709 835h125v-544h-125v544z" />
<glyph unicode="&#xb128;" d="M834 835v-676h-125v676h125zM521 180v349h-161v106h161v182h123v-637h-123zM457 431l15 -105q-126 -25 -324 -25h-62v459h129v-352q128 2 242 23zM349 36h509v-107h-642v307h133v-200z" />
<glyph unicode="&#xb12c;" d="M834 835v-472h-125v472h125zM521 368v223h-161v104h161v123h123v-450h-123zM460 521l14 -105q-128 -25 -325 -25h-63v393h129v-286q128 2 245 23zM343 26h520v-101h-652v253h491v51h-493v102h625v-248h-491v-57z" />
<glyph unicode="&#xb134;" d="M521 318v249h-161v106h161v145h123v-500h-123zM455 484l14 -105q-128 -24 -321 -24h-62v425h129v-318q132 2 240 22zM344 171v-143h361v143h-361zM214 -75v350h620v-350h-620zM709 835h125v-523h-125v523z" />
<glyph unicode="&#xb135;" d="M521 337v239h-161v105h161v138h123v-482h-123zM458 495l16 -105q-132 -29 -325 -29h-63v421h129v-314q133 3 243 27zM704 30v75h-358v-75h358zM704 206v88h130v-369h-619v369h131v-88h358zM709 835h125v-505h-125v505z" />
<glyph unicode="&#xb137;" d="M834 835v-620h-125v620h125zM521 296v239h-161v106h161v178h123v-523h-123zM453 449l12 -106q-134 -31 -317 -31h-62v443h129v-336q131 5 238 30zM579 259v-25q0 -75 75.5 -136.5t217.5 -78.5l-49 -102q-219 31 -310 164q-91 -133 -312 -164l-47 102q142 17 217.5 78.5 t75.5 136.5v25h132z" />
<glyph unicode="&#xb138;" d="M835 835v-529h-125v529h125zM521 316v246h-161v106h161v150h123v-502h-123zM453 482l16 -105q-134 -28 -321 -28h-62v430h129v-323q128 3 238 26zM728 277v-31q0 -76 42 -136.5t129 -87.5l-64 -96q-126 43 -175 157q-53 -121 -166 -166q-117 44 -167 162 q-52 -110 -171 -153l-65 96q86 30 129 91t43 133v31h128v-31q0 -129 101 -202q53 40 79.5 93.5t26.5 108.5v31h130z" />
<glyph unicode="&#xb139;" d="M834 834v-556h-125v556h125zM521 309v237h-161v106h161v166h123v-509h-123zM455 456l14 -106q-128 -24 -321 -24h-62v440h129v-333q126 2 240 23zM520 16q185 0 185 76q0 77 -185 77q-184 0 -184 -77q0 -76 184 -76zM520 271q144 0 230.5 -48.5t86.5 -130.5 q0 -81 -86.5 -129.5t-230.5 -48.5q-143 0 -229.5 48.5t-86.5 129.5q0 82 86.5 130.5t229.5 48.5z" />
<glyph unicode="&#xb140;" d="M221 741v-521q201 3 333 29l13 -109q-157 -30 -402 -30h-75v631h131zM684 836h132v-925h-132v419h-244v107h244v100h-244v107h244v192z" />
<glyph unicode="&#xb141;" d="M539 445l17 -107q-153 -29 -390 -29h-73v477h131v-369q186 3 315 28zM182 140v106h631v-333h-132v227h-499zM681 836h132v-550h-132v195h-219v100h219v62h-219v100h219v93z" />
<glyph unicode="&#xb144;" d="M681 158v299h-223v104h223v68h-223v104h223v102h132v-677h-132zM550 413l13 -107q-163 -30 -396 -30h-74v501h131v-393q181 3 326 29zM338 35h496v-105h-628v288h132v-183z" />
<glyph unicode="&#xb148;" d="M681 357v166h-218v100h218v49h-218v100h218v64h132v-479h-132zM543 496l13 -106q-135 -23 -390 -23h-73v436h131v-330q192 1 319 23zM339 27h493v-102h-625v248h474v49h-475v101h607v-244h-474v-52z" />
<glyph unicode="&#xb150;" d="M537 450l16 -105q-157 -28 -385 -28h-72v479h132v-373q171 3 309 27zM334 156v-128h349v128h-349zM204 -75v334h609v-334h-609zM681 835h132v-538h-132v195h-219v99h219v62h-219v100h219v82z" />
<glyph unicode="&#xb151;" d="M548 470l11 -106q-151 -25 -390 -25h-73v462h132v-355q188 2 320 24zM682 29v78h-344v-78h344zM682 208v82h131v-365h-605v365h130v-82h344zM681 836h132v-509h-132v177h-219v100h219v56h-219v100h219v76z" />
<glyph unicode="&#xb154;" d="M679 306v192h-217v99h217v60h-217v100h217v79h132v-530h-132zM541 457l12 -105q-155 -26 -385 -26h-72v462h132v-356q183 3 313 25zM727 276v-27q0 -78 42 -139t129 -89l-66 -95q-122 43 -172 157q-53 -120 -167 -165q-118 44 -167 163q-52 -112 -170 -155l-65 95 q85 31 128 93t43 135v27h128v-27q0 -133 102 -204q52 38 78 93t26 111v27h131z" />
<glyph unicode="&#xb155;" d="M681 283v211h-219v100h219v59h-219v100h219v82h132v-552h-132zM564 455l14 -105q-151 -30 -407 -30h-75v468h132v-361q202 3 336 28zM502 15q183 0 183 76q0 77 -183 77q-184 0 -184 -77q0 -76 184 -76zM502 271q147 0 231 -47.5t84 -132.5q0 -84 -84 -131.5t-231 -47.5 t-231.5 47.5t-84.5 131.5q0 85 84 132.5t232 47.5z" />
<glyph unicode="&#xb158;" d="M536 468l15 -104q-149 -29 -383 -29h-72v454h132v-347q183 3 308 26zM184 176v104h629v-366h-132v114l-502 -27l-12 101l514 18v56h-497zM681 836h132v-517h-132v185h-219v99h219v57h-219v99h219v77z" />
<glyph unicode="&#xb15c;" d="M208 733v-489q129 2 240 23l14 -111q-130 -26 -320 -26h-63v603h129zM515 648v172h123v-866h-123v391h-159v107h159v89h-159v107h159zM710 836h125v-921h-125v921z" />
<glyph unicode="&#xb160;" d="M834 835v-686h-125v686h125zM521 169v271h-152v102h152v64h-152v102h152v110h123v-649h-123zM446 399l16 -104q-115 -24 -314 -24h-62v486h129v-380q130 3 231 22zM349 35h509v-105h-642v285h133v-180z" />
<glyph unicode="&#xb178;" d="M526 124h351v-107h-834v107h351v210h-257v431h132v-326h520v-105h-263v-210z" />
<glyph unicode="&#xb179;" d="M137 125v106h638v-318h-132v212h-506zM525 406h352v-105h-833v105h349v98h-247v317h132v-212h507v-105h-260v-98z" />
<glyph unicode="&#xb17c;" d="M273 212v-177h518v-105h-650v282h132zM527 373h350v-105h-833v105h351v110h-248v326h132v-221h504v-105h-256v-110z" />
<glyph unicode="&#xb180;" d="M271 81v-57h534v-100h-667v249h508v50h-509v99h642v-241h-508zM527 479h350v-104h-834v104h352v71h-249v276h132v-172h503v-104h-254v-71z" />
<glyph unicode="&#xb182;" d="M252 74v-54q127 0 193 13l9 -95q-72 -14 -271 -14h-54v237h177v47h-178v94h301v-228h-177zM588 206v-186h83v186h-83zM477 -76v378h306v-378h-306zM527 457h350v-104h-834v104h352v75h-249v290h132v-186h503v-104h-254v-75z" />
<glyph unicode="&#xb188;" d="M276 146v-118h370v118h-370zM146 -76v325h629v-325h-629zM526 416h351v-105h-833v105h350v90h-246v316h132v-212h504v-104h-258v-90z" />
<glyph unicode="&#xb189;" d="M642 30v74h-362v-74h362zM642 205v76h131v-356h-624v356h131v-76h362zM526 434h351v-105h-833v105h350v84h-246v307h132v-203h504v-104h-258v-84z" />
<glyph unicode="&#xb18b;" d="M528 256v-17q0 -79 75 -140.5t219 -78.5l-49 -103q-222 31 -312 167q-90 -136 -312 -166l-50 102q145 18 220 79t75 140v17h134zM528 409h349v-105h-833v105h352v92h-248v319h132v-214h496v-105h-248v-92z" />
<glyph unicode="&#xb18d;" d="M457 15q186 0 186 70t-186 70t-186 -70t186 -70zM457 256q150 0 235 -45t85 -126t-85 -126.5t-235 -45.5t-234.5 45.5t-84.5 126.5t84.5 126t234.5 45zM526 409h351v-104h-833v104h350v92h-246v318h132v-213h504v-105h-258v-92z" />
<glyph unicode="&#xb192;" d="M386 173v-145h148v145h-148zM663 173v-145h134v-103h-674v103h133v145h-124v104h656v-104h-125zM525 444h351v-105h-832v105h349v79h-245v294h132v-190h507v-104h-262v-79z" />
<glyph unicode="&#xb193;" d="M457 2q142 0 142 37q0 38 -142 38q-141 0 -141 -38q0 -37 141 -37zM457 165q135 0 208.5 -32.5t73.5 -93.5t-73.5 -93.5t-208.5 -32.5q-134 0 -207 32.5t-73 93.5t73 93.5t207 32.5zM524 354v-64h275v-99h-681v99h274v64h132zM530 486h348v-104h-835v104h355v64h-249v270 h132v-168h507v-102h-258v-64z" />
<glyph unicode="&#xb194;" d="M393 376v-171q97 4 199 14l8 -94q-205 -32 -553 -30l-16 105q148 0 229 1v175h-171v380h132v-275h342v-105h-170zM890 468v-109h-115v-444h-132v921h132v-368h115z" />
<glyph unicode="&#xb198;" d="M600 389l9 -92q-205 -42 -568 -42l-12 105q144 0 225 2v111h-157v308h132v-204h317v-104h-160v-105q133 9 214 21zM296 198v-163h511v-105h-643v268h132zM779 557h111v-109h-111v-304h-132v690h132v-277z" />
<glyph unicode="&#xb19c;" d="M603 486l8 -91q-204 -32 -568 -32l-11 102q140 0 215 1v77h-153v260h133v-155h323v-105h-171v-73q126 5 224 16zM283 74v-54h523v-99h-656v245h498v49h-499v98h631v-239h-497zM780 642h110v-108h-110v-185h-132v487h132v-194z" />
<glyph unicode="&#xb1a8;" d="M604 443l8 -90q-206 -40 -564 -42l-13 102q137 0 214 3v87h-156v284h132v-179h325v-105h-169v-81q132 7 223 21zM695 258v-19q0 -75 41.5 -132.5t128.5 -83.5l-64 -95q-124 40 -173 150q-50 -116 -168 -161q-116 43 -166 159q-52 -108 -172 -148l-63 95q86 29 128.5 86.5 t42.5 129.5v19h127v-20q0 -124 103 -196q53 37 78.5 89t25.5 107v20h131zM779 613h111v-108h-111v-212h-132v542h132v-222z" />
<glyph unicode="&#xb1cc;" d="M415 375v-165q113 6 217 18l7 -97q-220 -36 -580 -34l-14 107q154 0 237 2v169h-173v381h132v-276h350v-105h-176zM683 836h132v-921h-132v921z" />
<glyph unicode="&#xb1d0;" d="M809 834v-679h-132v679h132zM626 392l7 -93q-213 -33 -576 -33l-14 104q113 0 236 3v109h-160v295h133v-191h322v-104h-163v-105q132 5 215 15zM312 35h514v-105h-646v281h132v-176z" />
<glyph unicode="&#xb1d4;" d="M807 835v-475h-133v475h133zM627 497l7 -91q-231 -34 -580 -34l-14 102q160 0 245 2v77h-165v252h132v-148h327v-104h-162v-73q126 7 210 17zM315 23h513v-102h-646v252h492v49h-493v101h626v-245h-492v-55z" />
<glyph unicode="&#xb1dc;" d="M627 445l8 -94q-213 -39 -579 -41l-15 105q154 0 239 3v94h-163v283h133v-179h324v-104h-162v-88q133 9 215 21zM315 144v-116h365v116h-365zM186 -75v322h623v-322h-623zM677 835h132v-552h-132v552z" />
<glyph unicode="&#xb1dd;" d="M626 459l6 -93q-222 -37 -578 -37l-14 104q116 0 240 3v86h-163v277h133v-173h324v-104h-162v-80q144 8 214 17zM679 27v73h-361v-73h361zM679 199v81h130v-355h-622v355h131v-81h361zM677 835h132v-516h-132v516z" />
<glyph unicode="&#xb1df;" d="M809 835v-631h-132v631h132zM624 414l6 -93q-222 -33 -574 -33l-15 104q115 0 239 3v108h-164v281h134v-178h324v-103h-162v-103q101 4 212 14zM561 248v-17q0 -75 74 -134.5t216 -77.5l-49 -103q-220 31 -308 161q-90 -130 -310 -161l-49 103q143 18 217 77.5t74 134.5 v17h135z" />
<glyph unicode="&#xb1e8;" d="M383 331v-198h155v198h-155zM669 133h209v-107h-836v107h209v198h-117v426h132v-321h522v-105h-119v-198z" />
<glyph unicode="&#xb1e9;" d="M137 128v105h638v-319h-132v214h-506zM378 505v-100h160v100h-160zM670 405h207v-105h-833v105h202v100h-101v317h132v-211h507v-106h-114v-100z" />
<glyph unicode="&#xb1ec;" d="M273 213v-178h518v-105h-650v283h132zM382 485v-113h157v113h-157zM670 372h208v-105h-835v105h207v113h-103v324h132v-219h505v-105h-114v-113z" />
<glyph unicode="&#xb1f0;" d="M271 76v-56h534v-99h-667v247h508v51h-509v99h642v-242h-508zM381 548v-75h157v75h-157zM670 473h207v-104h-835v104h207v75h-103v278h132v-174h504v-104h-112v-75z" />
<glyph unicode="&#xb1f9;" d="M642 29v75h-362v-75h362zM642 205v76h131v-357h-624v357h131v-76h362zM379 520v-86h161v86h-161zM671 434h206v-105h-833v105h203v86h-99v305h132v-201h505v-104h-114v-86z" />
<glyph unicode="&#xb1fb;" d="M528 253v-17q0 -78 75 -139t219 -78l-48 -102q-225 30 -314 165q-87 -135 -313 -165l-48 102q144 18 219 78.5t75 138.5v17h135zM380 504v-97h159v97h-159zM670 407h208v-105h-835v105h206v97h-101v317h132v-212h497v-105h-107v-97z" />
<glyph unicode="&#xb1fd;" d="M457 15q186 0 186 71q0 70 -186 70t-186 -70q0 -71 186 -71zM457 257q150 0 235 -45t85 -126t-85 -126.5t-235 -45.5t-234.5 45.5t-84.5 126.5t84.5 126t234.5 45zM379 503v-94h161v94h-161zM672 409h206v-105h-834v105h203v94h-99v316h132v-212h505v-104h-113v-94z" />
<glyph unicode="&#xb204;" d="M790 548v-105h-643v351h132v-246h511zM877 339v-107h-355v-319h-132v319h-347v107h834z" />
<glyph unicode="&#xb205;" d="M785 609v-105h-639v317h132v-212h507zM877 326h-352v-98h250v-318h-132v213h-506v105h256v98h-349v105h833v-105z" />
<glyph unicode="&#xb208;" d="M785 587v-104h-635v327h132v-223h503zM273 207v-173h518v-104h-650v277h132zM44 403h834v-105h-341v-161h-132v161h-361v105z" />
<glyph unicode="&#xb20b;" d="M784 609v-105h-636v316h135v-211h501zM877 333h-350v-90h251v-105h-510v-109h519v-104h-650v318h258v90h-351v105h833v-105z" />
<glyph unicode="&#xb20c;" d="M781 650v-104h-635v280h132v-176h503zM877 388h-354v-70h256v-242h-508v-56h534v-99h-667v247h508v51h-509v99h255v70h-349v104h834v-104z" />
<glyph unicode="&#xb214;" d="M784 610v-104h-636v316h132v-212h504zM646 28v118h-370v-118h370zM877 331h-354v-82h252v-324h-629v324h245v82h-347v105h833v-105z" />
<glyph unicode="&#xb215;" d="M784 622v-104h-636v307h132v-203h504zM642 29v70h-362v-70h362zM642 201v85h131v-362h-624v362h131v-85h362zM44 452h833v-105h-352v-106h-132v106h-349v105z" />
<glyph unicode="&#xb217;" d="M785 620v-105h-635v303h132v-198h503zM525 219v-20q0 -65 74.5 -116.5t218.5 -65.5l-45 -100q-229 25 -317 147q-92 -124 -315 -147l-44 100q140 14 216 67t76 115v20h136zM43 451h834v-105h-353v-90h-132v90h-349v105z" />
<glyph unicode="&#xb219;" d="M784 606v-105h-636v318h132v-213h504zM643 85q0 70 -186 70t-186 -70t186 -70t186 70zM877 328h-352v-75q120 -10 186 -53.5t66 -114.5q0 -81 -85 -126t-235 -45t-234.5 45t-84.5 126q0 71 67 115t188 54v74h-349v104h833v-104z" />
<glyph unicode="&#xb220;" d="M570 579v-105h-453v317h132v-212h321zM618 403l8 -97q-114 -14 -228 -21v-343h-132v337q-76 -2 -217 -2l-16 107q384 0 585 19zM686 835h132v-920h-132v208h-186v102h186v610z" />
<glyph unicode="&#xb234;" d="M511 394h175v442h132v-566h-132v34h-175v90zM557 672v-102h-438v250h132v-148h306zM252 276v133q-95 -4 -199 -4l-15 102q378 0 586 30l9 -91q-106 -20 -249 -30v-140h-132zM726 237v-14q0 -70 42.5 -124t129.5 -77l-62 -95q-125 37 -177 145q-50 -113 -167 -155 q-119 41 -167 152q-53 -105 -176 -142l-62 95q87 26 130 80t43 121v14h128v-14q0 -116 102 -184q105 70 105 184v14h131z" />
<glyph unicode="&#xb23c;" d="M463 585v-105h-374v287h132v-182h242zM493 424l9 -95q-75 -16 -171 -24v-319h-124v310q-75 -5 -163 -5l-14 108q287 0 463 25zM540 256v564h123v-864h-123v201h-147v99h147zM723 836h125v-921h-125v921z" />
<glyph unicode="&#xb258;" d="M576 564v-105h-456v318h132v-213h324zM632 383l8 -96q-99 -17 -233 -27v-319h-132v312q-78 -3 -219 -3l-17 107q400 2 593 26zM687 835h132v-920h-132v920z" />
<glyph unicode="&#xb25c;" d="M810 836v-691h-132v691h132zM567 598v-104h-438v289h133v-185h305zM295 35h537v-105h-668v276h129v108q-79 -4 -235 -6l-16 107q366 2 585 24l6 -96q-80 -12 -209 -21v-150h-129v-137z" />
<glyph unicode="&#xb260;" d="M810 835v-484h-132v484h132zM566 658v-102h-440v250h132v-148h308zM318 20h513v-99h-645v245h491v49h-493v99h99v86q-132 -5 -225 -5l-15 102q355 0 586 23l7 -90q-125 -16 -221 -22v-94h395v-240h-492v-54z" />
<glyph unicode="&#xb268;" d="M567 616v-104h-441v281h132v-177h309zM681 29v105h-365v-105h365zM415 346v-108h394v-313h-623v313h97v100q-133 -5 -225 -5l-16 105q386 2 585 29l8 -94q-107 -19 -220 -27zM678 836h132v-557h-132v557z" />
<glyph unicode="&#xb269;" d="M568 641v-104h-442v262h132v-158h310zM680 27v66h-373v-66h373zM680 192v78h130v-345h-634v345h118v101q-105 -5 -232 -5l-16 101q369 0 581 29l8 -90q-93 -18 -210 -26v-129h-118v-59h373zM678 836h132v-526h-132v526z" />
<glyph unicode="&#xb274;" d="M783 545v-105h-639v353h132v-248h507zM876 339v-107h-190v-319h-132v319h-190v-319h-131v319h-189v107h832z" />
<glyph unicode="&#xb275;" d="M784 596v-105h-636v319h132v-214h504zM540 218v101h-163v-101h163zM878 319h-206v-101h105v-308h-132v204h-519v104h120v101h-202v104h834v-104z" />
<glyph unicode="&#xb27c;" d="M781 650v-103h-635v279h132v-176h503zM541 318v72h-163v-72h163zM877 390h-205v-72h107v-242h-508v-56h534v-99h-667v247h508v51h-509v99h109v72h-203v105h834v-105z" />
<glyph unicode="&#xb284;" d="M784 617v-104h-636v304h132v-200h504zM541 247v93h-162v-93h162zM648 28v116h-375v-116h375zM877 340h-205v-93h106v-322h-634v322h103v93h-203v104h833v-104z" />
<glyph unicode="&#xb285;" d="M785 629v-104h-635v295h132v-191h503zM641 242h-118v118h-127v-118h-119v-55h364v55zM641 28v60h-364v-60h364zM877 360h-223v-89h124v-348h-638v348h124v89h-220v104h833v-104z" />
<glyph unicode="&#xb289;" d="M784 607v-104h-636v316h132v-212h504zM563 249v81h-212v-81q45 7 106 7t106 -7zM457 15q186 0 186 70t-186 70t-186 -70t186 -70zM877 330h-182v-121q82 -45 82 -124q0 -81 -85 -126t-235 -45t-234.5 45t-84.5 126q0 80 82 125v120h-176v104h833v-104z" />
<glyph unicode="&#xb290;" d="M788 427v-106h-652v433h132v-327h520zM43 131h834v-108h-834v108z" />
<glyph unicode="&#xb291;" d="M785 603v-104h-638v321h134v-217h504zM133 127v105h644v-322h-134v217h-510zM44 424h833v-103h-833v103z" />
<glyph unicode="&#xb294;" d="M785 586v-105h-639v321h132v-216h507zM270 208v-169h520v-106h-653v275h133zM43 387h834v-106h-834v106z" />
<glyph unicode="&#xb298;" d="M781 650v-104h-635v280h132v-176h503zM271 82v-58h534v-99h-667v250h508v52h-509v99h642v-244h-508zM43 487h834v-104h-834v104z" />
<glyph unicode="&#xb299;" d="M784 634v-104h-636v293h132v-189h504zM257 78v-57q170 1 242 19l13 -96q-53 -12 -115.5 -15.5t-206.5 -3.5h-60v244h181v50h-183v98h310v-239h-181zM483 211v106h299v-395h-130v289h-169zM43 474h834v-105h-834v105z" />
<glyph unicode="&#xb29a;" d="M784 638v-103h-636v288h134v-185h502zM252 79v-59q127 1 191 14l8 -95q-71 -14 -268 -14h-53v242h177v50h-179v95h302v-233h-178zM590 216v-196h84v196h-84zM479 -75v387h306v-387h-306zM43 474h834v-107h-834v107z" />
<glyph unicode="&#xb2a0;" d="M784 610v-104h-636v316h132v-212h504zM276 146v-118h370v118h-370zM146 -75v324h629v-324h-629zM44 431h833v-105h-833v105z" />
<glyph unicode="&#xb2a1;" d="M784 620v-104h-636v309h132v-205h504zM642 29v75h-362v-75h362zM642 205v76h131v-357h-624v357h131v-76h362zM44 442h833v-105h-833v105z" />
<glyph unicode="&#xb2a3;" d="M776 606v-105h-628v319h132v-214h496zM528 262v-18q0 -79 75 -140.5t219 -79.5l-49 -102q-221 31 -312 167q-91 -136 -312 -167l-50 103q145 17 220 78.5t75 140.5v18h134zM44 422h833v-106h-833v106z" />
<glyph unicode="&#xb2a5;" d="M784 606v-105h-636v318h132v-213h504zM457 17q186 0 186 70t-186 70t-186 -70t186 -70zM457 258q150 0 235 -45t85 -126t-85 -126t-235 -45t-234.5 45t-84.5 126t84.5 126t234.5 45zM44 423h833v-105h-833v105z" />
<glyph unicode="&#xb2a6;" d="M785 605v-104h-633v310h132v-206h501zM782 161h-245q22 -54 93.5 -93t187.5 -51l-48 -100q-226 27 -311 152q-89 -125 -312 -152l-48 100q117 12 188 51t93 93h-244v104h646v-104zM43 436h834v-105h-834v105z" />
<glyph unicode="&#xb2aa;" d="M781 618v-105h-632v300h132v-195h500zM386 176v-148h148v148h-148zM663 176v-148h134v-103h-675v103h134v148h-124v104h656v-104h-125zM44 450h832v-105h-832v105z" />
<glyph unicode="&#xb2ac;" d="M586 502v-105h-474v360h132v-255h342zM57 122l-14 107q379 0 590 24l7 -97q-211 -34 -583 -34zM687 836h132v-922h-132v922z" />
<glyph unicode="&#xb2b0;" d="M812 834v-672h-132v672h132zM572 587v-104h-452v304h132v-200h320zM627 412l6 -94q-215 -33 -577 -33l-14 105q376 0 585 22zM321 35h511v-105h-643v282h132v-177z" />
<glyph unicode="&#xb2b4;" d="M807 835v-476h-133v476h133zM568 648v-102h-452v255h132v-153h320zM628 504l6 -91q-221 -33 -578 -33l-13 102q387 0 585 22zM314 27h514v-103h-646v252h493v49h-494v101h626v-245h-493v-54z" />
<glyph unicode="&#xb2c8;" d="M222 748v-494q213 5 387 40l14 -110q-205 -43 -450 -43h-82v607h131zM680 836h132v-921h-132v921z" />
<glyph unicode="&#xb2c9;" d="M600 504l16 -107q-207 -40 -441 -40h-80v429h131v-320q202 5 374 38zM180 166v106h628v-360h-133v254h-495zM675 833h133v-523h-133v523z" />
<glyph unicode="&#xb2cc;" d="M808 835v-669h-133v669h133zM602 473l14 -107q-192 -41 -441 -41h-80v442h132v-334q202 5 375 40zM324 35h507v-105h-639v313h132v-208z" />
<glyph unicode="&#xb2d0;" d="M808 836v-457h-133v457h133zM601 552l15 -104q-200 -41 -441 -41h-80v383h132v-277q207 5 374 39zM328 27h503v-102h-636v257h480v57h-481v101h614v-252h-480v-61z" />
<glyph unicode="&#xb2d2;" d="M601 549l15 -104q-200 -41 -441 -41h-80v386h132v-280q199 5 374 39zM279 83v-62q118 1 193 15l9 -96q-87 -15 -275 -15h-54v246h183v54h-184v95h311v-237h-183zM615 227v-210h81v210h-81zM504 -76v396h304v-396h-304zM675 836h133v-473h-133v473z" />
<glyph unicode="&#xb2d8;" d="M600 510l16 -107q-188 -40 -441 -40h-80v419h131v-310q218 3 374 38zM325 177v-149h353v149h-353zM195 -75v355h612v-355h-612zM675 836h132v-516h-132v516z" />
<glyph unicode="&#xb2d9;" d="M600 524l16 -107q-188 -40 -441 -40h-80v416h131v-307q218 3 374 38zM677 30v82h-348v-82h348zM677 214v90h131v-379h-610v379h131v-90h348zM675 835h133v-491h-133v491z" />
<glyph unicode="&#xb2db;" d="M808 836v-611h-132v611h132zM602 491l14 -107q-193 -41 -441 -41h-80v432h132v-324q204 5 375 40zM564 284v-19q0 -87 75 -155t220 -89l-50 -104q-111 18 -191 65.5t-122 117.5q-88 -146 -310 -183l-51 104q143 21 218 89t75 155v19h136z" />
<glyph unicode="&#xb2dd;" d="M805 835v-533h-132v533h132zM602 500l14 -107q-193 -41 -441 -41h-80v425h131v-317q202 5 376 40zM494 18q184 0 184 83t-184 83q-183 0 -183 -83t183 -83zM494 289q145 0 230 -50.5t85 -137.5t-85 -137.5t-230 -50.5t-229.5 50.5t-84.5 137.5t84.5 137.5t229.5 50.5z " />
<glyph unicode="&#xb2e2;" d="M807 834v-488h-132v488h132zM602 528l15 -106q-186 -41 -442 -41h-80v400h131v-291q212 3 376 38zM424 201v-173h150v173h-150zM704 28h118v-104h-645v104h117v173h-109v104h626v-104h-107v-173z" />
<glyph unicode="&#xb2e4;" d="M210 643v-400q205 3 359 29l13 -109q-167 -30 -425 -30h-79v617h430v-107h-298zM898 495v-109h-134v-474h-132v923h132v-340h134z" />
<glyph unicode="&#xb2e5;" d="M564 479l13 -105q-82 -17 -172 -23t-250 -6h-77v426h412v-105h-281v-215q228 1 355 28zM154 146v105h614v-338h-132v233h-482zM890 620v-109h-122v-213h-132v538h132v-216h122z" />
<glyph unicode="&#xb2e6;" d="M564 487l13 -104q-82 -18 -172 -24t-250 -6h-77v422h409v-105h-278v-211q228 1 355 28zM132 168v106h302v-360h-131v254h-171zM474 168v106h294v-360h-131v254h-163zM890 626v-108h-122v-204h-132v522h132v-210h122z" />
<glyph unicode="&#xb2e8;" d="M564 453l13 -104q-82 -18 -172 -24t-250 -6h-77v443h412v-105h-281v-232q228 1 355 28zM306 239v-204h495v-105h-627v309h132zM768 584h122v-108h-122v-307h-132v666h132v-251z" />
<glyph unicode="&#xb2eb;" d="M564 490l13 -104q-82 -18 -172 -24t-250 -6h-77v423h410v-105h-279v-212q228 1 355 28zM301 171v-142h490v-105h-621v352h604v-105h-473zM768 633h122v-108h-122v-205h-132v516h132v-203z" />
<glyph unicode="&#xb2ec;" d="M565 531l13 -103q-85 -19 -177.5 -25t-248.5 -6h-77v390h412v-103h-281v-183q223 1 359 30zM292 86v-58h502v-103h-633v257h477v54h-478v104h608v-254h-476zM768 661h122v-107h-122v-176h-132v458h132v-175z" />
<glyph unicode="&#xb2ed;" d="M565 516l13 -103q-146 -32 -426 -32h-77v404h412v-104h-281v-196q218 1 359 31zM254 76v-54q165 1 238 18l13 -97q-53 -12 -114 -15.5t-203 -3.5h-61v243h180v49h-182v98h309v-238h-180zM472 210v104h296v-393h-130v289h-166zM890 642v-107h-122v-185h-132v485h132v-193 h122z" />
<glyph unicode="&#xb2ee;" d="M565 517l13 -103q-85 -19 -177.5 -25t-248.5 -6h-77v402h412v-104h-281v-194q223 1 359 30zM242 76v-54q107 2 188 14l10 -96q-95 -16 -271 -16h-54v243h173v46h-174v96h301v-233h-173zM577 214v-194h78v194h-78zM463 -76v385h305v-385h-305zM890 642v-108h-122v-187 h-132v488h132v-193h122z" />
<glyph unicode="&#xb2ef;" d="M564 516l13 -103q-84 -19 -176.5 -25t-248.5 -6h-77v403h412v-104h-281v-196q218 1 358 31zM242 76v-57q111 1 185 15l8 -94q-78 -15 -268 -15h-52v235h170v50h-172v98h299v-232h-170zM651 25v99h-77v-99h77zM651 220v96h117v-392h-311v392h117v-96h77zM890 648v-108 h-122v-189h-132v484h132v-187h122z" />
<glyph unicode="&#xb2f3;" d="M565 523l13 -103q-146 -32 -426 -32h-77v399h412v-105h-281v-190q218 1 359 31zM234 84v-59q114 1 199 15l11 -95q-91 -16 -280 -16h-55v243h174v52h-175v94h300v-234h-174zM626 1q52 0 52 42t-52 42q-53 0 -53 -42t53 -42zM626 173q71 0 117 -36t46 -94t-46 -94 t-117 -36t-117 35.5t-46 94.5t46 94.5t117 35.5zM691 357v-69h133v-94h-392v94h131v69h128zM768 654h122v-108h-122v-164h-132v453h132v-181z" />
<glyph unicode="&#xb2f4;" d="M564 484l13 -104q-82 -18 -172 -24t-250 -6h-77v429h410v-106h-279v-217q228 1 355 28zM299 175v-147h340v147h-340zM169 -75v354h599v-354h-599zM890 628v-107h-122v-202h-132v517h132v-208h122z" />
<glyph unicode="&#xb2f5;" d="M564 497l13 -105q-141 -30 -422 -30h-77v419h410v-105h-279v-208q223 1 355 29zM637 31v81h-340v-81h340zM637 213v84h131v-371h-601v371h130v-84h340zM890 637v-108h-122v-187h-132v494h132v-199h122z" />
<glyph unicode="&#xb2f7;" d="M565 470l13 -105q-82 -18 -172.5 -24t-252.5 -6h-78v436h413v-106h-282v-224q234 1 359 29zM541 275v-25q0 -81 73.5 -146t213.5 -84l-49 -103q-215 34 -304 171q-89 -137 -303 -171l-50 103q140 19 214 84t74 146v25h131zM768 595h122v-108h-122v-261h-132v610h132v-241 z" />
<glyph unicode="&#xb2f8;" d="M564 487l13 -104q-149 -30 -422 -30h-77v428h410v-105h-279v-217q210 1 355 28zM703 279v-30q0 -78 41.5 -138.5t128.5 -89.5l-65 -95q-123 43 -172 157q-50 -120 -166 -167q-117 44 -168 163q-51 -112 -169 -153l-65 95q86 31 128 92.5t42 135.5v30h128v-30 q0 -132 102 -205q53 39 79 94t26 111v30h130zM768 632h122v-109h-122v-208h-132v521h132v-204z" />
<glyph unicode="&#xb2f9;" d="M565 485l13 -105q-141 -30 -425 -30h-78v423h413v-105h-282v-212q227 1 359 29zM466 18q182 0 182 82t-182 82q-181 0 -181 -82t181 -82zM466 287q144 0 228 -50t84 -137t-84 -137t-228 -50q-143 0 -227 50t-84 137t84 137t227 50zM770 617h120v-107h-120v-207h-133v533 h133v-219z" />
<glyph unicode="&#xb2fa;" d="M564 497l13 -104q-146 -30 -422 -30h-77v416h410v-106h-279v-204q219 1 355 28zM780 178h-234q15 -57 85 -102.5t187 -59.5l-46 -100q-106 13 -183 54t-117 102q-85 -127 -301 -155l-46 100q119 14 188.5 58.5t83.5 102.5h-234v103h617v-103zM768 628h122v-108h-122v-198 h-132v514h132v-208z" />
<glyph unicode="&#xb2fb;" d="M565 528l13 -104q-146 -32 -425 -32h-78v395h412v-102h-281v-187q223 1 359 30zM782 162h-239q14 -54 84.5 -94.5t191.5 -52.5l-44 -98q-219 24 -305 143q-85 -119 -306 -143l-44 98q121 12 191.5 52.5t84.5 94.5h-241v100h249v87h132v-87h246v-100zM768 643h122v-108 h-122v-215h-132v516h132v-193z" />
<glyph unicode="&#xb2ff;" d="M565 547l13 -103q-146 -32 -426 -32h-77v380h412v-104h-281v-172q218 1 359 31zM467 4q123 0 123 44t-123 44q-122 0 -122 -44t122 -44zM467 183q122 0 192 -35.5t70 -99.5t-70 -99.5t-192 -35.5t-191.5 35.5t-69.5 99.5t69.5 99.5t191.5 35.5zM534 380v-73h257v-99h-647 v99h257v73h133zM768 651h122v-108h-122v-188h-132v480h132v-184z" />
<glyph unicode="&#xb300;" d="M199 622v-392q144 3 252 23l10 -107q-133 -25 -328 -25h-64v608h341v-107h-211zM708 836h125v-922h-125v461h-83v-418h-123v861h123v-337h83v355z" />
<glyph unicode="&#xb301;" d="M459 458l10 -105q-118 -24 -331 -24h-63v442h357v-105h-228v-231q152 3 255 23zM194 141v105h634v-333h-132v228h-502zM703 835h125v-548h-125v223h-74v-222h-123v531h123v-204h74v220z" />
<glyph unicode="&#xb304;" d="M629 482v-304h-123v640h123v-230h74v246h125v-679h-125v327h-74zM459 429l10 -105q-123 -25 -331 -25h-63v454h357v-105h-228v-243q146 3 255 24zM340 35h511v-105h-643v303h132v-198z" />
<glyph unicode="&#xb308;" d="M630 540v-168h-122v445h122v-173h73v191h125v-470h-125v175h-73zM462 521l10 -103q-125 -24 -334 -24h-63v392h357v-105h-228v-183q150 3 258 23zM334 27h523v-102h-653v254h494v50h-496v102h626v-248h-494v-56z" />
<glyph unicode="&#xb310;" d="M460 477l11 -105q-120 -24 -333 -24h-63v428h360v-105h-231v-217q153 3 256 23zM326 167v-141h373v141h-373zM196 -75v344h632v-344h-632zM703 835h125v-525h-125v207h-74v-200h-123v502h123v-196h74v212z" />
<glyph unicode="&#xb311;" d="M460 487l11 -105q-120 -24 -333 -24h-63v419h360v-105h-231v-208q153 3 256 23zM698 30v78h-365v-78h365zM698 209v84h130v-368h-626v368h131v-84h365zM703 835h125v-504h-125v197h-74v-190h-123v481h123v-186h74v202z" />
<glyph unicode="&#xb313;" d="M629 508v-196h-123v506h123v-204h74v222h125v-607h-125v279h-74zM460 461l11 -105q-125 -25 -333 -25h-63v431h360v-105h-231v-220q147 3 256 24zM577 274v-25q0 -79 76 -144.5t217 -85.5l-54 -101q-217 33 -305 171q-90 -138 -307 -171l-53 101q141 20 217.5 85.5 t76.5 144.5v25h132z" />
<glyph unicode="&#xb314;" d="M629 524v-205h-123v500h123v-190h74v206h125v-523h-125v212h-74zM460 478l11 -105q-125 -25 -333 -25h-63v428h360v-105h-231v-217q146 3 256 24zM728 280v-39q0 -77 42 -137t129 -88l-64 -96q-123 43 -175 156q-51 -120 -166 -164q-116 42 -167 162q-52 -111 -171 -154 l-65 96q86 30 128.5 91t42.5 134v39h128v-39q0 -58 25.5 -112t76.5 -90q53 39 79.5 93t26.5 109v39h130z" />
<glyph unicode="&#xb315;" d="M629 509v-201h-123v511h123v-205h74v221h125v-556h-125v230h-74zM460 464l11 -105q-120 -24 -333 -24h-63v436h350v-105h-220v-225q152 3 255 23zM516 16q184 0 184 77t-184 77q-186 0 -186 -77t186 -77zM516 272q147 0 231.5 -47.5t84.5 -131.5t-84.5 -131.5 t-231.5 -47.5q-148 0 -233 47.5t-85 131.5t85 131.5t233 47.5z" />
<glyph unicode="&#xb31c;" d="M210 643v-400q205 3 359 29l13 -109q-167 -30 -425 -30h-78v617h429v-107h-298zM886 511h-122v-159h122v-108h-122v-332h-132v923h132v-216h122v-108z" />
<glyph unicode="&#xb354;" d="M218 648v-406q189 1 332 26l13 -107q-146 -27 -402 -27h-75v619h417v-105h-285zM684 835h132v-924h-132v500h-225v106h225v318z" />
<glyph unicode="&#xb355;" d="M547 440l12 -105q-131 -28 -394 -28h-73v466h415v-105h-284v-255q197 1 324 27zM185 134v105h628v-326h-132v221h-496zM681 836h132v-557h-132v221h-217v105h217v231z" />
<glyph unicode="&#xb356;" d="M552 463l11 -106q-138 -24 -398 -24h-73v448h423v-105h-292v-237q200 2 329 24zM155 161v106h313v-353h-131v247h-182zM504 161v106h309v-353h-131v247h-178zM681 836h132v-529h-132v208h-217v105h217v216z" />
<glyph unicode="&#xb358;" d="M462 595h219v240h132v-670h-132v325h-219v105zM556 417l10 -104q-145 -28 -395 -28h-74v487h417v-105h-286v-276q187 1 328 26zM338 33h496v-106h-628v292h132v-186z" />
<glyph unicode="&#xb35b;" d="M464 625h217v211h132v-525h-132v209h-217v105zM546 464l15 -104q-136 -27 -391 -27h-73v457h415v-105h-284v-246q192 1 318 25zM329 29h504v-104h-635v345h620v-105h-489v-136z" />
<glyph unicode="&#xb35c;" d="M463 644h218v192h132v-475h-132v184h-218v99zM548 498l11 -101q-133 -24 -395 -24h-72v417h415v-102h-284v-213q209 1 325 23zM337 27h502v-102h-632v248h475v49h-477v101h608v-244h-476v-52z" />
<glyph unicode="&#xb35e;" d="M556 488l10 -101q-133 -24 -396 -24h-73v422h414v-102h-282v-218q212 1 327 23zM279 76v-54q116 1 192 14l11 -97q-88 -15 -276 -15h-55v242h180v47h-182v96h310v-233h-180zM615 214v-195h84v195h-84zM502 -76v385h311v-385h-311zM681 835h132v-489h-132v188h-219v98h219 v203z" />
<glyph unicode="&#xb35f;" d="M556 488l11 -101q-133 -25 -397 -25h-73v423h414v-102h-283v-218q219 2 328 23zM278 78v-56q117 1 192 15l11 -97q-85 -16 -275 -16h-55v245h180v49h-183v96h310v-236h-180zM695 25v102h-75v-102h75zM695 224v98h118v-397h-310v397h117v-98h75zM681 835h132v-478h-132 v178h-219v98h219v202z" />
<glyph unicode="&#xb364;" d="M547 462l12 -105q-135 -27 -394 -27h-73v454h415v-105h-284v-243q194 1 324 26zM330 161v-132h354v132h-354zM200 -75v339h613v-339h-613zM681 835h132v-532h-132v213h-217v105h217v214z" />
<glyph unicode="&#xb365;" d="M544 475l11 -105q-133 -27 -390 -27h-73v444h415v-105h-284v-233q191 1 321 26zM683 30v81h-353v-81h353zM683 212v79h130v-366h-614v366h131v-79h353zM681 836h132v-509h-132v198h-217v105h217v206z" />
<glyph unicode="&#xb367;" d="M463 611h218v225h132v-618h-132v288h-218v105zM547 450l12 -105q-131 -28 -394 -28h-73v464h412v-105h-281v-253q204 1 324 27zM863 20l-48 -103h-1q-221 33 -310 174q-43 -66 -121.5 -112t-186.5 -62l-50 103q138 19 215 84.5t77 139.5v25h135v-25q0 -77 75.5 -141 t214.5 -83z" />
<glyph unicode="&#xb369;" d="M464 609h217v227h132v-553h-132v221h-217v105zM547 448l12 -105q-142 -26 -394 -26h-73v455h415v-105h-284v-244q191 1 324 25zM502 14q183 0 183 78t-183 78q-184 0 -184 -78t184 -78zM502 271q147 0 231 -47.5t84 -131.5t-84 -131.5t-231 -47.5q-148 0 -232 47.5 t-84 131.5t84 131.5t232 47.5z" />
<glyph unicode="&#xb36b;" d="M468 644h213v192h132v-524h-132v234h-213v98zM545 499l10 -100q-132 -24 -391 -24h-72v418h415v-102h-284v-214q207 1 322 22zM822 154h-251q15 -48 89 -88.5t197 -51.5l-41 -97q-226 20 -317 138q-90 -117 -321 -138l-40 97q126 10 200.5 50t89.5 90h-254v100h257v82 h135v-82h256v-100z" />
<glyph unicode="&#xb36e;" d="M464 632h217v204h132v-505h-132v195h-217v106zM552 476l12 -105q-129 -26 -394 -26h-73v443h417v-105h-286v-232q199 1 324 25zM431 185v-157h144v157h-144zM705 28h126v-104h-654v104h124v157h-115v103h634v-103h-115v-157z" />
<glyph unicode="&#xb370;" d="M200 626v-399q145 3 251 24l11 -108q-124 -24 -329 -24h-63v612h351v-105h-221zM518 499v319h123v-863h-123v437h-160v107h160zM709 836h125v-921h-125v921z" />
<glyph unicode="&#xb371;" d="M384 599h140v218h123v-538h-123v215h-140v105zM460 434l12 -103q-99 -17 -327 -17h-63v454h356v-104h-227v-247q152 1 249 17zM200 127v105h633v-319h-132v214h-501zM708 835h125v-562h-125v562z" />
<glyph unicode="&#xb374;" d="M833 835v-680h-125v680h125zM384 590h140v227h123v-640h-123v308h-140v105zM460 415l12 -103q-132 -24 -327 -24h-63v479h356v-104h-227v-271q143 3 249 23zM347 36h509v-106h-642v299h133v-193z" />
<glyph unicode="&#xb378;" d="M833 835v-481h-125v481h125zM386 642h140v176h123v-459h-123v184h-140v99zM461 497l9 -104q-104 -17 -325 -17h-63v415h356v-104h-226v-208q155 2 249 18zM334 27h525v-103h-655v249h499v49h-501v101h631v-245h-499v-51z" />
<glyph unicode="&#xb380;" d="M388 620h136v197h123v-508h-123v206h-136v105zM461 456l9 -103q-103 -18 -325 -18h-63v445h356v-104h-227v-237q160 1 250 17zM345 164v-136h359v136h-359zM215 -76v344h618v-344h-618zM708 834h125v-531h-125v531z" />
<glyph unicode="&#xb381;" d="M384 628h140v189h123v-484h-123v190h-140v105zM461 471l9 -104q-98 -17 -325 -17h-63v432h356v-104h-227v-224q160 1 250 17zM703 28v81h-359v-81h359zM703 210v81h130v-367h-620v367h131v-81h359zM708 834h125v-507h-125v507z" />
<glyph unicode="&#xb383;" d="M833 835v-613h-125v613h125zM383 609h141v210h123v-519h-123v203h-141v106zM462 439l9 -104q-118 -17 -326 -17h-63v458h354v-104h-224v-251q150 2 250 18zM583 266v-26q0 -77 76.5 -139.5t217.5 -80.5l-49 -103q-220 33 -310 168q-90 -135 -311 -168l-47 103 q141 18 216.5 80.5t75.5 139.5v26h131z" />
<glyph unicode="&#xb384;" d="M833 835v-533h-125v533h125zM388 614h136v204h123v-507h-123v198h-136v105zM461 452l9 -105q-118 -17 -325 -17h-63v443h356v-103h-227v-237q150 2 250 19zM727 271v-31q0 -77 42.5 -137.5t128.5 -86.5l-64 -96q-123 41 -174 155q-50 -117 -166 -164q-117 43 -167 161 q-52 -111 -170 -152l-65 96q85 28 128 89.5t43 134.5v31h128v-31q0 -131 102 -202q53 38 79 92.5t26 109.5v31h129z" />
<glyph unicode="&#xb385;" d="M833 835v-553h-125v553h125zM386 607h138v211h123v-507h-123v191h-138v105zM461 444l12 -103q-104 -21 -328 -21h-63v449h357v-104h-228v-242q149 1 250 21zM518 15q187 0 187 77t-187 77t-187 -77t187 -77zM518 271q147 0 233.5 -48t86.5 -131t-86.5 -131t-233.5 -48 t-233.5 48t-86.5 131t86.5 131t233.5 48z" />
<glyph unicode="&#xb38c;" d="M224 657v-441q196 1 333 26l12 -107q-144 -27 -401 -27h-75v654h422v-105h-291zM684 836h132v-925h-132v383h-212v109h212v89h-212v109h212v235z" />
<glyph unicode="&#xb390;" d="M681 156v236h-183v102h183v75h-183v102h183v164h132v-679h-132zM518 381l13 -103q-135 -25 -366 -25h-68v521h385v-105h-253v-312q176 3 289 24zM337 35h497v-105h-628v269h131v-164z" />
<glyph unicode="&#xb394;" d="M509 451l7 -62q-120 -23 -357 -23h-67v428h385v-101h-254v-225q169 1 281 21l1 -8v70h176v62h-176v100h176v122h132v-479h-132v95h-172zM337 21h501v-100h-631v248h475v53h-477v100h608v-246h-476v-55z" />
<glyph unicode="&#xb3a0;" d="M507 414l9 -70q-131 -26 -357 -26h-67v460h385v-105h-254v-251q171 3 280 25v69h178v69h-178v102h178v148h132v-533h-132v112h-174zM727 271v-22q0 -78 42 -138.5t130 -88.5l-66 -95q-123 41 -173 156q-51 -120 -167 -166q-117 44 -167 163q-53 -112 -170 -153l-66 95 q86 30 129 92t43 135v23h128v-23q0 -131 102 -205q53 40 79 95t26 110v23z" />
<glyph unicode="&#xb3a1;" d="M512 407l9 -72q-132 -25 -357 -25h-67v468h385v-105h-254v-260q169 3 280 25l1 -8v79h172v78h-172v102h172v147h132v-563h-132v134h-169zM502 13q183 0 183 76q0 77 -183 77q-184 0 -184 -77q0 -76 184 -76zM502 267q147 0 231 -47t84 -131q0 -83 -84 -129.5t-231 -46.5 q-148 0 -232 46.5t-84 129.5q0 84 84 131t232 47z" />
<glyph unicode="&#xb3a8;" d="M200 636v-415q136 3 244 23l12 -107q-117 -24 -323 -24h-63v628h348v-105h-218zM518 585v234h123v-864h-123v338h-145v105h145v81h-145v106h145zM709 836h125v-921h-125v921z" />
<glyph unicode="&#xb3ac;" d="M833 835v-682h-125v682h125zM422 383l10 -98q-118 -22 -293 -22h-57v506h311v-104h-182v-297q105 2 199 19v98h114v73h-115v102h115v158h123v-645h-123v210h-102zM347 36h509v-106h-642v278h133v-172z" />
<glyph unicode="&#xb3c4;" d="M525 126h352v-108h-834v108h350v192h-253v454h641v-106h-508v-242h515v-106h-263v-192z" />
<glyph unicode="&#xb3c5;" d="M135 119v104h643v-312h-132v208h-511zM525 390h351v-105h-832v105h349v80h-248v328h632v-104h-501v-120h509v-104h-260v-80z" />
<glyph unicode="&#xb3c8;" d="M274 199v-164h518v-105h-650v269h132zM526 365h351v-105h-833v105h350v90h-249v336h632v-105h-501v-126h509v-105h-259v-90z" />
<glyph unicode="&#xb3cb;" d="M273 138v-109h515v-105h-646v319h637v-105h-506zM525 409h352v-105h-833v105h349v72h-247v318h631v-105h-500v-108h508v-105h-260v-72z" />
<glyph unicode="&#xb3cc;" d="M270 73v-53h528v-99h-659v243h505v49h-506v97h636v-237h-504zM525 462h350v-104h-832v104h350v58h-246v284h624v-103h-493v-78h500v-103h-253v-58z" />
<glyph unicode="&#xb3ce;" d="M252 70v-54q128 1 193 13l9 -94q-72 -14 -271 -14h-54v236h177v48h-178v95h301v-230h-177zM588 207v-193h83v193h-83zM477 -79v379h305v-379h-305zM526 456h350v-105h-832v105h350v61h-245v284h626v-104h-495v-76h502v-104h-256v-61z" />
<glyph unicode="&#xb3d0;" d="M708 312v-67q0 -75 35 -137t109 -95l-73 -91q-95 45 -135 147q-43 -101 -136 -147l-59 77l4 -60q-76 -15 -271 -15h-53v234h180v49h-181v93h306v-228h-180v-54q127 1 191 14l1 -14q69 36 101.5 96.5t32.5 130.5v67h128zM526 455h350v-104h-832v104h350v61h-245v285h626 v-104h-495v-77h502v-104h-256v-61z" />
<glyph unicode="&#xb3d4;" d="M269 140v-112h380v112h-380zM140 -75v318h638v-318h-638zM524 411h353v-105h-833v105h348v74h-247v315h632v-105h-501v-105h509v-105h-261v-74z" />
<glyph unicode="&#xb3d5;" d="M644 29v75h-372v-75h372zM644 205v73h132v-354h-635v354h131v-73h372zM524 425h353v-105h-833v105h348v74h-247v306h632v-105h-501v-97h509v-104h-261v-74z" />
<glyph unicode="&#xb3d7;" d="M528 249v-17q0 -77 74.5 -137t219.5 -78l-48 -101q-225 31 -313 162q-88 -131 -313 -162l-48 101q145 18 219.5 78t74.5 137v17h134zM528 395h349v-105h-833v105h351v82h-250v322h636v-105h-505v-112h513v-105h-261v-82z" />
<glyph unicode="&#xb3d9;" d="M457 13q186 0 186 69q0 70 -186 70t-186 -70q0 -69 186 -69zM457 252q150 0 235 -44.5t85 -125.5q0 -80 -85 -124.5t-235 -44.5t-234.5 44t-84.5 125t84.5 125.5t234.5 44.5zM526 402h351v-105h-833v105h350v76h-249v318h632v-105h-501v-108h506v-105h-256v-76z" />
<glyph unicode="&#xb3db;" d="M772 135h-236q22 -46 92.5 -80t184.5 -42l-42 -96q-221 19 -311 132q-89 -113 -313 -132l-42 96q116 9 186.5 42.5t91.5 79.5h-237v102h247v70h133v-70h246v-102zM526 444h351v-105h-833v105h350v69h-244v288h624v-105h-493v-79h500v-104h-255v-69z" />
<glyph unicode="&#xb3dd;" d="M275 65v-50h522v-95h-653v378h637v-94h-506v-48h490v-91h-490zM524 453h353v-105h-833v105h348v64h-243v286h632v-104h-501v-78h509v-104h-265v-64z" />
<glyph unicode="&#xb3e0;" d="M384 357v-150q104 4 208 17l10 -95q-193 -36 -553 -36l-16 108q140 0 219 1v155h-164v393h452v-105h-321v-183h330v-105h-165zM891 471v-109h-121v-448h-132v921h132v-364h121z" />
<glyph unicode="&#xb3e4;" d="M592 386l9 -93q-205 -40 -555 -40l-15 104q143 0 224 3v89h-159v325h436v-105h-301v-116h305v-104h-149v-83q119 7 205 20zM290 194v-159h504v-105h-636v264h132zM773 544h116v-109h-116v-291h-132v691h132v-291z" />
<glyph unicode="&#xb3e8;" d="M603 470l7 -87q-210 -31 -566 -31l-12 98q146 0 223 2v62h-151v281h437v-102h-305v-76h309v-103h-158v-59q133 5 216 15zM281 72v-52h525v-99h-656v243h500v47h-501v98h631v-237h-499zM780 640h110v-107h-110v-190h-132v493h132v-196z" />
<glyph unicode="&#xb3fc;" d="M337 356v-148q69 4 155 13l8 -96q-174 -32 -453 -32l-15 108q114 0 180 2v153h-142v395h394v-105h-264v-184h272v-106h-135zM719 835h125v-921h-125v449h-68v-408h-123v864h123v-350h68v366z" />
<glyph unicode="&#xb410;" d="M648 490v-213h-123v539h123v-220h66v239h126v-562h-126v217h-66zM488 411l8 -91q-144 -29 -443 -32l-13 102q113 0 181 2v79h-131v311h380v-104h-253v-102h254v-105h-127v-73q86 5 144 13zM718 238v-22q0 -69 42.5 -122.5t129.5 -76.5l-61 -96q-126 37 -179 145 q-49 -112 -166 -152q-117 40 -167 149q-54 -105 -177 -142l-61 96q86 24 129.5 78.5t43.5 120.5v22h128v-22q0 -53 26 -101.5t77 -79.5q52 33 78 81.5t26 99.5v22h131z" />
<glyph unicode="&#xb418;" d="M411 356v-150q126 7 218 16l8 -96q-210 -33 -574 -33l-16 108q151 0 232 2v153h-173v397h475v-105h-343v-186h349v-106h-176zM679 835h132v-923h-132v923z" />
<glyph unicode="&#xb41c;" d="M810 836v-694h-133v694h133zM622 372l9 -94q-219 -32 -567 -32l-17 105q153 0 234 2v95h-158v332h445v-105h-313v-122h319v-105h-161v-90q100 4 209 14zM319 35h515v-105h-648v262h133v-157z" />
<glyph unicode="&#xb420;" d="M812 835v-483h-132v483h132zM630 479l8 -90q-215 -31 -574 -31l-16 99q112 0 234 3v61h-155v278h439v-100h-304v-78h312v-100h-159v-57q113 5 215 15zM318 23h515v-102h-645v248h494v49h-496v101h626v-245h-494v-51z" />
<glyph unicode="&#xb428;" d="M627 425l8 -91q-205 -36 -571 -38l-15 102q150 0 232 2v82h-157v306h445v-105h-314v-96h319v-105h-161v-76q133 7 214 19zM319 134v-106h365v106h-365zM190 -75v312h623v-312h-623zM681 835h132v-559h-132v559z" />
<glyph unicode="&#xb429;" d="M622 441l10 -91q-206 -37 -569 -39l-18 102q152 0 235 3v71h-158v306h443v-105h-311v-97h316v-104h-158v-65q115 5 210 19zM681 28v67h-362v-67h362zM681 195v69h130v-339h-623v339h131v-69h362zM679 835h132v-534h-132v534z" />
<glyph unicode="&#xb42b;" d="M812 834v-646h-132v646h132zM624 410l9 -93q-221 -41 -571 -41l-16 104q110 0 237 3v87h-161v314h443v-105h-311v-104h316v-105h-155v-80q120 7 209 20zM561 236v-17q0 -72 73.5 -128t216.5 -72l-48 -102q-221 27 -310 154q-89 -127 -310 -154l-47 102q143 16 216.5 72 t73.5 128v17h135z" />
<glyph unicode="&#xb434;" d="M387 317v-186h154v186h-154zM672 131h206v-107h-835v107h213v186h-116v451h642v-107h-509v-238h515v-106h-116v-186z" />
<glyph unicode="&#xb450;" d="M781 509v-105h-633v382h623v-105h-488v-172h498zM877 314v-107h-354v-292h-132v292h-349v107h835z" />
<glyph unicode="&#xb451;" d="M785 583v-105h-640v321h632v-104h-501v-112h509zM877 303h-352v-88h253v-303h-132v199h-511v104h258v88h-349v105h833v-105z" />
<glyph unicode="&#xb454;" d="M785 553v-105h-640v346h633v-105h-502v-136h509zM273 195v-160h518v-105h-650v265h132zM44 380h834v-106h-337v-151h-133v151h-364v106z" />
<glyph unicode="&#xb458;" d="M778 623v-103h-631v284h624v-103h-493v-78h500zM875 369h-350v-59h249v-237h-504v-53h528v-99h-659v243h505v49h-506v97h255v59h-350v103h832v-103z" />
<glyph unicode="&#xb460;" d="M785 590v-105h-640v315h632v-105h-501v-105h509zM649 28v112h-380v-112h380zM877 320h-352v-77h253v-318h-638v318h253v77h-349v105h833v-105z" />
<glyph unicode="&#xb461;" d="M785 605v-105h-640v305h632v-105h-501v-95h509zM644 30v66h-372v-66h372zM644 197v84h132v-357h-635v357h131v-84h372zM44 440h833v-105h-352v-102h-132v102h-349v105z" />
<glyph unicode="&#xb463;" d="M786 594v-104h-640v313h632v-105h-501v-104h509zM525 210v-16q0 -66 73.5 -115t219.5 -62l-45 -100q-228 23 -316 140q-88 -117 -316 -140l-44 100q146 13 219 62t73 115v16h136zM43 430h834v-106h-353v-81h-132v81h-349v106z" />
<glyph unicode="&#xb465;" d="M782 585v-105h-637v316h632v-105h-501v-106h506zM643 83q0 70 -186 70t-186 -70q0 -69 186 -69t186 69zM877 314h-352v-64q120 -10 186 -53t66 -114q0 -81 -85 -125.5t-235 -44.5t-234.5 44.5t-84.5 125.5q0 71 67 114.5t188 53.5v63h-349v105h833v-105z" />
<glyph unicode="&#xb46c;" d="M574 552v-105h-458v343h447v-106h-316v-132h327zM634 387l8 -95q-123 -15 -244 -21v-330h-132v324q-74 -2 -213 -2l-15 105q391 0 596 19zM694 835h132v-920h-132v198h-187v102h187v620z" />
<glyph unicode="&#xb480;" d="M511 380h175v455h132v-572h-132v30h-175v87zM549 643v-99h-421v272h417v-99h-285v-74h289zM252 271v126q-71 -3 -199 -3l-15 98q382 0 581 25l8 -89q-113 -17 -243 -25v-132h-132zM726 234v-13q0 -66 42.5 -120t127.5 -79l-62 -96q-123 39 -175 146q-50 -112 -167 -154 q-117 40 -167 150q-54 -105 -174 -142l-61 96q85 25 127.5 79t42.5 120v13h128v-13q0 -53 26 -101.5t77 -79.5q52 33 78 81.5t26 99.5v13h131z" />
<glyph unicode="&#xb488;" d="M461 555v-105h-373v319h371v-106h-243v-108h245zM491 402l9 -96q-79 -12 -167 -20v-300h-126v292q-80 -4 -165 -4l-13 107q280 0 462 21zM539 237v584h123v-868h-123v184h-144v100h144zM723 836h125v-921h-125v921z" />
<glyph unicode="&#xb49d;" d="M840 836v-605h-126v605h126zM411 378h127v441h123v-560h-123v32h-127v87zM463 633v-97h-362v263h361v-97h-235v-69h236zM216 244v146q-83 -4 -167 -4l-12 98q290 0 458 25l8 -88q-81 -16 -162 -22v-155h-125zM512 9q201 0 201 62q0 32 -48 46t-153 14t-153 -14t-48 -46 q0 -62 201 -62zM512 229q162 0 249.5 -40.5t87.5 -117.5t-87.5 -118t-249.5 -41t-249.5 41t-87.5 118t87.5 117.5t249.5 40.5z" />
<glyph unicode="&#xb4a4;" d="M576 544v-106h-456v106h1v243h445v-106h-314v-137h324zM632 368l7 -96q-100 -16 -228 -26v-305h-132v299q-79 -2 -223 -2l-16 107q405 0 592 23zM682 835h132v-920h-132v920z" />
<glyph unicode="&#xb4a8;" d="M810 836v-695h-132v695h132zM569 573v-106h-439v320h433v-105h-301v-109h307zM290 35h540v-106h-672v268h124v100q-104 -4 -221 -4l-16 105q365 0 584 24l8 -94q-89 -13 -224 -24v-138h-123v-131z" />
<glyph unicode="&#xb4ac;" d="M810 835v-491h-132v491h132zM561 633v-100h-426v280h422v-100h-290v-80h294zM316 20h519v-99h-649v243h494v50h-496v98h94v73q-76 -3 -217 -3l-15 98q394 0 586 23l8 -88q-110 -16 -230 -24v-79h400v-239h-494v-53z" />
<glyph unicode="&#xb4b5;" d="M560 617v-105h-425v296h420v-105h-289v-86h294zM679 25v64h-379v-64h379zM679 186v69h131v-331h-640v331h114v102q-104 -4 -223 -4l-16 102q384 0 586 19l7 -91q-116 -14 -222 -20v-115h-116v-62h379zM678 836h132v-544h-132v544z" />
<glyph unicode="&#xb4b7;" d="M810 836v-656h-132v656h132zM566 595v-104h-437v300h435v-105h-303v-91h305zM258 185v138q-104 -3 -197 -3l-16 105q374 0 586 21l6 -95q-133 -16 -248 -22v-144h-131zM583 247v-33q0 -71 73.5 -126t215.5 -71l-47 -100q-222 28 -310 154q-88 -126 -309 -154l-48 100 q143 16 216.5 71t73.5 126v33h135z" />
<glyph unicode="&#xb4b9;" d="M811 836v-574h-132v574h132zM563 593v-105h-428v301h423v-105h-292v-91h297zM498 13q186 0 186 69q0 70 -186 70t-186 -70q0 -69 186 -69zM410 332v-86q45 5 88 5q148 0 233.5 -45t85.5 -124t-85.5 -124t-233.5 -45t-233.5 45t-85.5 124q0 84 99 130v113q-114 -3 -217 -3 l-16 105q374 0 586 20l6 -94q-109 -15 -227 -21z" />
<glyph unicode="&#xb4c0;" d="M781 515v-106h-633v382h623v-105h-488v-171h498zM877 318v-106h-189v-299h-131v299h-190v-299h-132v299h-193v106h835z" />
<glyph unicode="&#xb4c4;" d="M785 560v-105h-640v339h632v-105h-501v-129h509zM270 194v-160h525v-104h-656v264h131zM44 388h833v-105h-196v-160h-130v160h-93v-159h-130v159h-284v105z" />
<glyph unicode="&#xb4c8;" d="M778 627v-103h-631v283h623v-103h-492v-77h500zM542 310v62h-158v-62h158zM875 372h-201v-62h100v-237h-504v-53h528v-99h-659v243h505v49h-506v97h114v62h-210v103h833v-103z" />
<glyph unicode="&#xb4d0;" d="M785 593v-104h-640v313h633v-105h-502v-104h509zM539 243v80h-151v-80h151zM649 28v112h-380v-112h380zM877 323h-207v-80h108v-318h-638v318h116v80h-212v106h833v-106z" />
<glyph unicode="&#xb4d5;" d="M782 588v-105h-637v315h632v-105h-501v-105h506zM556 247v67h-191v-66q47 5 92 5q54 0 99 -6zM457 14q186 0 186 69q0 70 -186 70t-186 -70q0 -69 186 -69zM877 314h-189v-104q89 -45 89 -127q0 -81 -85 -125.5t-235 -44.5t-234.5 44.5t-84.5 125.5q0 86 96 131v100h-190 v105h833v-105z" />
<glyph unicode="&#xb4dc;" d="M788 410v-105h-648v454h641v-107h-509v-242h516zM43 132h834v-108h-834v108z" />
<glyph unicode="&#xb4dd;" d="M785 578v-105h-640v332h632v-106h-501v-121h509zM135 112v105h643v-304h-132v199h-511zM44 400h833v-106h-833v106z" />
<glyph unicode="&#xb4e0;" d="M785 560v-105h-640v347h633v-105h-502v-137h509zM274 206v-171h518v-105h-650v276h132zM44 380h833v-105h-833v105z" />
<glyph unicode="&#xb4e3;" d="M785 590v-105h-639v327h632v-105h-501v-117h508zM273 146v-116h515v-105h-646v326h637v-105h-506zM44 422h833v-105h-833v105z" />
<glyph unicode="&#xb4e4;" d="M778 631v-104h-631v290h624v-105h-493v-81h500zM270 78v-55h528v-101h-659v249h505v52h-506v99h636v-244h-504zM44 478h833v-104h-833v104z" />
<glyph unicode="&#xb4e6;" d="M782 621v-103h-633v300h626v-105h-494v-92h501zM252 73v-57q128 1 193 13l9 -94q-77 -15 -271 -15h-54v241h177v51h-178v94h301v-233h-177zM588 213v-199h83v199h-83zM477 -80v386h305v-386h-305zM44 465h832v-105h-832v105z" />
<glyph unicode="&#xb4ec;" d="M785 590v-105h-640v326h632v-105h-501v-116h509zM269 142v-112h380v112h-380zM140 -73v318h638v-318h-638zM44 422h833v-106h-833v106z" />
<glyph unicode="&#xb4ed;" d="M785 604v-105h-640v313h632v-105h-501v-103h509zM644 31v75h-372v-75h372zM644 207v74h132v-355h-635v355h131v-74h372zM44 436h833v-105h-833v105z" />
<glyph unicode="&#xb4ef;" d="M789 582v-105h-644v330h636v-106h-505v-119h513zM528 251v-17q0 -77 74.5 -136.5t219.5 -77.5l-48 -102q-224 30 -313 163q-89 -133 -313 -163l-48 102q145 18 219.5 77.5t74.5 136.5v17h134zM44 408h833v-105h-833v105z" />
<glyph unicode="&#xb4f1;" d="M782 582v-104h-637v332h632v-105h-501v-123h506zM457 14q186 0 186 69q0 70 -186 70t-186 -70q0 -69 186 -69zM457 253q150 0 235 -44.5t85 -125.5q0 -80 -85 -124.5t-235 -44.5t-234.5 44t-84.5 125t84.5 125.5t234.5 44.5zM44 414h833v-108h-833v108z" />
<glyph unicode="&#xb4f8;" d="M580 473v-105h-465v382h457v-106h-326v-171h334zM60 123l-17 107q388 0 590 21l7 -96q-220 -34 -580 -32zM679 835h132v-924h-132v924z" />
<glyph unicode="&#xb514;" d="M230 646v-405q240 1 375 27l12 -109q-146 -28 -438 -28h-81v622h445v-107h-313zM674 835h132v-924h-132v924z" />
<glyph unicode="&#xb515;" d="M607 462l12 -105q-86 -16 -180 -21.5t-264 -5.5h-80v50h-1v382h437v-105h-305v-221q248 1 381 26zM180 141v106h628v-334h-133v228h-495zM675 833h133v-544h-133v544z" />
<glyph unicode="&#xb518;" d="M807 835v-669h-132v669h132zM563 430l11 -104q-149 -28 -404 -28h-76v475h419v-105h-287v-264q192 1 337 26zM323 35h508v-105h-640v292h132v-187z" />
<glyph unicode="&#xb51b;" d="M808 836v-519h-133v519h133zM604 491l13 -106q-146 -29 -442 -29h-80v39h-1v381h437v-106h-305v-208q243 1 378 29zM329 31h499v-106h-630v350h614v-105h-483v-139z" />
<glyph unicode="&#xb51c;" d="M807 834v-461h-132v461h132zM602 535l13 -100q-87 -19 -183 -25t-258 -6h-79v381h434v-102h-302v-177q238 1 375 29zM325 21h506v-102h-636v258h482v57h-483v101h613v-251h-482v-63z" />
<glyph unicode="&#xb524;" d="M604 486l13 -105q-87 -18 -182.5 -24t-259.5 -6h-81v420h437v-105h-305v-209q243 1 378 29zM325 164v-135h354v135h-354zM195 -75v342h613v-342h-613zM675 836h133v-527h-133v527z" />
<glyph unicode="&#xb525;" d="M604 497l13 -105q-87 -18 -182.5 -24t-259.5 -6h-80v37h-1v381h437v-105h-305v-207q243 1 378 29zM677 30v80h-350v-80h350zM677 211v84h131v-370h-612v370h131v-84h350zM675 836h133v-499h-133v499z" />
<glyph unicode="&#xb527;" d="M808 836v-623h-133v623h133zM174 327h-79v38h-1v398h432v-105h-300v-225q234 1 377 28l11 -105q-153 -29 -440 -29zM564 275v-18q0 -83 74 -150t215 -88l-51 -102q-218 34 -306 180q-88 -146 -307 -180l-50 102q140 21 214.5 88t74.5 150v18h136z" />
<glyph unicode="&#xb528;" d="M808 836v-528h-133v528h133zM95 349v42h-1v382h437v-106h-305v-212q236 1 379 29l14 -104q-155 -31 -444 -31h-80zM716 277v-34q0 -76 42 -135.5t130 -85.5l-65 -96q-124 41 -174 154q-50 -118 -167 -164q-118 43 -167 162q-53 -110 -172 -152l-64 96q86 29 129 89 t43 132v34h127v-34q0 -128 103 -200q53 38 79 91.5t26 108.5v34h130z" />
<glyph unicode="&#xb529;" d="M808 836v-551h-133v551h133zM604 475l13 -106q-146 -29 -442 -29h-80v46h-1v380h437v-105h-305v-215q249 1 378 29zM497 14q183 0 183 80q0 79 -183 79q-184 0 -184 -79q0 -80 184 -80zM497 276q146 0 230 -48t84 -134q0 -85 -84.5 -133.5t-229.5 -48.5 q-146 0 -230.5 48.5t-84.5 133.5q0 86 84.5 134t230.5 48z" />
<glyph unicode="&#xb52a;" d="M808 835v-523h-133v523h133zM605 494l10 -105q-158 -29 -441 -29h-80v414h437v-105h-305v-202q237 2 379 27zM818 170h-238q18 -56 88 -98t188 -55l-47 -100q-216 26 -303 151q-84 -123 -302 -151l-46 100q117 13 186 55t88 98h-231v104h617v-104z" />
<glyph unicode="&#xb530;" d="M191 638v-389q55 3 112 13l10 -107q-78 -16 -205 -16h-47v604h237v-105h-107zM476 638v-389q73 1 129 14l10 -106q-69 -18 -220 -18h-49v604h248v-105h-118zM892 491v-109h-109v-469h-132v924h132v-346h109z" />
<glyph unicode="&#xb531;" d="M611 457l10 -107q-65 -17 -224 -17h-49v429h245v-105h-120v-215q81 1 138 15zM311 456l10 -107q-79 -16 -210 -16h-47v429h238v-105h-113v-215q64 3 122 14zM153 144v104h636v-335h-133v231h-503zM890 604v-108h-101v-211h-132v551h132v-232h101z" />
<glyph unicode="&#xb534;" d="M611 431l10 -107q-65 -17 -224 -17h-49v447h245v-105h-120v-233q88 3 138 15zM311 429l10 -107q-74 -15 -210 -15h-47v447h238v-105h-113v-235q66 3 122 15zM299 225v-190h521v-105h-653v295h132zM789 579h101v-109h-101v-306h-132v671h132v-256z" />
<glyph unicode="&#xb538;" d="M611 524l10 -102q-44 -11 -87.5 -14t-137.5 -3h-48v376h245v-104h-120v-167q79 1 138 14zM311 524l10 -104q-75 -15 -210 -15h-47v376h239v-104h-113v-168q65 3 121 15zM293 84v-57h525v-103h-656v255h497v54h-498v101h628v-250h-496zM789 653h101v-106h-101v-177h-132 v465h132v-182z" />
<glyph unicode="&#xb540;" d="M611 471l10 -106q-65 -17 -224 -17h-49v426h245v-105h-120v-213q88 3 138 15zM311 471l10 -107q-79 -16 -210 -16h-47v426h238v-105h-112v-212q63 3 121 14zM296 163v-135h364v135h-364zM166 -75v342h623v-342h-623zM890 627v-109h-101v-208h-132v525h132v-208h101z" />
<glyph unicode="&#xb541;" d="M611 487l11 -108q-69 -17 -225 -17h-49v421h245v-105h-120v-207q88 3 138 16zM313 486l10 -108q-80 -16 -212 -16h-47v421h238v-105h-112v-207q66 3 123 15zM658 30v80h-357v-80h357zM658 211v87h131v-374h-619v374h131v-87h357zM890 646v-109h-101v-202h-132v499h132 v-188h101z" />
<glyph unicode="&#xb543;" d="M611 454l10 -106q-65 -17 -224 -17h-49v432h245v-105h-120v-219q88 3 138 15zM311 453l10 -107q-79 -16 -210 -16h-47v433h238v-105h-113v-219q64 3 122 14zM550 274v-18q0 -83 74.5 -149.5t213.5 -86.5l-50 -103q-220 34 -306 179q-88 -145 -306 -179l-51 103 q140 20 214 86.5t74 149.5v18h137zM789 594h101v-108h-101v-273h-132v622h132v-241z" />
<glyph unicode="&#xb544;" d="M611 471l10 -106q-65 -17 -224 -17h-49v426h245v-105h-120v-213q88 3 138 15zM311 470l10 -107q-79 -16 -210 -16h-47v427h238v-105h-112v-213q63 3 121 14zM706 280v-30q0 -78 41.5 -138.5t127.5 -89.5l-65 -95q-121 43 -171 157q-51 -121 -167 -167q-117 44 -167 164 q-51 -111 -169 -154l-65 95q85 31 127.5 92.5t42.5 135.5v30h128v-30q0 -132 102 -206q53 40 79 95t26 111v30h130zM789 620h101v-109h-101v-201h-132v525h132v-215z" />
<glyph unicode="&#xb545;" d="M611 464l10 -106q-65 -17 -224 -17h-49v427h245v-104h-120v-215q88 3 138 15zM311 463l10 -107q-79 -16 -210 -16h-47v428h238v-104h-112v-215q63 3 121 14zM477 16q186 0 186 77q0 78 -186 78q-187 0 -187 -78q0 -77 187 -77zM477 273q148 0 233.5 -48t85.5 -132 t-85.5 -132t-233.5 -48q-149 0 -234.5 48t-85.5 132t85.5 132t234.5 48zM789 613h101v-108h-101v-219h-132v549h132v-222z" />
<glyph unicode="&#xb54b;" d="M611 547l10 -103q-44 -11 -87.5 -14t-137.5 -3h-48v353h245v-103h-120v-146q89 3 138 16zM311 546l10 -104q-80 -16 -210 -16h-47v354h238v-103h-112v-146q65 3 121 15zM473 5q133 0 133 44t-133 44q-132 0 -132 -44t132 -44zM473 186q124 0 195 -36t71 -101t-71 -100.5 t-195 -35.5q-123 0 -194 35.5t-71 100.5t71 101t194 36zM541 386v-73h264v-98h-662v98h266v73h132zM789 652h101v-107h-101v-185h-132v475h132v-183z" />
<glyph unicode="&#xb54c;" d="M177 620v-373q36 3 76 12l10 -107q-71 -16 -163 -16h-41v589h194v-105h-76zM405 620v-373q47 3 94 14l10 -108q-74 -17 -179 -17h-43v589h200v-105h-82zM723 836h123v-921h-123v458h-67v-417h-121v865h121v-342h67v357z" />
<glyph unicode="&#xb54d;" d="M499 440l10 -106q-75 -15 -176 -15h-42v444h201v-105h-82v-231q43 3 89 13zM256 440l10 -105q-73 -16 -166 -16h-40v444h192v-105h-74v-230q37 3 78 12zM184 143v105h660v-330h-133v225h-527zM721 835h123v-551h-123v222h-61v-219h-121v530h121v-206h61v224z" />
<glyph unicode="&#xb550;" d="M660 476v-296h-121v637h121v-236h61v253h123v-680h-123v322h-61zM499 420l10 -106q-75 -15 -176 -15h-42v453h201v-105h-82v-240q43 3 89 13zM256 420l10 -105q-73 -16 -166 -16h-40v453h192v-105h-74v-239q37 3 78 12zM331 35h534v-105h-666v297h132v-192z" />
<glyph unicode="&#xb554;" d="M660 540v-170h-121v447h121v-172h61v189h123v-467h-123v173h-61zM499 512l10 -104q-71 -15 -176 -15h-42v390h201v-104h-82v-180q43 3 89 13zM256 512l10 -103q-68 -16 -166 -16h-40v390h192v-104h-74v-179q37 3 78 12zM330 27h539v-103h-669v253h513v51h-515v102h646 v-247h-514v-56z" />
<glyph unicode="&#xb55c;" d="M499 469l10 -105q-75 -15 -176 -15h-42v422h201v-105h-82v-209q39 3 89 12zM256 469l10 -104q-73 -16 -166 -16h-40v422h192v-105h-74v-208q32 3 78 11zM330 164v-136h385v136h-385zM200 -75v343h644v-343h-644zM721 835h123v-530h-123v214h-61v-208h-121v507h121v-194 h61v211z" />
<glyph unicode="&#xb55d;" d="M499 483l10 -106q-75 -15 -176 -15h-42v411h201v-105h-82v-198q43 3 89 13zM256 483l10 -105q-73 -16 -166 -16h-40v411h192v-105h-74v-197q37 3 78 12zM713 30v80h-379v-80h379zM713 211v82h131v-369h-640v369h130v-82h379zM721 835h123v-505h-123v199h-61v-193h-121 v482h121v-184h61v201z" />
<glyph unicode="&#xb55f;" d="M660 504v-209h-121v522h121v-208h61v226h123v-622h-123v291h-61zM499 444l10 -106q-75 -15 -176 -15h-42v443h201v-104h-82v-231q43 3 89 13zM256 443l10 -105q-73 -16 -166 -16h-40v444h192v-104h-74v-231q37 3 78 12zM584 262v-25q0 -76 76 -138.5t219 -80.5l-48 -101 q-221 31 -313 165q-92 -134 -314 -165l-48 101q143 18 219.5 80.5t76.5 138.5v25h132z" />
<glyph unicode="&#xb560;" d="M660 516v-201h-121v503h121v-197h61v214h123v-527h-123v208h-61zM499 466l10 -105q-70 -14 -176 -14h-42v424h201v-105h-82v-211q32 2 89 11zM256 466l10 -104q-68 -15 -166 -15h-40v424h192v-105h-74v-211q32 3 78 11zM730 273v-30q0 -77 42 -137.5t129 -87.5l-65 -96 q-124 43 -173 156q-52 -120 -167 -164q-116 42 -167 161q-52 -110 -172 -153l-64 96q86 30 129 91t43 134v30h127v-30q0 -129 102 -203q53 40 79.5 94t26.5 109v30h130z" />
<glyph unicode="&#xb561;" d="M659 512v-207h-120v512h120v-200h62v218h123v-554h-123v231h-62zM499 460l10 -106q-70 -15 -176 -15h-42v422h201v-105h-83v-209q44 3 90 13zM258 459l10 -106q-68 -15 -167 -15h-41v423h196v-105h-78v-209q37 3 80 12zM521 15q192 0 192 77t-192 77q-193 0 -193 -77 t193 -77zM521 271q152 0 239 -47.5t87 -131.5t-87 -131.5t-239 -47.5t-239 47.5t-87 131.5t87 131.5t239 47.5z" />
<glyph unicode="&#xb5a0;" d="M193 645v-394q54 1 106 13l13 -107q-68 -16 -202 -16h-47v609h238v-105h-108zM474 645v-394q85 1 146 16l11 -108q-78 -18 -236 -18h-51v609h250v-105h-120zM692 834h132v-920h-132v494h-137v107h137v319z" />
<glyph unicode="&#xb5a1;" d="M618 449l11 -105q-72 -18 -238 -18h-50v442h256v-104h-126v-231q89 1 147 16zM302 448l11 -106q-80 -16 -210 -16h-47v442h242v-104h-112v-230q61 3 116 14zM172 151v105h651v-343h-131v238h-520zM691 835h132v-542h-132v210h-126v105h126v227z" />
<glyph unicode="&#xb5a4;" d="M570 592h121v243h132v-667h-132v319h-121v105zM618 418l11 -104q-45 -11 -91.5 -14t-146.5 -3h-50v468h256v-105h-126v-257q94 3 147 15zM303 417l10 -105q-71 -15 -210 -15h-47v468h242v-105h-112v-256q58 3 117 13zM316 35h529v-105h-661v294h132v-189z" />
<glyph unicode="&#xb5a8;" d="M562 647h129v188h132v-468h-132v181h-129v99zM619 506l10 -100q-45 -11 -91.5 -14t-147.5 -3h-49v402h256v-103h-126v-197q95 3 148 15zM306 505l10 -100q-80 -16 -213 -16h-47v402h241v-103h-111v-196q59 3 120 13zM314 27h534v-103h-667v254h509v51h-510v102h643v-248 h-509v-56z" />
<glyph unicode="&#xb5aa;" d="M619 500l10 -101q-45 -11 -91.5 -14t-147.5 -3h-49v407h256v-102h-126v-202q87 1 148 15zM306 499l10 -101q-80 -16 -213 -16h-47v407h241v-102h-111v-202q62 3 120 14zM282 81v-59q116 1 196 13l11 -95q-87 -16 -280 -16h-55v248h185v52h-186v97h313v-240h-184zM623 225 v-205h87v205h-87zM509 -76v397h314v-397h-314zM691 835h132v-475h-132v186h-129v98h129v191z" />
<glyph unicode="&#xb5ab;" d="M619 501l10 -100q-45 -11 -91.5 -14t-147.5 -3h-49v405h256v-102h-126v-201q95 3 148 15zM306 500l10 -100q-80 -16 -213 -16h-47v405h241v-102h-111v-200q59 3 120 13zM281 78v-56q119 1 197 15l11 -97q-87 -16 -280 -16h-55v245h184v48h-185v97h313v-236h-185zM706 25 v101h-78v-101h78zM706 224v98h117v-397h-312v397h117v-98h78zM691 835h132v-475h-132v186h-129v98h129v191z" />
<glyph unicode="&#xb5b0;" d="M618 463l11 -104q-45 -11 -91.5 -14t-146.5 -3h-50v434h256v-105h-126v-223q94 3 147 15zM306 462l10 -105q-80 -16 -213 -16h-47v435h241v-105h-111v-223q62 3 120 14zM315 169v-141h378v141h-378zM186 -75v347h637v-347h-637zM691 835h132v-525h-132v204h-126v105h126 v216z" />
<glyph unicode="&#xb5b1;" d="M618 474l11 -106q-73 -17 -238 -17h-50v432h256v-105h-126v-220q89 1 147 16zM301 472l11 -106q-80 -16 -209 -16h-47v433h242v-105h-112v-220q61 3 115 14zM693 30v80h-375v-80h375zM693 212v83h130v-370h-636v370h131v-83h375zM691 834h132v-502h-132v192h-126v105h126 v205z" />
<glyph unicode="&#xb5b3;" d="M565 607h126v228h132v-618h-132v285h-126v105zM618 444l11 -106q-73 -17 -238 -17h-50v450h256v-105h-126v-238q89 1 147 16zM306 443l10 -106q-80 -16 -213 -16h-47v450h242v-105h-112v-238q64 3 120 15zM561 267v-26q0 -76 76.5 -140t218.5 -82l-50 -103 q-225 33 -314 173q-44 -66 -124.5 -112t-189.5 -61l-48 103q139 18 217 84t78 138v26h136z" />
<glyph unicode="&#xb5b4;" d="M565 618h126v217h132v-522h-132v200h-126v105zM618 461l11 -106q-73 -17 -238 -17h-50v437h256v-104h-126v-226q89 1 147 16zM306 459l10 -106q-80 -16 -213 -16h-47v438h242v-104h-112v-226q62 3 120 14zM719 272v-23q0 -78 42.5 -138.5t129.5 -88.5l-65 -95 q-124 42 -174 156q-51 -120 -166 -166q-118 44 -168 163q-53 -112 -170 -153l-65 95q85 29 128 91t43 136v23h129v-23q0 -132 102 -205q52 39 78 94.5t26 110.5v23h130z" />
<glyph unicode="&#xb5b5;" d="M565 614h126v221h132v-549h-132v223h-126v105zM618 455l11 -105q-45 -11 -91.5 -14t-146.5 -3h-50v439h256v-105h-126v-228q95 3 147 16zM306 453l10 -105q-80 -16 -213 -16h-47v440h241v-105h-111v-228q62 3 120 14zM504 15q189 0 189 76q0 77 -189 77t-189 -77 q0 -76 189 -76zM504 270q151 0 237 -47.5t86 -131.5t-86 -131t-237 -47q-150 0 -236.5 47t-86.5 131t86.5 131.5t236.5 47.5z" />
<glyph unicode="&#xb5bb;" d="M572 657h119v178h132v-491h-132v214h-119v99zM617 519l10 -100q-45 -11 -91.5 -14t-146.5 -3h-50v396h257v-102h-127v-192q88 1 148 15zM306 518l10 -100q-80 -16 -213 -16h-47v396h241v-102h-111v-191q59 3 120 13zM495 2q128 0 128 40t-128 40t-128 -40t128 -40z M495 172q128 0 199 -33.5t71 -96.5q0 -62 -71 -95.5t-199 -33.5q-127 0 -198 33.5t-71 95.5t71 96t198 34zM563 299h272v-99h-677v99h273v72h132v-72z" />
<glyph unicode="&#xb5bc;" d="M177 622v-376q35 3 75 12l10 -108q-67 -15 -162 -15h-41v593h191v-106h-73zM402 622v-376q50 3 100 14l11 -108q-77 -16 -185 -16h-44v592h206v-106h-88zM546 502v318h120v-863h-120v438h-94v107h94zM723 836h123v-921h-123v921z" />
<glyph unicode="&#xb5bd;" d="M458 607h88v211h121v-535h-121v219h-88v105zM503 439l10 -105q-77 -16 -185 -16h-43v450h204v-104h-86v-238q58 4 100 13zM251 438l9 -105q-65 -15 -161 -15h-39v450h188v-104h-70v-237q29 1 73 11zM185 140v106h659v-329h-133v223h-526zM721 835h123v-555h-123v555z" />
<glyph unicode="&#xb5c0;" d="M844 835v-694h-123v694h123zM458 582h88v234h121v-651h-121v311h-88v106zM503 405l10 -105q-77 -16 -185 -16h-43v471h204v-104h-86v-259q58 4 100 13zM251 404l9 -105q-65 -15 -161 -15h-39v471h188v-104h-70v-258q39 3 73 11zM333 35h534v-105h-666v293h132v-188z" />
<glyph unicode="&#xb5c4;" d="M843 834v-478h-122v478h122zM462 640h85v176h120v-453h-120v177h-85v100zM497 501l11 -103q-71 -16 -184 -16h-43v398h208v-102h-90v-190q47 3 98 13zM247 500l9 -103q-64 -15 -157 -15h-39v398h188v-102h-70v-189q38 4 69 11zM332 23h535v-102h-665v251h511v51h-513v100 h643v-246h-511v-54z" />
<glyph unicode="&#xb5cc;" d="M458 618h88v199h121v-505h-121v201h-88v105zM503 459l10 -104q-77 -17 -185 -17h-43v442h204v-105h-86v-229q48 3 100 13zM251 458l9 -105q-70 -15 -161 -15h-39v442h188v-105h-70v-228q26 2 73 11zM330 166v-138h385v138h-385zM200 -75v344h644v-344h-644zM721 835h123 v-531h-123v531z" />
<glyph unicode="&#xb5cd;" d="M458 633h88v183h121v-481h-121v193h-88v105zM503 479l10 -105q-82 -17 -185 -17h-43v429h204v-104h-86v-217q51 3 100 14zM251 478l9 -105q-69 -16 -161 -16h-39v429h188v-104h-70v-216q31 3 73 12zM713 30v82h-379v-82h379zM713 213v82h131v-371h-640v371h130v-82h379z M721 835h123v-506h-123v506z" />
<glyph unicode="&#xb5cf;" d="M844 835v-622h-123v622h123zM458 608h88v209h121v-516h-121v201h-88v106zM500 446l13 -106q-75 -18 -185 -18h-43v446h204v-105h-86v-232q52 3 97 15zM251 441l9 -105q-65 -15 -161 -15h-39v447h188v-105h-70v-233q29 1 73 11zM583 265v-25q0 -77 76.5 -139.5 t219.5 -81.5l-49 -103q-222 33 -312 168q-92 -136 -313 -168l-49 103q144 18 220 80.5t76 140.5v25h131z" />
<glyph unicode="&#xb5d0;" d="M844 835v-527h-123v527h123zM458 618h88v199h121v-501h-121v196h-88v106zM503 457l10 -105q-77 -16 -185 -16h-43v438h204v-104h-86v-226q58 4 100 13zM251 456l9 -105q-65 -15 -161 -15h-39v438h188v-104h-70v-225q39 3 73 11zM730 273v-30q0 -77 42 -137.5t129 -87.5 l-65 -96q-123 43 -174 156q-52 -119 -166 -165q-117 44 -167 162q-52 -110 -172 -153l-64 96q86 29 129 90.5t43 134.5v30h127v-30q0 -129 102 -203q53 39 79 93.5t26 109.5v30h131z" />
<glyph unicode="&#xb5d1;" d="M844 835v-564h-123v564h123zM458 613h88v204h121v-516h-121v206h-88v106zM503 450l10 -105q-77 -16 -185 -16h-43v444h204v-105h-86v-231q58 4 100 13zM253 448l9 -105q-70 -16 -163 -16h-39v446h188v-105h-70v-232q32 3 75 12zM521 14q192 0 192 75t-192 75 q-193 0 -193 -75t193 -75zM521 265q153 0 239.5 -46.5t86.5 -129.5t-87 -129t-239 -46t-239 46t-87 129t86.5 129.5t239.5 46.5z" />
<glyph unicode="&#xb5d8;" d="M199 649v-417q46 3 94 13l13 -108q-76 -15 -193 -15h-46v633h228v-106h-96zM468 649v-418q79 1 147 17l11 -108q-76 -18 -239 -18h-51v633h260v-106h-128zM691 835h133v-922h-133v385h-130v106h130v90h-130v106h130v235z" />
<glyph unicode="&#xb5ec;" d="M603 426l8 -83q-44 -11 -90.5 -14t-146.5 -3h-50v447h250v-104h-120v-237q76 1 127 11v85h110v52h-110v102h110v153h132v-535h-132v126h-88zM287 446l10 -105q-71 -15 -196 -15h-45v447h226v-104h-96v-236q59 4 101 13zM719 272v-24q0 -78 42.5 -138.5t129.5 -88.5 l-65 -95q-124 42 -174 157q-51 -120 -166 -166q-118 44 -168 163q-53 -113 -170 -154l-65 95q85 30 128 92t43 135v24h128v-24q0 -131 102 -204q53 39 79 94t26 110v24h130z" />
<glyph unicode="&#xb610;" d="M820 441v-105h-331v423h324v-105h-193v-213h200zM437 464l9 -108q-101 -20 -281 -20h-58v423h323v-105h-191v-209q109 2 198 19zM523 127h354v-106h-834v106h348v170h132v-170z" />
<glyph unicode="&#xb611;" d="M132 104v105h638v-298h-132v193h-506zM527 390h349v-105h-834v105h353v99q-76 -11 -221 -11h-56v322h316v-105h-184v-112q103 2 191 18l9 -81h36v280h313v-105h-181v-112h184v-105h-275v-88z" />
<glyph unicode="&#xb614;" d="M281 214v-179h503v-105h-635v284h132zM527 380h348v-105h-833v105h353v100q-76 -11 -221 -11h-56v327h316v-105h-184v-118q107 3 190 20l10 -81h36v284h313v-105h-182v-118h185v-104h-275v-89z" />
<glyph unicode="&#xb618;" d="M270 73v-53h528v-99h-659v243h505v49h-506v97h636v-237h-504zM525 462h350v-104h-833v104h351v75q-84 -11 -219 -11h-56v281h317v-102h-185v-76q102 1 191 18l8 -71h37v231h312v-102h-181v-77h184v-102h-276v-64z" />
<glyph unicode="&#xb625;" d="M457 12q186 0 186 68q0 67 -186 67t-186 -67q0 -68 186 -68zM457 247q150 0 235 -43.5t85 -123.5t-85 -124t-235 -44t-234.5 44t-84.5 124t84.5 123.5t234.5 43.5zM527 399h349v-105h-834v105h352v85q-76 -11 -220 -11h-56v325h316v-104h-184v-116q102 1 191 18l9 -80h36 v282h312v-104h-181v-116h184v-105h-274v-74z" />
<glyph unicode="&#xb62c;" d="M594 482v-104h-250v369h245v-105h-115v-160h120zM307 498l10 -103q-76 -17 -202 -17h-46v369h236v-105h-106v-159q58 3 108 15zM393 348v-146q113 5 210 15l8 -96q-214 -34 -562 -30l-16 107h228v150h132zM891 467v-109h-110v-445h-132v922h132v-368h110z" />
<glyph unicode="&#xb634;" d="M603 475l8 -90q-219 -31 -569 -31l-12 100q147 0 224 2v64q-44 -5 -136 -5h-45v275h233v-98h-103v-78q51 3 107 13l8 -70h27v233h232v-98h-102v-81h105v-96h-194v-56q146 8 217 16zM275 72v-52h530v-99h-663v244h499v50h-500v99h633v-242h-499zM774 637h114v-107h-114 v-183h-132v489h132v-199z" />
<glyph unicode="&#xb648;" d="M506 482v-102h-207v366h204v-104h-85v-160h88zM268 496l10 -101q-67 -16 -170 -16h-40v367l198 -1v-103h-80v-158q47 4 82 12zM345 352v-119q86 5 165 14l8 -95q-170 -33 -471 -33l-15 107q119 0 188 2v124h125zM730 836h123v-921h-123v458h-64v-418h-120v865h120v-341 h64v357z" />
<glyph unicode="&#xb664;" d="M627 482v-105h-251v370h246v-105h-115v-160h120zM339 498l10 -104q-79 -17 -210 -17h-47v370h239v-105h-109v-160q58 3 117 16zM425 350v-143q107 4 220 17l9 -96q-216 -35 -593 -33l-16 107q161 0 248 1v147h132zM691 835h132v-921h-132v921z" />
<glyph unicode="&#xb668;" d="M809 834v-680h-132v680h132zM628 379l9 -94q-217 -32 -576 -32l-17 105q158 0 242 2v97q-57 -8 -151 -8h-46v322h233v-105h-103v-112q48 3 108 15l9 -83h27v285h239v-105h-109v-113h116v-104h-191v-85q110 5 210 15zM316 33h515v-106h-647v273h132v-167z" />
<glyph unicode="&#xb69c;" d="M814 508v-105h-326v379h320v-105h-189v-169h195zM445 528l9 -105q-104 -20 -282 -20h-57v378h322v-105h-190v-166q106 1 198 18zM876 326v-107h-353v-307h-132v307h-349v107h834z" />
<glyph unicode="&#xb69d;" d="M802 584v-104h-316v320h313v-104h-179v-112h182zM442 602l12 -103q-103 -19 -278 -19h-55v320h315v-104h-181v-112q100 3 187 18zM876 313h-351v-92h245v-308h-132v204h-506v104h261v92h-351v105h834v-105z" />
<glyph unicode="&#xb6a0;" d="M802 558v-105h-316v343h312v-105h-181v-133h185zM444 577l10 -104q-102 -20 -278 -20h-55v343h315v-105h-184v-133q103 1 192 19zM270 208v-173h513v-105h-646v278h133zM43 388h832v-106h-342v-153h-132v153h-358v106z" />
<glyph unicode="&#xb6a4;" d="M802 624v-102h-316v285h312v-102h-181v-81h185zM445 644l12 -101q-109 -21 -281 -21h-55v285h315v-102h-184v-80q105 3 193 19zM875 371h-350v-61h249v-237h-504v-53h528v-99h-659v243h505v49h-506v97h255v61h-351v103h833v-103z" />
<glyph unicode="&#xb6ab;" d="M802 628v-102h-316v281h312v-102h-181v-77h185zM445 648l12 -101q-109 -21 -281 -21h-55v281h316v-102h-185v-76q105 3 193 19zM646 -1q52 0 52 34t-52 34t-52 -34t52 -34zM646 153q73 0 118.5 -32.5t45.5 -87.5t-45.5 -87t-118.5 -32t-118 32t-45 87t45 87.5t118 32.5z M710 331v-69h135v-92h-396v92h134v69h127zM42 483h833v-104h-354v-88h-100v-218h-178v-53q141 1 210 14l12 -94q-53 -10 -106.5 -12.5t-184.5 -2.5h-56v236h179v49h-180v95h272v74h-347v104z" />
<glyph unicode="&#xb6ac;" d="M802 587v-105h-316v318h312v-104h-181v-109h185zM443 605l12 -103q-102 -20 -279 -20h-55v318h318v-104h-187v-109q102 1 191 18zM649 29v106h-380v-106h380zM877 318h-352v-79h253v-314h-638v314h253v79h-349v105h833v-105z" />
<glyph unicode="&#xb6b1;" d="M802 586v-104h-316v316h312v-104h-181v-108h185zM445 605l12 -104q-104 -19 -280 -19h-56v316h318v-104h-187v-108q106 3 193 19zM643 82q0 69 -186 69t-186 -69t186 -69t186 69zM875 322h-350v-73q120 -10 186 -53t66 -114q0 -80 -85 -124.5t-235 -44.5t-234.5 44 t-84.5 125q0 71 67 114.5t188 53.5v72h-351v104h833v-104z" />
<glyph unicode="&#xb6d4;" d="M498 539v-103h-206v328h201v-104h-86v-121h91zM265 554l8 -102q-68 -16 -169 -16h-41v328h197v-104h-82v-119q44 3 87 13zM514 396l8 -94q-78 -14 -184 -22v-296h-124v288q-84 -4 -171 -4l-14 105q305 0 485 23zM552 231v589h121v-865h-121v173h-148v103h148zM729 835 h123v-921h-123v921z" />
<glyph unicode="&#xb6f0;" d="M622 534v-104h-251v343h246v-105h-117v-134h122zM335 551l10 -104q-80 -17 -211 -17h-48v343h241v-105h-111v-133q64 3 119 16zM645 370l8 -96q-127 -19 -240 -26v-306h-132v300q-80 -2 -226 -2l-16 107q413 0 606 23zM689 835h132v-920h-132v920z" />
<glyph unicode="&#xb6f4;" d="M822 835v-695h-132v695h132zM622 566v-104h-249v318h240v-104h-110v-110h119zM339 583l10 -104q-79 -17 -207 -17h-46v318h235v-104h-106v-108q61 3 114 15zM302 165v132q-115 -4 -243 -4l-14 105q385 0 601 24l8 -94q-117 -16 -220 -23v-140h-132zM283 35h556v-105h-687 v271h131v-166z" />
<glyph unicode="&#xb6f8;" d="M822 836v-487h-132v487h132zM621 622v-99h-246v275h241v-100h-112v-76h117zM342 640l9 -101q-80 -16 -208 -16h-46v275h236v-100h-106v-74q63 3 115 16zM306 19h541v-98h-671v244h516v52h-518v96h126v65q-81 -1 -233 -1l-16 99q413 0 598 17l7 -90q-105 -13 -224 -19v-71 h390v-239h-516v-55z" />
<glyph unicode="&#xb700;" d="M621 592v-104h-246v296h241v-104h-112v-88h117zM341 609l10 -104q-79 -17 -207 -17h-47v296h236v-104h-106v-86q61 3 114 15zM692 28v104h-382v-104h382zM432 341v-105h390v-311h-641v311h120v99q-121 -3 -234 -3l-14 101q377 0 593 19l8 -91q-93 -11 -222 -20zM690 833 h132v-555h-132v555z" />
<glyph unicode="&#xb701;" d="M622 607v-103h-247v280h242v-103h-113v-74h118zM343 621l9 -100q-79 -18 -208 -18h-47v281h236v-103h-106v-74q50 1 116 14zM691 28v64h-381v-64h381zM691 191v74h131v-341h-643v341h124v86q-108 -4 -237 -4l-13 102q377 0 594 19l7 -91q-92 -11 -220 -20v-114h-124v-52 h381zM690 834h132v-530h-132v530z" />
<glyph unicode="&#xb705;" d="M823 834v-573h-132v573h132zM621 585v-104h-246v298h241v-104h-112v-90h117zM341 602l10 -104q-79 -17 -207 -17h-47v298h236v-104h-106v-88q61 3 114 15zM505 13q189 0 189 67t-189 67q-190 0 -190 -67t190 -67zM432 333v-89q34 3 73 3q150 0 236.5 -44.5t86.5 -122.5 t-86.5 -122.5t-236.5 -44.5q-151 0 -237.5 44.5t-86.5 122.5q0 93 120 137v110q-109 -4 -234 -4l-15 102q390 0 594 18l8 -91q-104 -13 -222 -19z" />
<glyph unicode="&#xb728;" d="M816 407v-105h-332v446h328v-105h-197v-236h201zM442 427l9 -105q-102 -20 -282 -20h-57v446h327v-105h-195v-234q113 2 198 18zM43 134h833v-107h-833v107z" />
<glyph unicode="&#xb729;" d="M802 577v-104h-316v325h313v-104h-179v-117h182zM442 596l12 -103q-102 -20 -278 -20h-55v325h315v-104h-181v-116q99 1 187 18zM132 116v105h638v-308h-132v203h-506zM42 403h834v-105h-834v105z" />
<glyph unicode="&#xb72c;" d="M801 554v-104h-315v345h313v-104h-179v-137h181zM442 572l12 -103q-97 -19 -278 -19h-55v345h315v-104h-181v-137q100 3 187 18zM276 209v-174h509v-105h-641v279h132zM43 378h832v-105h-832v105z" />
<glyph unicode="&#xb72f;" d="M801 580v-104h-315v322h313v-105h-179v-113h181zM442 598l12 -102q-102 -20 -278 -20h-55v322h315v-105h-181v-113q100 3 187 18zM270 136v-107h515v-104h-646v315h637v-104h-506zM43 415h832v-106h-832v106z" />
<glyph unicode="&#xb730;" d="M802 622v-103h-316v286h312v-102h-181v-81h185zM445 642l12 -102q-109 -21 -281 -21h-55v286h315v-102h-184v-80q104 2 193 19zM270 73v-53h528v-99h-659v243h505v49h-506v97h636v-237h-504zM43 470h832v-104h-832v104z" />
<glyph unicode="&#xb738;" d="M802 585v-104h-316v316h312v-105h-181v-107h185zM443 604l12 -103q-102 -20 -279 -20h-55v316h318v-105h-187v-106q102 1 191 18zM269 135v-107h380v107h-380zM140 -75v313h638v-313h-638zM43 417h832v-105h-832v105z" />
<glyph unicode="&#xb739;" d="M802 590v-104h-316v315h312v-105h-181v-106h185zM443 608l12 -103q-97 -19 -279 -19h-55v315h318v-105h-187v-106q102 1 191 18zM644 30v73h-372v-73h372zM644 204v76h132v-355h-635v355h131v-76h372zM44 432h833v-105h-833v105z" />
<glyph unicode="&#xb73b;" d="M802 573v-104h-316v323h312v-104h-181v-115h185zM443 592l12 -104q-103 -19 -279 -19h-55v323h318v-104h-187v-115q105 3 191 19zM528 251v-17q0 -77 74.5 -137t219.5 -77l-48 -102q-224 30 -313 163q-89 -133 -314 -163l-47 102q145 17 219.5 77t74.5 137v17h134z M42 410h833v-107h-833v107z" />
<glyph unicode="&#xb744;" d="M619 465v-105h-250v383h246v-105h-116v-173h120zM332 484l10 -107q-80 -17 -209 -17h-47v383h237v-105h-108v-170q58 2 117 16zM62 125l-16 107q397 -2 594 21l9 -95q-224 -37 -587 -33zM684 835h132v-921h-132v921z" />
<glyph unicode="&#xb748;" d="M817 834v-675h-133v675h133zM613 548v-105h-243v320h237v-105h-108v-110h114zM336 563l11 -102q-78 -18 -206 -18h-47v320h236v-105h-106v-109q58 3 112 14zM639 393l9 -94q-221 -33 -587 -33l-16 105q391 0 594 22zM318 35h520v-105h-652v271h132v-166z" />
<glyph unicode="&#xb74c;" d="M814 836v-483h-132v483h132zM618 621v-103h-244v280h239v-102h-109v-75h114zM341 638l9 -102q-84 -18 -213 -18h-47v280h242v-102h-112v-74q66 3 121 16zM641 486l7 -90q-224 -29 -588 -27l-14 99q402 0 595 18zM298 19h541v-98h-671v245h516v54h-518v97h648v-242h-516 v-56z" />
<glyph unicode="&#xb754;" d="M814 833v-555h-132v555h132zM622 578v-104h-244v308h240v-104h-110v-100h114zM348 593l8 -102q-86 -17 -212 -17h-47v308h242v-104h-113v-100q66 3 122 15zM640 431l7 -90q-230 -34 -580 -34l-15 101q379 0 588 23zM685 28v107h-378v-107h378zM178 238h637v-314h-637v314 z" />
<glyph unicode="&#xb755;" d="M622 594v-104h-244v300h240v-103h-110v-93h114zM348 610l8 -102q-86 -18 -212 -18h-47v300h242v-103h-113v-93q68 3 122 16zM640 456l7 -90q-216 -32 -580 -34l-15 102q378 0 588 22zM683 30v69h-379v-69h379zM683 201v77h131v-354h-640v354h130v-77h379zM681 835h133 v-522h-133v522z" />
<glyph unicode="&#xb760;" d="M210 639v-387q55 3 119 15l11 -107q-80 -18 -214 -18h-48v603h250v-106h-118zM498 639v-388q78 1 150 16l10 -107q-82 -18 -240 -18h-51v603h266v-106h-135zM691 835h132v-921h-132v921z" />
<glyph unicode="&#xb764;" d="M822 835v-666h-132v666h132zM643 431l10 -103q-81 -17 -237 -17h-50v445h259v-104h-129v-236q81 1 147 15zM330 430l10 -103q-77 -16 -216 -16h-48v445h249v-104h-119v-236q73 4 124 14zM332 35h514v-105h-647v300h133v-195z" />
<glyph unicode="&#xb768;" d="M824 834v-457h-133v457h133zM646 527l10 -100q-43 -11 -89 -14t-151 -3h-50v372h260v-102h-130v-168q90 1 150 15zM330 527l10 -100q-82 -17 -216 -17h-48v372h249v-102h-119v-166q61 1 124 13zM319 27h528v-103h-659v258h505v55h-506v101h637v-252h-505v-59z" />
<glyph unicode="&#xb770;" d="M643 481l10 -105q-80 -17 -236 -17h-50v414h258v-105h-128v-202q80 2 146 15zM330 479l10 -105q-82 -17 -216 -17h-48v416h249v-105h-119v-203q63 2 124 14zM327 170v-142h367v142h-367zM197 -75v348h626v-348h-626zM691 835h132v-519h-132v519z" />
<glyph unicode="&#xb771;" d="M643 492l10 -103q-80 -18 -236 -18h-50v403h258v-104h-129v-194q75 1 147 16zM333 491l10 -104q-78 -16 -219 -16h-48v403h249v-104h-119v-194q57 1 127 15zM690 30v82h-364v-82h364zM690 213v85h131v-373h-625v373h130v-85h364zM691 835h132v-500h-132v500z" />
<glyph unicode="&#xb773;" d="M823 835v-613h-132v613h132zM643 460l10 -103q-80 -17 -236 -17h-50v425h258v-104h-128v-216q80 2 146 15zM330 459l10 -104q-82 -16 -216 -16h-48v426h249v-104h-119v-217q67 3 124 15zM561 278v-35q0 -77 76.5 -141t218.5 -82l-50 -102q-224 31 -314 173 q-43 -67 -123.5 -112.5t-189.5 -60.5l-49 102q139 19 217 85t78 138v35h136z" />
<glyph unicode="&#xb775;" d="M823 835v-546h-132v546h132zM642 462l11 -105q-86 -17 -236 -17h-50v420h258v-104h-134v-209q83 1 151 15zM330 460l10 -106q-82 -16 -217 -16h-47v422h249v-104h-125v-211q78 4 130 15zM508 14q187 0 187 78t-187 78q-188 0 -188 -78t188 -78zM508 272q149 0 234.5 -48 t85.5 -132t-85.5 -132t-234.5 -48q-150 0 -235.5 48t-85.5 132t85.5 132t235.5 48z" />
<glyph unicode="&#xb77c;" d="M211 401v-167q204 2 361 29l12 -107q-171 -31 -425 -31h-78v380h292v147h-293v105h423v-356h-292zM898 488v-109h-132v-467h-132v924h132v-348h132z" />
<glyph unicode="&#xb77d;" d="M76 599h289v80h-290v105h420v-283h-288v-87q221 1 366 28l11 -106q-149 -28 -429 -28h-79v291zM154 128v105h614v-319h-132v214h-482zM890 616v-109h-122v-232h-132v559h132v-218h122z" />
<glyph unicode="&#xb780;" d="M573 421l11 -105q-155 -29 -429 -29h-79v300h289v87h-290v106h420v-292h-288v-95q221 1 366 28zM310 210v-175h492v-105h-624v280h132zM768 570h122v-108h-122v-306h-132v679h132v-265z" />
<glyph unicode="&#xb784;" d="M574 500l10 -100q-147 -25 -430 -25h-78v258h289v60h-290v100h420v-252h-288v-65q230 2 367 24zM298 77v-57h503v-99h-633v249h470v53h-472v99h602v-245h-470zM768 654h122v-108h-122v-189h-132v479h132v-182z" />
<glyph unicode="&#xb78c;" d="M573 454l11 -106q-149 -28 -429 -28h-79v287h289v77h-290v105h420v-280h-288v-83q221 1 366 28zM298 145v-117h341v117h-341zM168 -76v325h600v-325h-600zM890 618v-108h-122v-223h-132v548h132v-217h122z" />
<glyph unicode="&#xb78d;" d="M573 472l11 -105q-155 -29 -429 -29h-79v280h289v70h-290v106h420v-274h-288v-76q221 1 366 28zM637 30v75h-337v-75h337zM637 206v82h131v-364h-599v364h131v-82h337zM890 633v-108h-122v-200h-132v510h132v-202h122z" />
<glyph unicode="&#xb78f;" d="M76 590h289v85h-290v105h420v-287h-288v-88q221 1 366 28l11 -105q-155 -29 -429 -29h-79v291zM541 255v-20q0 -77 73.5 -137.5t213.5 -78.5l-48 -102q-217 33 -305 162q-88 -129 -305 -162l-48 102q140 18 213.5 78.5t73.5 137.5v20h132zM768 600h122v-110h-122v-274 h-132v619h132v-235z" />
<glyph unicode="&#xb790;" d="M365 614v74h-290v105h420v-277h-288v-77q226 1 366 28l11 -105q-150 -29 -429 -29h-79v281h289zM703 270v-21q0 -78 42 -139t128 -89l-65 -95q-122 43 -172 157q-51 -120 -167 -166q-117 43 -167 163q-52 -112 -169 -154l-65 95q85 31 127.5 92.5t42.5 135.5v21h128v-21 q0 -134 102 -205q53 38 79 93.5t26 111.5v21h130zM768 628h122v-109h-122v-216h-132v532h132v-207z" />
<glyph unicode="&#xb791;" d="M76 602h289v73h-290v106h420v-277h-288v-80q221 1 366 28l11 -106q-149 -28 -429 -28h-79v284zM465 14q182 0 182 74t-182 74t-182 -74t182 -74zM465 263q145 0 228.5 -46t83.5 -129q0 -82 -83.5 -128.5t-228.5 -46.5t-228.5 46.5t-83.5 128.5q0 83 83.5 129t228.5 46z M768 620h122v-108h-122v-230h-132v552h132v-214z" />
<glyph unicode="&#xb792;" d="M76 616h292v70h-293v105h423v-273h-291v-73q226 2 366 27l11 -105q-149 -28 -429 -28h-79v277zM780 166h-231q19 -54 88 -96.5t181 -55.5l-46 -99q-214 26 -300 155q-85 -126 -302 -153l-45 99q115 13 183.5 54t86.5 96h-232v103h617v-103zM768 628h122v-109h-122v-208 h-132v524h132v-207z" />
<glyph unicode="&#xb796;" d="M573 466l11 -106q-149 -28 -429 -28h-79v281h289v72h-290v105h420v-275h-288v-77q221 1 366 28zM404 168v-142h143v142h-143zM677 168v-142h119v-102h-638v102h117v142h-109v102h619v-102h-108zM768 628h122v-108h-122v-207h-132v522h132v-207z" />
<glyph unicode="&#xb797;" d="M76 643h285v58h-286v99h420v-249h-284v-64q228 2 363 25l10 -101q-147 -24 -430 -24h-78v256zM466 1q135 0 135 38t-135 38t-135 -38t135 -38zM466 165q125 0 193.5 -32.5t68.5 -93.5t-68.5 -93.5t-193.5 -32.5t-193 32.5t-68 93.5t68 93.5t193 32.5zM533 363v-71h258 v-98h-648v98h258v71h132zM768 644h122v-108h-122v-201h-132v500h132v-191z" />
<glyph unicode="&#xb798;" d="M196 389v-163q140 3 256 21l10 -107q-137 -22 -329 -22h-65v375h220v147h-221v106h348v-357h-219zM708 836h125v-921h-125v467h-83v-424h-123v861h123v-331h83v348z" />
<glyph unicode="&#xb799;" d="M463 423l11 -104q-121 -21 -330 -21h-64v287h221v84h-222v103h349v-283h-221v-87q147 1 256 21zM194 118v106h634v-311h-132v205h-502zM703 835h125v-574h-125v238h-74v-231h-123v551h123v-215h74v231z" />
<glyph unicode="&#xb79c;" d="M629 467v-297h-123v648h123v-245h74v262h125v-683h-125v315h-74zM463 402l11 -104q-121 -21 -330 -21h-64v292h221v88h-222v103h349v-287h-221v-92q148 2 256 21zM340 35h511v-105h-643v285h132v-180z" />
<glyph unicode="&#xb7a0;" d="M629 539v-183h-123v462h123v-175h74v192h125v-488h-125v192h-74zM463 492l11 -101q-126 -18 -330 -18h-64v259h221v56h-222v102h349v-253h-221v-62q143 2 256 17zM334 20h519v-99h-649v245h494v50h-496v98h626v-240h-494v-54z" />
<glyph unicode="&#xb7a8;" d="M463 446l11 -104q-115 -21 -330 -21h-64v281h221v75h-222v103h349v-273h-221v-82q154 2 256 21zM334 150v-122h365v122h-365zM204 -76v329h624v-329h-624zM703 834h125v-543h-125v221h-74v-213h-123v519h123v-200h74v216z" />
<glyph unicode="&#xb7a9;" d="M463 475l11 -104q-121 -21 -330 -21h-64v270h221v65h-222v103h349v-263h-221v-71q147 1 256 21zM698 30v77h-365v-77h365zM698 209v76h130v-360h-626v360h131v-76h365zM703 835h125v-511h-125v201h-74v-196h-123v490h123v-188h74v204z" />
<glyph unicode="&#xb7ab;" d="M629 507v-215h-123v527h123v-207h74v223h125v-619h-125v291h-74zM462 425l12 -103q-119 -24 -330 -24h-64v287h221v83h-222v103h349v-282h-221v-87q152 3 255 23zM577 255v-16q0 -77 76 -139.5t217 -80.5l-52 -102q-219 32 -307 167q-91 -136 -308 -167l-51 102 q141 18 217 80.5t76 139.5v16h132z" />
<glyph unicode="&#xb7ac;" d="M629 507v-209h-123v521h123v-207h74v223h125v-544h-125v216h-74zM80 601h221v73h-222v103h349v-272h-221v-78q155 2 256 21l11 -104q-115 -21 -330 -21h-64v278zM728 260v-22q0 -75 42 -133t129 -84l-63 -95q-125 41 -175 153q-52 -118 -166 -163q-117 45 -167 159 q-52 -109 -171 -149l-64 95q86 29 128.5 87.5t42.5 129.5v22h128v-22q0 -126 101 -195q53 37 79 89t26 106v22h130z" />
<glyph unicode="&#xb7ad;" d="M629 505v-202h-123v516h123v-209h74v225h125v-562h-125v232h-74zM463 442l11 -103q-120 -22 -330 -22h-64v279h221v74h-222v103h349v-273h-221v-79q147 1 256 21zM516 14q184 0 184 73q0 74 -184 74q-186 0 -186 -74q0 -73 186 -73zM516 261q145 0 230.5 -46.5 t85.5 -127.5t-85 -127t-231 -46t-232 46t-86 127t86 127.5t232 46.5z" />
<glyph unicode="&#xb7b4;" d="M211 401v-167q204 2 361 29l12 -107q-171 -31 -425 -31h-78v380h292v147h-293v105h423v-356h-292zM891 504h-125v-154h125v-108h-125v-330h-132v924h132v-224h125v-108z" />
<glyph unicode="&#xb7b5;" d="M76 599h289v80h-290v105h420v-283h-288v-87q221 1 366 28l11 -106q-149 -28 -429 -28h-79v291zM154 128v105h614v-319h-132v214h-482zM889 601h-121v-90h121v-107h-121v-129h-132v560h132v-127h121v-107z" />
<glyph unicode="&#xb7b8;" d="M573 418l11 -105q-155 -29 -429 -29h-79v301h289v89h-290v106h420v-293h-288v-97q221 1 366 28zM310 210v-175h492v-105h-624v280h132zM890 572h-122v-112h122v-107h-122v-197h-132v679h132v-156h122v-107z" />
<glyph unicode="&#xb7c7;" d="M76 590h289v85h-290v105h420v-287h-288v-88q221 1 366 28l11 -105q-155 -29 -429 -29h-79v291zM541 255v-20q0 -76 73.5 -136.5t213.5 -78.5l-48 -102q-217 31 -305 161q-88 -130 -305 -161l-48 102q140 18 214 78.5t74 136.5v20h131zM890 583h-122v-96h122v-107h-122 v-164h-132v619h132v-145h122v-107z" />
<glyph unicode="&#xb7c9;" d="M76 602h289v73h-290v106h420v-277h-288v-80q221 1 366 28l11 -106q-149 -28 -429 -28h-79v284zM465 14q182 0 182 74t-182 74t-182 -74t182 -74zM465 263q145 0 228.5 -46t83.5 -129q0 -82 -83.5 -128.5t-228.5 -46.5t-228.5 46.5t-83.5 128.5q0 83 83.5 129t228.5 46z M890 604h-122v-87h122v-107h-122v-130h-132v555h132v-124h122v-107z" />
<glyph unicode="&#xb7ec;" d="M205 412v-179q197 2 346 26l12 -107q-168 -27 -412 -27h-76v390h282v137h-284v105h415v-345h-283zM681 836h133v-924h-133v485h-144v107h144v332z" />
<glyph unicode="&#xb7ed;" d="M557 426l9 -106q-148 -23 -412 -23h-76v296h284v84h-285v105h415v-287h-283v-92q213 2 348 23zM183 121v105h630v-313h-132v208h-498zM681 834h132v-566h-132v249h-143v105h143v212z" />
<glyph unicode="&#xb7f0;" d="M681 157v346h-143v111h143v221h132v-678h-132zM555 403l10 -105q-144 -23 -411 -23h-76v303h284v91h-285v105h415v-295h-283v-98q213 2 346 22zM333 35h503v-105h-635v281h132v-176z" />
<glyph unicode="&#xb7f4;" d="M681 356v208h-143v104h143v167h132v-479h-132zM555 498l10 -101q-139 -21 -411 -21h-76v258h284v60h-285v100h415v-254h-283v-63q217 0 346 21zM330 21h510v-100h-640v246h483v55h-485v99h615v-245h-483v-55z" />
<glyph unicode="&#xb7fc;" d="M557 446l9 -106q-142 -22 -412 -22h-76v289h284v79h-285v105h415v-281h-283v-86q220 2 348 22zM326 151v-123h357v123h-357zM196 -75v329h617v-329h-617zM681 835h132v-542h-132v247h-143v105h143v190z" />
<glyph unicode="&#xb7fd;" d="M557 470l9 -106q-148 -23 -412 -23h-76v281h284v74h-285v105h415v-277h-283v-77q213 2 348 23zM683 30v75h-355v-75h355zM683 206v80h130v-362h-616v362h131v-80h355zM681 835h132v-511h-132v228h-143v105h143v178z" />
<glyph unicode="&#xb7ff;" d="M681 208v319h-143v105h143v202h132v-626h-132zM78 592h284v88h-285v105h415v-292h-283v-91q204 1 344 30l13 -104q-146 -32 -412 -32h-76v296zM569 254v-18q0 -77 75 -138t217 -79l-49 -102q-220 30 -309 164q-88 -134 -309 -164l-48 102q142 18 217 79t75 138v18h131z " />
<glyph unicode="&#xb800;" d="M681 305v242h-143v106h143v182h132v-530h-132zM78 615h284v77h-285v105h415v-280h-283v-81q213 2 348 23l9 -106q-148 -23 -412 -23h-76v285zM720 271v-22q0 -79 42 -139.5t130 -88.5l-66 -95q-123 42 -174 158q-50 -120 -166 -167q-117 44 -167 164q-52 -112 -170 -155 l-65 95q85 31 127.5 92.5t42.5 135.5v22h128v-22q0 -132 103 -204q53 38 79 93t26 111v22h130z" />
<glyph unicode="&#xb801;" d="M681 275v258h-143v105h143v196h132v-559h-132zM557 437l9 -106q-148 -23 -412 -23h-76v292h284v80h-285v105h415v-283h-283v-88q213 2 348 23zM503 12q184 0 184 75t-184 75t-184 -75t184 -75zM503 261q148 0 232 -46t84 -128t-84.5 -128.5t-231.5 -46.5t-231.5 46.5 t-84.5 128.5t84 128t232 46z" />
<glyph unicode="&#xb807;" d="M681 338v235h-143v104h143v158h132v-497h-132zM554 505l11 -100q-143 -24 -412 -24h-75v257h284v60h-285v100h415v-253h-283v-64q215 2 345 24zM504 3q135 0 135 38q0 39 -135 39q-136 0 -136 -39q0 -38 136 -38zM504 170q127 0 195 -33t68 -96t-68 -95.5t-195 -32.5 t-195 32.5t-68 95.5t67.5 96t195.5 33zM569 294h258v-98h-648v98h258v68h132v-68z" />
<glyph unicode="&#xb808;" d="M196 392v-155q146 3 262 22l11 -106q-136 -24 -336 -24h-65v367h197v144h-198v105h326v-353h-197zM521 522v297h122v-862h-122v457h-91v108h91zM708 836h125v-921h-125v921z" />
<glyph unicode="&#xb809;" d="M517 266v245h-82v106h82v199h123v-550h-123zM461 418l12 -103q-115 -21 -330 -21h-63v288h196v82h-197v103h325v-281h-197v-88q143 1 254 20zM200 119v105h628v-311h-132v206h-496zM703 835h125v-573h-125v573z" />
<glyph unicode="&#xb80c;" d="M828 835v-692h-125v692h125zM517 163v336h-82v106h82v213h123v-655h-123zM461 394l12 -103q-115 -21 -330 -21h-63v298h196v95h-197v103h325v-294h-196v-98q152 3 253 20zM340 35h511v-105h-643v279h132v-174z" />
<glyph unicode="&#xb810;" d="M828 835v-486h-125v486h125zM517 356v208h-82v105h82v150h123v-463h-123zM458 491l12 -101q-117 -21 -327 -21h-63v262h196v57h-197v101h325v-253h-197v-65q145 1 251 20zM334 20h519v-99h-649v245h494v52h-496v97h626v-241h-494v-54z" />
<glyph unicode="&#xb818;" d="M517 288v237h-82v106h82v186h123v-529h-123zM461 437l12 -103q-116 -21 -330 -21h-63v283h196v79h-197v102h325v-277h-197v-83q143 1 254 20zM334 144v-116h365v116h-365zM204 -75v322h624v-322h-624zM703 835h125v-552h-125v552z" />
<glyph unicode="&#xb819;" d="M517 322v217h-82v106h82v171h123v-494h-123zM453 459l14 -103q-115 -21 -324 -21h-63v272h196v68h-197v103h325v-267h-197v-72q147 3 246 20zM698 30v76h-363v-76h363zM698 207v75h130v-357h-623v357h130v-75h363zM703 835h125v-516h-125v516z" />
<glyph unicode="&#xb81b;" d="M828 835v-626h-125v626h125zM517 286v237h-82v106h82v189h123v-532h-123zM461 420l12 -103q-115 -21 -330 -21h-63v289h196v83h-197v103h325v-282h-197v-90q154 3 254 21zM576 252v-16q0 -76 76.5 -138t217.5 -80l-52 -101q-220 32 -308 165q-90 -134 -308 -165l-50 101 q141 18 216.5 80t75.5 138v16h132z" />
<glyph unicode="&#xb81d;" d="M828 835v-567h-125v567h125zM517 292v229h-82v106h82v189h123v-524h-123zM457 429l16 -102q-117 -26 -330 -26h-63v287h196v79h-197v103h325v-278h-197v-88q140 3 250 25zM515 12q185 0 185 72q0 73 -185 73t-185 -73q0 -72 185 -72zM515 255q147 0 232 -45.5t85 -125.5 t-85 -125.5t-232 -45.5q-146 0 -231.5 45.5t-85.5 125.5t85.5 125.5t231.5 45.5z" />
<glyph unicode="&#xb824;" d="M205 402v-176q180 2 325 23l10 -108q-155 -24 -391 -24h-74v389h279v147h-281v105h411v-356h-279zM681 836h133v-924h-133v372h-153v106h153v144h-151v106h151v196z" />
<glyph unicode="&#xb825;" d="M513 418l13 -105q-123 -23 -377 -23h-71v300h272v87h-273v106h403v-291h-271v-96q194 1 304 22zM183 121v105h630v-313h-132v208h-498zM681 834l132 1v-568h-132v139h-148v105h148v91h-148v106h148v126z" />
<glyph unicode="&#xb828;" d="M681 153v229h-147v106h147v103h-147v105h147v139h132v-682h-132zM513 396l14 -106q-138 -24 -378 -24h-71v308h272v93h-273v105h403v-297h-271v-103q177 1 304 24zM330 36h506v-105h-638v276h132v-171z" />
</font>
</defs>
</svg>
